<?xml version="1.0" encoding="utf-8"?>
<!-- Generator: Adobe Illustrator 23.0.3, SVG Export Plug-In . SVG Version: 6.00 Build 0)  -->
<svg version="1.1" id="Layer_1" xmlns="http://www.w3.org/2000/svg" xmlns:xlink="http://www.w3.org/1999/xlink" x="0px" y="0px"
	 viewBox="0 0 140.5 148" style="enable-background:new 0 0 140.5 148;" xml:space="preserve">
<style type="text/css">
	.st0{fill:#E6EEFB;}
	.st1{fill:#CEDEF8;}
	.st2{fill:#FFFFFF;}
	.st3{fill:#0C5ADB;}
	.st4{fill:#C8DFF5;}
	.st5{fill:#AFD8F9;}
	.st6{fill:none;stroke:#0C5ADB;stroke-width:8;stroke-linecap:round;stroke-linejoin:round;stroke-miterlimit:10;}
	.st7{fill:#5BA1E1;}
	.st8{fill:#E9F6FF;}
	.st9{fill:none;stroke:#C8DFF5;stroke-width:4;stroke-linecap:round;stroke-miterlimit:10;}
</style>
<g>
	<g>
		<g>
			<g>
				<rect x="54.2" class="st0" width="32.7" height="7.9"/>
			</g>
		</g>
		<g>
			<g>
				<rect x="54.2" y="12.3" class="st0" width="32.7" height="6.7"/>
			</g>
		</g>
		<g>
			<g>
				<path class="st0" d="M95,48h-5.9c-1.2,0-2.2-1-2.2-2.2V23.4H54.2v22.4c0,1.2-1,2.2-2.2,2.2h-5.9l24.4,22.3L95,48z"/>
			</g>
		</g>
	</g>
	<g>
		<g>
			<g>
				<g>
					<rect x="20.5" class="st0" width="21.4" height="5.2"/>
				</g>
			</g>
			<g>
				<g>
					<rect x="20.5" y="8" class="st0" width="21.4" height="4.4"/>
				</g>
			</g>
			<g>
				<g>
					<path class="st0" d="M47.2,31.4h-3.8c-0.8,0-1.4-0.6-1.4-1.4V15.3H20.5v14.6c0,0.8-0.6,1.4-1.4,1.4h-3.8l16,14.6L47.2,31.4z"/>
				</g>
			</g>
		</g>
		<g>
			<g>
				<g>
					<rect x="99.2" class="st0" width="21.4" height="5.2"/>
				</g>
			</g>
			<g>
				<g>
					<rect x="99.2" y="8" class="st0" width="21.4" height="4.4"/>
				</g>
			</g>
			<g>
				<g>
					<path class="st0" d="M125.9,31.4H122c-0.8,0-1.4-0.6-1.4-1.4V15.3H99.2v14.6c0,0.8-0.6,1.4-1.4,1.4H94l16,14.6L125.9,31.4z"/>
				</g>
			</g>
		</g>
	</g>
	<g>
		<g>
			<g>
				<path class="st1" d="M70.5,78.8c-10.4,0-20.2-4.1-27.6-11.4C35.6,60,31.5,50.2,31.5,39.7c0-21.5,17.5-39,39-39
					c21.5,0,39,17.5,39,39C109.6,61.3,92.1,78.8,70.5,78.8z M70.6,1.9c-20.9,0-37.9,17-37.9,37.9c0,10.1,3.9,19.6,11.1,26.8
					c7.2,7.2,16.7,11.1,26.8,11.1c20.9,0,37.9-17,37.9-37.9C108.4,18.9,91.4,1.9,70.6,1.9z"/>
			</g>
		</g>
		<g>
			<g>
				<path class="st1" d="M70.6,78.8l-0.1,0l0-1.2l0.1,0c0.3,0,0.7,0,1-0.1l0.2,1.2C71.3,78.7,70.9,78.8,70.6,78.8z M69.2,78.7
					c-0.4-0.1-0.8-0.2-1.2-0.3l0.3-1.1c0.4,0.1,0.7,0.2,1.1,0.2L69.2,78.7z M72.9,78.4l-0.3-1.1c0.3-0.1,0.7-0.2,1-0.4l0.5,1.1
					C73.7,78.2,73.3,78.3,72.9,78.4z M66.8,77.9c-0.4-0.2-0.7-0.4-1.1-0.6l0.6-1c0.3,0.2,0.7,0.4,1,0.5L66.8,77.9z M75.3,77.5
					l-0.6-1c0.3-0.2,0.6-0.4,1-0.6l0.7,1C76,77.1,75.6,77.3,75.3,77.5z M64.6,76.7c-0.3-0.2-0.7-0.5-1-0.8l0.8-0.9
					c0.3,0.3,0.6,0.5,0.9,0.7L64.6,76.7z M77.3,76.1l-0.8-0.9c0.3-0.2,0.6-0.5,0.9-0.8l0.8,0.9C77.9,75.6,77.6,75.8,77.3,76.1z
					 M62.7,75.1c-0.3-0.3-0.6-0.6-0.8-0.9l0.9-0.8c0.3,0.3,0.5,0.6,0.8,0.8L62.7,75.1z M79.1,74.4l-0.9-0.8c0.3-0.3,0.5-0.6,0.7-0.9
					l0.9,0.7C79.6,73.8,79.3,74.1,79.1,74.4z M61.1,73.3c-0.2-0.3-0.5-0.6-0.7-1l1-0.7c0.2,0.3,0.5,0.6,0.7,0.9L61.1,73.3z
					 M80.6,72.5l-1-0.7c0.2-0.3,0.4-0.6,0.7-1l1,0.7C81.1,71.8,80.8,72.2,80.6,72.5z M59.7,71.3c-0.2-0.3-0.4-0.7-0.6-1l1-0.6
					c0.2,0.3,0.4,0.7,0.6,1L59.7,71.3z M81.9,70.5l-1-0.6c0.2-0.3,0.4-0.7,0.6-1l1,0.6C82.3,69.8,82.1,70.1,81.9,70.5z M58.5,69.2
					c-0.2-0.3-0.4-0.7-0.6-1.1l1.1-0.5c0.2,0.4,0.4,0.7,0.5,1L58.5,69.2z M83.1,68.3L82,67.8c0.2-0.3,0.3-0.7,0.5-1.1l1.1,0.5
					C83.5,67.6,83.3,68,83.1,68.3z M57.4,67c-0.2-0.4-0.3-0.7-0.5-1.1l1.1-0.5c0.2,0.4,0.3,0.7,0.5,1.1L57.4,67z M84.1,66.2L83,65.7
					c0.2-0.4,0.3-0.7,0.4-1.1l1.1,0.4C84.4,65.4,84.3,65.8,84.1,66.2z M56.4,64.8c-0.1-0.4-0.3-0.7-0.4-1.1l1.1-0.4
					c0.1,0.4,0.3,0.7,0.4,1.1L56.4,64.8z M85,63.9l-1.1-0.4c0.1-0.4,0.3-0.7,0.4-1.1l1.1,0.4C85.3,63.2,85.2,63.5,85,63.9z
					 M55.6,62.6c-0.1-0.4-0.3-0.8-0.4-1.1l1.1-0.4c0.1,0.4,0.2,0.7,0.4,1.1L55.6,62.6z M85.8,61.6l-1.1-0.4c0.1-0.4,0.2-0.7,0.3-1.1
					l1.1,0.3C86,60.9,85.9,61.3,85.8,61.6z M54.9,60.3c-0.1-0.4-0.2-0.8-0.3-1.2l1.1-0.3c0.1,0.4,0.2,0.8,0.3,1.1L54.9,60.3z
					 M86.5,59.3L85.3,59c0.1-0.4,0.2-0.8,0.3-1.1l1.2,0.3C86.7,58.6,86.6,59,86.5,59.3z M54.3,58c-0.1-0.4-0.2-0.8-0.3-1.2l1.2-0.3
					c0.1,0.4,0.2,0.8,0.3,1.1L54.3,58z M87.1,57l-1.2-0.3c0.1-0.4,0.2-0.8,0.3-1.1l1.2,0.2C87.2,56.2,87.1,56.6,87.1,57z M53.7,55.6
					c-0.1-0.4-0.2-0.8-0.2-1.2l1.2-0.2c0.1,0.4,0.2,0.8,0.2,1.2L53.7,55.6z M87.6,54.7l-1.2-0.2c0.1-0.4,0.1-0.8,0.2-1.2l1.2,0.2
					C87.7,53.9,87.6,54.3,87.6,54.7z M53.3,53.3c-0.1-0.4-0.1-0.8-0.2-1.2l1.2-0.2c0.1,0.4,0.1,0.8,0.2,1.2L53.3,53.3z M88,52.3
					l-1.2-0.2c0.1-0.4,0.1-0.8,0.2-1.2l1.2,0.2C88.1,51.5,88,51.9,88,52.3z M52.9,50.9c-0.1-0.4-0.1-0.8-0.2-1.2l1.2-0.1
					c0,0.4,0.1,0.8,0.2,1.2L52.9,50.9z M88.3,49.9l-1.2-0.1c0-0.4,0.1-0.8,0.1-1.2l1.2,0.1C88.4,49.1,88.4,49.5,88.3,49.9z
					 M52.6,48.5c0-0.4-0.1-0.8-0.1-1.2l1.2-0.1c0,0.4,0.1,0.8,0.1,1.2L52.6,48.5z M88.6,47.6l-1.2-0.1c0-0.4,0.1-0.8,0.1-1.2
					l1.2,0.1C88.6,46.8,88.6,47.2,88.6,47.6z M52.4,46.1c0-0.4-0.1-0.8-0.1-1.2l1.2-0.1c0,0.4,0.1,0.8,0.1,1.2L52.4,46.1z
					 M88.8,45.2l-1.2-0.1c0-0.4,0-0.8,0.1-1.2l1.2,0.1C88.8,44.4,88.8,44.8,88.8,45.2z M52.3,43.7c0-0.4,0-0.8,0-1.2l1.2,0
					c0,0.4,0,0.8,0,1.2L52.3,43.7z M88.9,42.8l-1.2,0c0-0.4,0-0.8,0-1.2l1.2,0C88.9,42,88.9,42.4,88.9,42.8z M52.2,41.3
					c0-0.4,0-0.8,0-1.2l1.2,0c0,0.4,0,0.8,0,1.2L52.2,41.3z M88.9,40.4l-1.2,0c0-0.2,0-0.4,0-0.7c0-0.2,0-0.4,0-0.5l1.2,0
					c0,0.2,0,0.4,0,0.5C88.9,39.9,88.9,40.2,88.9,40.4z M53.4,39l-1.2,0c0-0.4,0-0.8,0-1.2l1.2,0C53.4,38.2,53.4,38.6,53.4,39z
					 M87.7,38c0-0.4,0-0.8,0-1.2l1.2,0c0,0.4,0,0.8,0,1.2L87.7,38z M53.4,36.6l-1.2,0c0-0.4,0-0.8,0.1-1.2l1.2,0.1
					C53.4,35.8,53.4,36.2,53.4,36.6z M87.7,35.7c0-0.4,0-0.8-0.1-1.2l1.2-0.1c0,0.4,0,0.8,0.1,1.2L87.7,35.7z M53.5,34.2l-1.2-0.1
					c0-0.4,0.1-0.8,0.1-1.2l1.2,0.1C53.6,33.5,53.6,33.9,53.5,34.2z M87.5,33.3c0-0.4-0.1-0.8-0.1-1.2l1.2-0.1
					c0,0.4,0.1,0.8,0.1,1.2L87.5,33.3z M53.7,31.9l-1.2-0.1c0-0.4,0.1-0.8,0.1-1.2l1.2,0.1C53.8,31.1,53.8,31.5,53.7,31.9z M87.3,31
					c0-0.4-0.1-0.8-0.1-1.2l1.2-0.1c0,0.4,0.1,0.8,0.1,1.2L87.3,31z M54,29.6l-1.2-0.2c0.1-0.4,0.1-0.8,0.2-1.2l1.2,0.2
					C54.1,28.8,54,29.2,54,29.6z M87,28.6c-0.1-0.4-0.1-0.8-0.2-1.2l1.2-0.2c0.1,0.4,0.1,0.8,0.2,1.2L87,28.6z M54.3,27.2L53.2,27
					c0.1-0.4,0.1-0.8,0.2-1.2l1.2,0.2C54.5,26.4,54.4,26.8,54.3,27.2z M86.6,26.3c-0.1-0.4-0.1-0.8-0.2-1.2l1.2-0.2
					c0.1,0.4,0.1,0.8,0.2,1.2L86.6,26.3z M54.7,24.9l-1.2-0.2c0.1-0.4,0.2-0.8,0.2-1.2l1.2,0.2C54.9,24.1,54.8,24.5,54.7,24.9z
					 M86.2,24c-0.1-0.4-0.2-0.8-0.3-1.2l1.2-0.3c0.1,0.4,0.2,0.8,0.3,1.2L86.2,24z M55.2,22.6l-1.2-0.3c0.1-0.4,0.2-0.8,0.3-1.2
					l1.2,0.3C55.4,21.8,55.3,22.2,55.2,22.6z M85.7,21.7c-0.1-0.4-0.2-0.8-0.3-1.1l1.1-0.3c0.1,0.4,0.2,0.8,0.3,1.2L85.7,21.7z
					 M55.8,20.3L54.7,20c0.1-0.4,0.2-0.8,0.3-1.2l1.1,0.3C56,19.6,55.9,19.9,55.8,20.3z M85,19.4c-0.1-0.4-0.2-0.8-0.3-1.1l1.1-0.4
					c0.1,0.4,0.2,0.8,0.3,1.1L85,19.4z M56.5,18.1l-1.1-0.4c0.1-0.4,0.2-0.8,0.4-1.1l1.1,0.4C56.7,17.3,56.6,17.7,56.5,18.1z
					 M84.3,17.2c-0.1-0.4-0.3-0.7-0.4-1.1l1.1-0.4c0.1,0.4,0.3,0.8,0.4,1.1L84.3,17.2z M57.2,15.8l-1.1-0.4c0.1-0.4,0.3-0.8,0.4-1.1
					l1.1,0.4C57.5,15.1,57.4,15.5,57.2,15.8z M83.5,15c-0.1-0.4-0.3-0.7-0.4-1.1l1.1-0.5c0.2,0.4,0.3,0.7,0.5,1.1L83.5,15z
					 M58.1,13.7L57,13.2c0.2-0.4,0.3-0.7,0.5-1.1l1.1,0.5C58.4,12.9,58.3,13.3,58.1,13.7z M82.6,12.8c-0.2-0.4-0.3-0.7-0.5-1.1
					l1.1-0.5c0.2,0.4,0.4,0.7,0.5,1.1L82.6,12.8z M59.1,11.5L58.1,11c0.2-0.4,0.4-0.7,0.6-1.1l1,0.6C59.5,10.9,59.3,11.2,59.1,11.5z
					 M81.6,10.7c-0.2-0.3-0.4-0.7-0.6-1l1-0.6c0.2,0.3,0.4,0.7,0.6,1.1L81.6,10.7z M60.2,9.5l-1-0.6c0.2-0.3,0.4-0.7,0.6-1l1,0.7
					C60.7,8.8,60.4,9.2,60.2,9.5z M80.4,8.7c-0.2-0.3-0.4-0.7-0.7-1l1-0.7c0.2,0.3,0.5,0.7,0.7,1L80.4,8.7z M61.5,7.6l-1-0.7
					c0.2-0.3,0.5-0.7,0.7-1l0.9,0.8C62,6.9,61.8,7.3,61.5,7.6z M79,6.8c-0.2-0.3-0.5-0.6-0.7-0.9l0.9-0.8c0.3,0.3,0.5,0.6,0.8,0.9
					L79,6.8z M63,5.8L62.1,5c0.3-0.3,0.6-0.6,0.9-0.9L63.8,5C63.5,5.2,63.3,5.5,63,5.8z M77.5,5.1c-0.3-0.3-0.6-0.5-0.8-0.8l0.8-0.9
					C77.7,3.7,78,4,78.3,4.3L77.5,5.1z M64.6,4.2l-0.8-0.9c0.3-0.3,0.7-0.5,1-0.7l0.7,1C65.3,3.7,64.9,4,64.6,4.2z M75.7,3.7
					c-0.3-0.2-0.6-0.4-1-0.6l0.6-1c0.4,0.2,0.7,0.4,1.1,0.7L75.7,3.7z M66.5,2.9l-0.6-1c0.4-0.2,0.8-0.4,1.1-0.5l0.4,1.1
					C67.2,2.6,66.9,2.8,66.5,2.9z M73.8,2.6c-0.3-0.1-0.7-0.3-1-0.4L73.1,1c0.4,0.1,0.8,0.3,1.2,0.4L73.8,2.6z M68.6,2.1L68.3,1
					c0.4-0.1,0.8-0.2,1.2-0.2l0.1,1.2C69.3,2,68.9,2,68.6,2.1z M71.7,2c-0.4-0.1-0.7-0.1-1.1-0.1V0.7c0.4,0,0.8,0,1.3,0.1L71.7,2z"
					/>
			</g>
		</g>
		<g>
			<g>
				<g>
					<path class="st1" d="M103.2,20.6h-1.1v-1.2h1.1V20.6z M100.9,20.6h-1.2v-1.2h1.2V20.6z M98.5,20.6h-1.2v-1.2h1.2V20.6z
						 M96.1,20.6h-1.2v-1.2h1.2V20.6z M93.8,20.6h-1.2v-1.2h1.2V20.6z M91.4,20.6h-1.2v-1.2h1.2V20.6z M89,20.6h-1.2v-1.2H89V20.6z
						 M86.6,20.6h-1.2v-1.2h1.2V20.6z M84.3,20.6h-1.2v-1.2h1.2V20.6z M81.9,20.6h-1.2v-1.2h1.2V20.6z M79.5,20.6h-1.2v-1.2h1.2
						V20.6z M77.1,20.6h-1.2v-1.2h1.2V20.6z M74.7,20.6h-1.2v-1.2h1.2V20.6z M72.4,20.6h-1.2v-1.2h1.2V20.6z M70,20.6h-1.2v-1.2H70
						V20.6z M67.6,20.6h-1.2v-1.2h1.2V20.6z M65.2,20.6h-1.2v-1.2h1.2V20.6z M62.9,20.6h-1.2v-1.2h1.2V20.6z M60.5,20.6h-1.2v-1.2
						h1.2V20.6z M58.1,20.6h-1.2v-1.2h1.2V20.6z M55.7,20.6h-1.2v-1.2h1.2V20.6z M53.4,20.6h-1.2v-1.2h1.2V20.6z M51,20.6h-1.2v-1.2
						H51V20.6z M48.6,20.6h-1.2v-1.2h1.2V20.6z M46.2,20.6H45v-1.2h1.2V20.6z M43.9,20.6h-1.2v-1.2h1.2V20.6z M41.5,20.6h-1.2v-1.2
						h1.2V20.6z M39.1,20.6h-1.2v-1.2h1.2V20.6z"/>
				</g>
			</g>
			<g>
				<g>
					<path class="st1" d="M48.6,60h-1.2v-1.2h1.2V60z M46.2,60H45v-1.2h1.2V60z M43.9,60h-1.2v-1.2h1.2V60z M41.5,60h-1.2v-1.2h1.2
						V60z M39.1,60h-1.2v-1.2h1.2V60z M70,60h-1.2v-1.2H70V60z M67.6,60h-1.2v-1.2h1.2V60z M65.2,60h-1.2v-1.2h1.2V60z M62.9,60
						h-1.2v-1.2h1.2V60z M60.5,60h-1.2v-1.2h1.2V60z M58.1,60h-1.2v-1.2h1.2V60z M55.7,60h-1.2v-1.2h1.2V60z M53.4,60h-1.2v-1.2h1.2
						V60z M51,60h-1.2v-1.2H51V60z M91.4,60h-1.2v-1.2h1.2V60z M89,60h-1.2v-1.2H89V60z M86.6,60h-1.2v-1.2h1.2V60z M84.3,60h-1.2
						v-1.2h1.2V60z M81.9,60h-1.2v-1.2h1.2V60z M79.5,60h-1.2v-1.2h1.2V60z M77.1,60h-1.2v-1.2h1.2V60z M74.7,60h-1.2v-1.2h1.2V60z
						 M72.4,60h-1.2v-1.2h1.2V60z M103.2,60h-1.1v-1.2h1.1V60z M100.9,60h-1.2v-1.2h1.2V60z M98.5,60h-1.2v-1.2h1.2V60z M96.1,60
						h-1.2v-1.2h1.2V60z M93.8,60h-1.2v-1.2h1.2V60z"/>
				</g>
			</g>
		</g>
		<g>
			<g>
				<path class="st1" d="M109,40.3h-0.8v-1.2h0.8V40.3z M107,40.3h-1.2v-1.2h1.2V40.3z M104.6,40.3h-1.2v-1.2h1.2V40.3z M102.2,40.3
					H101v-1.2h1.2V40.3z M99.9,40.3h-1.2v-1.2h1.2V40.3z M97.5,40.3h-1.2v-1.2h1.2V40.3z M95.1,40.3h-1.2v-1.2h1.2V40.3z M92.7,40.3
					h-1.2v-1.2h1.2V40.3z M90.4,40.3h-1.2v-1.2h1.2V40.3z M88,40.3h-1.2v-1.2H88V40.3z M85.6,40.3h-1.2v-1.2h1.2V40.3z M83.2,40.3
					H82v-1.2h1.2V40.3z M80.8,40.3h-1.2v-1.2h1.2V40.3z M78.5,40.3h-1.2v-1.2h1.2V40.3z M76.1,40.3h-1.2v-1.2h1.2V40.3z M73.7,40.3
					h-1.2v-1.2h1.2V40.3z M71.3,40.3l-1.2,0l0-1.2l1.2,0L71.3,40.3z M69,40.3h-1.2v-1.2H69V40.3z M66.6,40.3h-1.2v-1.2h1.2V40.3z
					 M64.2,40.3H63v-1.2h1.2V40.3z M61.8,40.3h-1.2v-1.2h1.2V40.3z M59.5,40.3h-1.2v-1.2h1.2V40.3z M57.1,40.3h-1.2v-1.2h1.2V40.3z
					 M54.7,40.3h-1.2v-1.2h1.2V40.3z M52.3,40.3h-1.2v-1.2h1.2V40.3z M50,40.3h-1.2v-1.2H50V40.3z M47.6,40.3h-1.2v-1.2h1.2V40.3z
					 M45.2,40.3l-1.2,0l0-1.2l1.2,0L45.2,40.3z M42.8,40.3h-1.2v-1.2h1.2V40.3z M40.4,40.3h-1.2v-1.2h1.2V40.3z M38.1,40.3h-1.2
					v-1.2h1.2V40.3z M35.7,40.3h-1.2v-1.2h1.2V40.3z M33.3,40.3h-1.2v-1.2h1.2V40.3z"/>
			</g>
		</g>
	</g>
	<g>
		<g>
			<g>
				<g>
					<g>
						<polygon class="st1" points="28.3,106.7 28.3,106.7 56.3,122.9 70.3,114.8 70.3,114.8 42.3,98.6 						"/>
					</g>
				</g>
			</g>
			<g>
				<g>
					<g>
						<polygon class="st1" points="70.3,114.8 70.3,114.8 98.2,98.6 112.2,106.7 112.2,106.7 84.2,122.9 						"/>
					</g>
				</g>
			</g>
			<g>
				<g>
					<polygon class="st1" points="112.2,90.6 112.2,90.6 84.2,74.4 70.3,82.5 70.3,82.5 98.2,98.6 					"/>
				</g>
			</g>
			<g>
				<g>
					<g>
						<polygon class="st1" points="70.3,82.5 70.3,82.5 42.3,98.6 28.3,90.6 28.3,90.6 56.3,74.4 						"/>
					</g>
				</g>
			</g>
			<g>
				<g>
					<polygon class="st1" points="56.3,74.4 42.3,98.6 70.3,82.5 					"/>
				</g>
			</g>
			<g>
				<g>
					<g>
						<polygon class="st1" points="42.2,98.7 28.3,106.7 35.2,110.7 						"/>
					</g>
				</g>
			</g>
			<g>
				<g>
					<polyline class="st1" points="98.2,98.6 70.3,114.8 42.3,98.6 					"/>
				</g>
			</g>
			<g>
				<g>
					<line class="st1" x1="70.3" y1="147.1" x2="70.3" y2="114.8"/>
				</g>
			</g>
		</g>
		<g>
			<g>
				<g>
					<polygon class="st2" points="70.3,114.8 98.2,98.6 98.2,98.6 98.2,98.6 70.3,82.5 42.3,98.6 42.3,98.6 					"/>
				</g>
			</g>
			<g>
				<g>
					<g>
						<polygon class="st0" points="84.2,122.9 70.3,114.8 56.3,122.9 42.3,114.8 42.3,131 70.3,147.1 98.2,131 98.2,114.8 						"/>
					</g>
				</g>
			</g>
			<g>
				<g>
					<g>
						<polygon class="st0" points="98.2,131 98.2,114.8 84.2,122.9 70.3,114.8 70.3,147.1 						"/>
					</g>
				</g>
			</g>
		</g>
	</g>
	<g>
		<g>
			<g>
				<g>
					<path class="st3" d="M56.3,123.8c-0.2,0-0.3,0-0.4-0.1l-28-16.2c-0.3-0.2-0.4-0.5-0.4-0.8c0-0.3,0.2-0.6,0.4-0.8l14-8.1
						c0.3-0.2,0.6-0.2,0.9,0l28,16.1c0.3,0.2,0.4,0.5,0.4,0.8c0,0.3-0.2,0.6-0.4,0.8l-14,8.1C56.6,123.7,56.4,123.8,56.3,123.8z
						 M30.1,106.7l26.2,15.1l12.2-7.1L42.3,99.7L30.1,106.7z"/>
				</g>
			</g>
			<g>
				<g>
					<path class="st3" d="M84.2,123.8c-0.2,0-0.3,0-0.4-0.1l-14-8.1c-0.3-0.2-0.4-0.5-0.4-0.8v0c0-0.3,0.2-0.6,0.4-0.8l28-16.1
						c0.3-0.2,0.6-0.2,0.9,0l14,8.1c0.3,0.2,0.4,0.5,0.4,0.8s-0.2,0.6-0.4,0.8l-28,16.2C84.5,123.7,84.4,123.8,84.2,123.8z
						 M72,114.8l12.2,7.1l26.2-15.1l-12.2-7L72,114.8z"/>
				</g>
			</g>
			<g>
				<g>
					<path class="st3" d="M98.2,99.5c-0.2,0-0.3,0-0.4-0.1l-28-16.2c-0.3-0.2-0.4-0.5-0.4-0.8c0-0.3,0.2-0.6,0.4-0.8l14-8.1
						c0.3-0.2,0.6-0.2,0.9,0l28,16.2c0.3,0.2,0.4,0.5,0.4,0.8s-0.2,0.6-0.4,0.8l-14,8.1C98.5,99.5,98.4,99.5,98.2,99.5z M72,82.5
						l26.2,15.1l12.2-7.1L84.2,75.4L72,82.5z"/>
				</g>
			</g>
			<g>
				<g>
					<path class="st3" d="M42.3,99.5c-0.2,0-0.3,0-0.4-0.1l-14-8.1c-0.3-0.2-0.4-0.5-0.4-0.8s0.2-0.6,0.4-0.8l28-16.2
						c0.3-0.2,0.6-0.2,0.9,0l14,8.1c0.3,0.2,0.4,0.5,0.4,0.8c0,0.3-0.2,0.6-0.4,0.8l-28,16.2C42.6,99.5,42.4,99.5,42.3,99.5z
						 M30.1,90.6l12.2,7.1l26.2-15.1l-12.2-7.1L30.1,90.6z"/>
				</g>
			</g>
			<g>
				<g>
					<path class="st3" d="M70.3,115.7c-0.2,0-0.3,0-0.4-0.1l-28-16.2c-0.4-0.2-0.6-0.8-0.3-1.2c0.2-0.4,0.8-0.6,1.2-0.3l27.5,15.9
						l27.5-15.9c0.4-0.2,1-0.1,1.2,0.3c0.2,0.4,0.1,1-0.3,1.2l-28,16.2C70.6,115.7,70.4,115.7,70.3,115.7z"/>
				</g>
			</g>
			<g>
				<g>
					<path class="st3" d="M70.3,148c-0.5,0-0.9-0.4-0.9-0.9v-32.3c0-0.5,0.4-0.9,0.9-0.9s0.9,0.4,0.9,0.9v32.3
						C71.1,147.6,70.7,148,70.3,148z"/>
				</g>
			</g>
		</g>
		<g>
			<g>
				<g>
					<path class="st3" d="M70.3,115.7c-0.2,0-0.3,0-0.4-0.1l-28-16.1c-0.3-0.2-0.4-0.5-0.4-0.8c0-0.3,0.2-0.6,0.4-0.8l28-16.2
						c0.3-0.2,0.6-0.2,0.9,0l28,16.2c0.3,0.2,0.5,0.6,0.4,1c-0.1,0.3-0.3,0.5-0.5,0.6l-27.9,16.1C70.6,115.6,70.4,115.7,70.3,115.7z
						 M44.1,98.6l26.2,15.1l26.2-15.1L70.3,83.5L44.1,98.6z"/>
				</g>
			</g>
			<g>
				<g>
					<path class="st3" d="M70.3,148c-0.2,0-0.3,0-0.4-0.1l-28-16.2c-0.3-0.2-0.4-0.5-0.4-0.8v-16.2c0-0.3,0.2-0.6,0.4-0.8
						c0.3-0.2,0.6-0.2,0.9,0l13.6,7.8l13.5-7.8c0.3-0.2,0.6-0.2,0.9,0l13.5,7.8l13.6-7.8c0.3-0.2,0.6-0.2,0.9,0
						c0.3,0.2,0.4,0.5,0.4,0.8V131c0,0.3-0.2,0.6-0.4,0.8l-28,16.2C70.6,148,70.4,148,70.3,148z M43.2,130.4l27.1,15.6l27.1-15.6
						v-14.1l-12.7,7.3c-0.3,0.2-0.6,0.2-0.9,0l-13.5-7.8l-13.5,7.8c-0.3,0.2-0.6,0.2-0.9,0l-12.7-7.3V130.4z"/>
				</g>
			</g>
		</g>
	</g>
	<g>
		<g>
			<g>
				<g>
					<path class="st0" d="M94.9,68.3c0-13.6-11-24.6-24.6-24.6c-13.6,0-24.6,11-24.6,24.6c0,6.9,2.8,13.1,7.4,17.6
						c3.9,4.4,6.3,10.1,6.3,16.5h21.8c0-6.4,2.4-12.1,6.3-16.5C92.1,81.4,94.9,75.2,94.9,68.3z"/>
				</g>
			</g>
		</g>
	</g>
	<g>
		<g>
			<path class="st2" d="M70.3,43.7c-13.6,0-24.6,11-24.6,24.6c0,6.9,2.8,13.1,7.4,17.6c3.9,4.4,6.3,10.1,6.3,16.5h0.8
				c0-5.9-2.2-11.2-5.9-15.2c-4.2-4.1-6.9-9.9-6.9-16.3c0-12.6,10.2-22.8,22.8-22.8C82.8,48.1,93,58.3,93,70.9
				c0,6.4-2.6,12.1-6.8,16.3c-3.6,4.1-5.9,9.4-5.9,15.2h0.8c0-6.4,2.4-12.1,6.3-16.5c4.6-4.5,7.4-10.7,7.4-17.6
				C94.9,54.7,83.9,43.7,70.3,43.7z"/>
		</g>
	</g>
	<g>
		<g>
			<g>
				<path class="st1" d="M85.5,68.3c0-13.6-6.8-24.6-15.2-24.6c-8.4,0-15.2,11-15.2,24.6c0,6.9,1.8,13.1,4.6,17.6
					c2.4,4.4,3.9,10.1,3.9,16.5H77c0-6.4,1.5-12.1,3.9-16.5C83.7,81.4,85.5,75.2,85.5,68.3z"/>
			</g>
		</g>
	</g>
	<g>
		<g>
			<path class="st4" d="M80.9,50.7c-2.7-4.3-6.5-7-10.6-7c0,0,0,0,0,0c-4.1,0-7.9,2.7-10.6,7c3.2-1.7,6.8-2.6,10.6-2.6
				C74.1,48.1,77.7,49,80.9,50.7z"/>
		</g>
	</g>
	<g>
		<g>
			<line class="st4" x1="70.3" y1="78.3" x2="70.3" y2="102.4"/>
		</g>
	</g>
	<g>
		<g>
			<g>
				<line class="st4" x1="59.7" y1="110.6" x2="80.8" y2="110.6"/>
			</g>
		</g>
		<g>
			<g>
				<path class="st5" d="M75.1,110.6v2.7c0,2.7-2.2,4.8-4.8,4.8l0,0c-2.7,0-4.8-2.1-4.8-4.8v-2.7"/>
			</g>
		</g>
	</g>
	<g>
		<g>
			<g>
				<g>
					<g>
						<path class="st3" d="M81.2,103.6H59.4c-0.7,0-1.2-0.5-1.2-1.2c0-5.8-2.1-11.3-6-15.7c-5-4.9-7.7-11.4-7.7-18.4
							c0-14.2,11.6-25.8,25.8-25.8c14.2,0,25.8,11.6,25.8,25.8c0,7-2.7,13.5-7.7,18.4c-3.9,4.3-6,9.9-6,15.7
							C82.3,103,81.8,103.6,81.2,103.6z M60.5,101.2H80c0.3-5.9,2.6-11.6,6.6-16.1c0,0,0,0,0.1-0.1c4.5-4.5,7-10.4,7-16.8
							c0-12.9-10.5-23.4-23.4-23.4c-12.9,0-23.4,10.5-23.4,23.4c0,6.3,2.5,12.3,7.1,16.8c0,0,0,0,0.1,0.1
							C57.9,89.6,60.3,95.3,60.5,101.2z"/>
					</g>
				</g>
			</g>
		</g>
		<g>
			<g>
				<path class="st6" d="M70.3,102.4"/>
			</g>
		</g>
		<g>
			<g>
				<path class="st6" d="M70.3,78.3"/>
			</g>
		</g>
		<g>
			<g>
				<g>
					<path class="st3" d="M80.8,111.8H59.7c-0.7,0-1.2-0.5-1.2-1.2s0.5-1.2,1.2-1.2h21.1c0.7,0,1.2,0.5,1.2,1.2
						S81.5,111.8,80.8,111.8z"/>
				</g>
			</g>
			<g>
				<g>
					<path class="st3" d="M80.8,107.7H59.7c-0.7,0-1.2-0.5-1.2-1.2s0.5-1.2,1.2-1.2h21.1c0.7,0,1.2,0.5,1.2,1.2
						S81.5,107.7,80.8,107.7z"/>
				</g>
			</g>
			<g>
				<g>
					<path class="st3" d="M70.3,119.3c-3.3,0-6-2.7-6-6v-2.7c0-0.7,0.5-1.2,1.2-1.2c0.7,0,1.2,0.5,1.2,1.2v2.7c0,2,1.6,3.6,3.6,3.6
						c2,0,3.6-1.6,3.6-3.6v-2.7c0-0.7,0.5-1.2,1.2-1.2c0.7,0,1.2,0.5,1.2,1.2v2.7C76.3,116.6,73.6,119.3,70.3,119.3z"/>
				</g>
			</g>
		</g>
	</g>
	<g>
		<g>
			<path class="st7" d="M70.3,59.5c-2.9,0-5.6,0.5-8.2,1.4v6.3c2.6-0.9,5.3-1.4,8.2-1.4c2.9,0,5.6,0.5,8.2,1.4v-6.3
				C75.9,60,73.1,59.5,70.3,59.5z"/>
		</g>
	</g>
	<g>
		<g>
			<path class="st8" d="M62,63.9v3.4c2.6-0.9,5.3-1.4,8.2-1.4c2.9,0,5.6,0.5,8.2,1.4v-3.4c-2.6-0.9-5.3-1.4-8.2-1.4
				C67.4,62.4,64.6,62.9,62,63.9z"/>
		</g>
	</g>
	<g>
		<g>
			<path class="st3" d="M62,68.4c-0.2,0-0.5-0.1-0.7-0.2c-0.3-0.2-0.5-0.6-0.5-1v-6.3c0-0.5,0.3-1,0.8-1.1c2.8-1,5.7-1.5,8.6-1.5
				c2.9,0,5.8,0.5,8.6,1.5c0.5,0.2,0.8,0.6,0.8,1.1v6.3c0,0.4-0.2,0.7-0.5,1c-0.3,0.2-0.7,0.3-1.1,0.2c-2.5-0.9-5.1-1.3-7.8-1.3
				c-2.7,0-5.3,0.5-7.8,1.3C62.3,68.4,62.2,68.4,62,68.4z M63.2,61.7v3.9c2.3-0.6,4.6-1,7-1c2.4,0,4.7,0.3,7,1v-3.9
				c-2.3-0.7-4.6-1.1-7-1.1C67.9,60.7,65.5,61,63.2,61.7z"/>
		</g>
	</g>
	<g>
		<g>
			<g>
				<polygon class="st1" points="17.6,71.1 14.8,68.4 15.7,67.6 17.6,69.5 19.5,67.6 20.3,68.4 				"/>
			</g>
		</g>
		<g>
			<g>
				<rect x="17" y="65.1" class="st1" width="1.2" height="5.2"/>
			</g>
		</g>
		<g>
			<g>
				<rect x="17" y="62.5" class="st1" width="1.2" height="1.3"/>
			</g>
		</g>
		<g>
			<g>
				<rect x="17" y="60.5" class="st1" width="1.2" height="1.3"/>
			</g>
		</g>
		<g>
			<g>
				<rect x="17" y="58.5" class="st1" width="1.2" height="1.3"/>
			</g>
		</g>
		<g>
			<g>
				<rect x="17" y="54.1" class="st1" width="1.2" height="3.3"/>
			</g>
		</g>
	</g>
	<g>
		<g>
			<g>
				<polygon class="st1" points="125.7,78.5 123,75.7 123.8,74.9 125.7,76.8 127.6,74.9 128.4,75.7 				"/>
			</g>
		</g>
		<g>
			<g>
				<rect x="125.1" y="72.4" class="st1" width="1.2" height="5.2"/>
			</g>
		</g>
		<g>
			<g>
				<rect x="125.1" y="69.8" class="st1" width="1.2" height="1.3"/>
			</g>
		</g>
		<g>
			<g>
				<rect x="125.1" y="67.8" class="st1" width="1.2" height="1.3"/>
			</g>
		</g>
		<g>
			<g>
				<rect x="125.1" y="65.8" class="st1" width="1.2" height="1.3"/>
			</g>
		</g>
		<g>
			<g>
				<rect x="125.1" y="61.4" class="st1" width="1.2" height="3.3"/>
			</g>
		</g>
	</g>
	<g>
		<g>
			<g>
				<g>
					<polygon class="st1" points="29.4,82.2 26.7,79.5 27.5,78.6 29.4,80.5 31.3,78.6 32.2,79.5 					"/>
				</g>
			</g>
			<g>
				<g>
					<rect x="28.8" y="76.1" class="st1" width="1.2" height="5.2"/>
				</g>
			</g>
			<g>
				<g>
					<rect x="28.8" y="73.6" class="st1" width="1.2" height="1.3"/>
				</g>
			</g>
			<g>
				<g>
					<rect x="28.8" y="71.5" class="st1" width="1.2" height="1.3"/>
				</g>
			</g>
			<g>
				<g>
					<rect x="28.8" y="69.5" class="st1" width="1.2" height="1.3"/>
				</g>
			</g>
			<g>
				<g>
					<rect x="28.8" y="65.1" class="st1" width="1.2" height="3.3"/>
				</g>
			</g>
		</g>
		<g>
			<g>
				<g>
					<polygon class="st1" points="111.1,82.2 108.3,79.5 109.2,78.6 111.1,80.5 113,78.6 113.8,79.5 					"/>
				</g>
			</g>
			<g>
				<g>
					<rect x="110.5" y="76.1" class="st1" width="1.2" height="5.2"/>
				</g>
			</g>
			<g>
				<g>
					<rect x="110.5" y="73.6" class="st1" width="1.2" height="1.3"/>
				</g>
			</g>
			<g>
				<g>
					<rect x="110.5" y="71.5" class="st1" width="1.2" height="1.3"/>
				</g>
			</g>
			<g>
				<g>
					<rect x="110.5" y="69.5" class="st1" width="1.2" height="1.3"/>
				</g>
			</g>
			<g>
				<g>
					<rect x="110.5" y="65.1" class="st1" width="1.2" height="3.3"/>
				</g>
			</g>
		</g>
	</g>
	<g>
		<g>
			<path class="st8" d="M76.4,50.9c3.4,3.4,3.4,8.9,0,12.3c-3.4,3.4-8.9,3.4-12.3,0c-3.4-3.4-3.4-8.9,0-12.3
				C67.5,47.5,73,47.5,76.4,50.9z"/>
		</g>
	</g>
	<g>
		<g>
			<path class="st3" d="M70.3,66.9c-2.5,0-5.1-1-7-2.9c-3.9-3.9-3.9-10.1,0-14c1.9-1.9,4.4-2.9,7-2.9c2.6,0,5.1,1,7,2.9h0
				c0,0,0,0,0,0c3.9,3.9,3.9,10.1,0,14C75.3,66,72.8,66.9,70.3,66.9z M70.3,49.5c-2,0-3.9,0.8-5.3,2.2c-2.9,2.9-2.9,7.7,0,10.6
				c2.9,2.9,7.7,2.9,10.6,0c2.9-2.9,2.9-7.7,0-10.6c0,0,0,0,0,0C74.1,50.3,72.3,49.5,70.3,49.5z"/>
		</g>
	</g>
	<g>
		<g>
			<g>
				<path class="st3" d="M70.3,61.6c-1.2,0-2.3-0.5-3.2-1.3c-1.8-1.8-1.8-4.6,0-6.4c0.9-0.9,2-1.3,3.2-1.3c1.2,0,2.3,0.5,3.2,1.3
					l0,0c0,0,0,0,0,0c0.9,0.9,1.3,2,1.3,3.2c0,1.2-0.5,2.3-1.3,3.2C72.6,61.1,71.5,61.6,70.3,61.6z M70.3,54.9
					c-0.6,0-1.1,0.2-1.5,0.6c-0.8,0.8-0.8,2.2,0,3c0.4,0.4,0.9,0.6,1.5,0.6s1.1-0.2,1.5-0.6c0.4-0.4,0.6-0.9,0.6-1.5
					c0-0.6-0.2-1.1-0.6-1.5c0,0,0,0,0,0C71.4,55.1,70.8,54.9,70.3,54.9z"/>
			</g>
		</g>
		<g>
			<g>
				<g>
					<path class="st3" d="M67.9,55.9c-0.3,0-0.6-0.1-0.8-0.3l-1.8-1.8c-0.5-0.5-0.5-1.2,0-1.7c0.5-0.5,1.2-0.5,1.7,0l1.8,1.8
						c0.5,0.5,0.5,1.2,0,1.7C68.5,55.8,68.2,55.9,67.9,55.9z"/>
				</g>
			</g>
			<g>
				<g>
					<path class="st3" d="M74.4,62.4c-0.3,0-0.6-0.1-0.8-0.3l-1.8-1.8c-0.5-0.5-0.5-1.2,0-1.7c0.5-0.5,1.2-0.5,1.7,0l1.8,1.8
						c0.5,0.5,0.5,1.2,0,1.7C75,62.3,74.7,62.4,74.4,62.4z"/>
				</g>
			</g>
		</g>
		<g>
			<g>
				<g>
					<path class="st3" d="M72.6,55.9c-0.3,0-0.6-0.1-0.8-0.3c-0.5-0.5-0.5-1.2,0-1.7l1.8-1.8c0.5-0.5,1.2-0.5,1.7,0
						c0.5,0.5,0.5,1.2,0,1.7l-1.8,1.8C73.2,55.8,72.9,55.9,72.6,55.9z"/>
				</g>
			</g>
			<g>
				<g>
					<path class="st3" d="M66.1,62.4c-0.3,0-0.6-0.1-0.8-0.3c-0.5-0.5-0.5-1.2,0-1.7l1.8-1.8c0.5-0.5,1.2-0.5,1.7,0
						c0.5,0.5,0.5,1.2,0,1.7l-1.8,1.8C66.7,62.3,66.4,62.4,66.1,62.4z"/>
				</g>
			</g>
		</g>
	</g>
	<g>
		<g>
			<g>
				<path class="st1" d="M77.8,96.1h-15V68.2h15V96.1z M63.9,94.9h12.7V69.3H63.9V94.9z"/>
			</g>
		</g>
		<g>
			<g>
				<g>
					<path class="st1" d="M74.8,93.1h-5.6l-0.1-0.5C69,91.7,68.6,91,68,90.5c-0.5-0.3-1-0.4-1.5-0.3l-0.7,0.2V86h1.2v3
						c0.6,0,1.2,0.2,1.8,0.5c0.7,0.5,1.3,1.4,1.5,2.4h3.3v-6h1.2V93.1z"/>
				</g>
			</g>
			<g>
				<g>
					<path class="st1" d="M74.8,78.3h-1.2v-2.5c-1.6-0.5-2.9-1.8-3.3-3.5h-3.3v6h-1.2v-7.2h5.6l0.1,0.5c0.2,1.6,1.4,2.8,2.9,3.1
						l0.5,0.1V78.3z"/>
				</g>
			</g>
		</g>
		<g>
			<g>
				<g>
					<path class="st1" d="M66.3,93.6c-0.6,0-1-0.5-1-1c0-0.6,0.5-1,1-1c0.6,0,1,0.5,1,1C67.3,93.2,66.8,93.6,66.3,93.6z M66.3,92.5
						c-0.1,0-0.2,0.1-0.2,0.2c0,0.1,0.1,0.2,0.2,0.2c0.1,0,0.2-0.1,0.2-0.2C66.4,92.5,66.4,92.5,66.3,92.5z"/>
				</g>
			</g>
			<g>
				<g>
					<path class="st1" d="M74.2,72.7c-0.6,0-1-0.5-1-1c0-0.6,0.5-1,1-1c0.6,0,1,0.5,1,1C75.3,72.2,74.8,72.7,74.2,72.7z M74.2,71.5
						c-0.1,0-0.2,0.1-0.2,0.2c0,0.1,0.1,0.2,0.2,0.2s0.2-0.1,0.2-0.2C74.4,71.5,74.3,71.5,74.2,71.5z"/>
				</g>
			</g>
		</g>
		<g>
			<g>
				<g>
					<g>
						<rect x="64" y="81.5" class="st1" width="2.6" height="1.2"/>
					</g>
				</g>
				<g>
					<g>
						<rect x="73.9" y="81.5" class="st1" width="2.6" height="1.2"/>
					</g>
				</g>
			</g>
		</g>
	</g>
	<g>
		<g>
			<g>
				<g>
					<path class="st1" d="M24.5,107h-15V79h15V107z M10.6,105.8h12.7V80.2H10.6V105.8z"/>
				</g>
			</g>
			<g>
				<g>
					<g>
						<path class="st1" d="M21.4,104h-5.6l-0.1-0.5c-0.1-0.9-0.5-1.7-1.1-2.1c-0.5-0.3-1-0.4-1.5-0.3l-0.7,0.2v-4.5h1.2v3
							c0.6,0,1.2,0.2,1.8,0.5c0.7,0.5,1.3,1.4,1.5,2.4h3.3v-6h1.2V104z"/>
					</g>
				</g>
				<g>
					<g>
						<path class="st1" d="M21.4,89.2h-1.2v-2.5c-1.6-0.5-2.9-1.8-3.3-3.5h-3.3v6h-1.2V82H18l0.1,0.5c0.2,1.6,1.4,2.8,2.9,3.1
							l0.5,0.1V89.2z"/>
					</g>
				</g>
			</g>
			<g>
				<g>
					<g>
						<path class="st1" d="M12.9,104.5c-0.6,0-1-0.5-1-1c0-0.6,0.5-1,1-1c0.6,0,1,0.5,1,1C14,104.1,13.5,104.5,12.9,104.5z
							 M12.9,103.4c-0.1,0-0.2,0.1-0.2,0.2c0,0.1,0.1,0.2,0.2,0.2s0.2-0.1,0.2-0.2C13.1,103.4,13,103.4,12.9,103.4z"/>
					</g>
				</g>
				<g>
					<g>
						<path class="st1" d="M20.9,83.6c-0.6,0-1-0.5-1-1c0-0.6,0.5-1,1-1s1,0.5,1,1C22,83.1,21.5,83.6,20.9,83.6z M20.9,82.4
							c-0.1,0-0.2,0.1-0.2,0.2c0,0.1,0.1,0.2,0.2,0.2s0.2-0.1,0.2-0.2C21.1,82.4,21,82.4,20.9,82.4z"/>
					</g>
				</g>
			</g>
			<g>
				<g>
					<g>
						<g>
							<rect x="10.6" y="92.4" class="st1" width="2.6" height="1.2"/>
						</g>
					</g>
					<g>
						<g>
							<rect x="20.6" y="92.4" class="st1" width="2.6" height="1.2"/>
						</g>
					</g>
				</g>
			</g>
		</g>
		<g>
			<g>
				<g>
					<path class="st1" d="M131.7,107h-15V79h15V107z M117.8,105.8h12.7V80.2h-12.7V105.8z"/>
				</g>
			</g>
			<g>
				<g>
					<g>
						<path class="st1" d="M128.7,104h-5.6l-0.1-0.5c-0.1-0.9-0.5-1.7-1.1-2.1c-0.5-0.3-1-0.4-1.5-0.3l-0.7,0.2v-4.5h1.2v3
							c0.6,0,1.2,0.2,1.8,0.5c0.7,0.5,1.3,1.4,1.5,2.4h3.3v-6h1.2V104z"/>
					</g>
				</g>
				<g>
					<g>
						<path class="st1" d="M128.7,89.2h-1.2v-2.5c-1.6-0.5-2.9-1.8-3.3-3.5h-3.3v6h-1.2V82h5.6l0.1,0.5c0.2,1.6,1.4,2.8,2.9,3.1
							l0.5,0.1V89.2z"/>
					</g>
				</g>
			</g>
			<g>
				<g>
					<g>
						<path class="st1" d="M120.2,104.5c-0.6,0-1-0.5-1-1c0-0.6,0.5-1,1-1c0.6,0,1,0.5,1,1C121.2,104.1,120.8,104.5,120.2,104.5z
							 M120.2,103.4c-0.1,0-0.2,0.1-0.2,0.2c0,0.1,0.1,0.2,0.2,0.2s0.2-0.1,0.2-0.2C120.3,103.4,120.3,103.4,120.2,103.4z"/>
					</g>
				</g>
				<g>
					<g>
						<path class="st1" d="M128.2,83.6c-0.6,0-1-0.5-1-1c0-0.6,0.5-1,1-1c0.6,0,1,0.5,1,1C129.2,83.1,128.7,83.6,128.2,83.6z
							 M128.2,82.4c-0.1,0-0.2,0.1-0.2,0.2c0,0.1,0.1,0.2,0.2,0.2s0.2-0.1,0.2-0.2C128.3,82.4,128.2,82.4,128.2,82.4z"/>
					</g>
				</g>
			</g>
			<g>
				<g>
					<g>
						<g>
							<rect x="117.9" y="92.4" class="st1" width="2.6" height="1.2"/>
						</g>
					</g>
					<g>
						<g>
							<rect x="127.8" y="92.4" class="st1" width="2.6" height="1.2"/>
						</g>
					</g>
				</g>
			</g>
		</g>
	</g>
	<g>
		<g>
			<g>
				<g>
					<g>
						<g>
							<path class="st3" d="M38,66h-5c-0.7,0-1.2-0.5-1.2-1.2c0-0.7,0.5-1.2,1.2-1.2h5c0.7,0,1.2,0.5,1.2,1.2
								C39.2,65.5,38.7,66,38,66z"/>
						</g>
					</g>
				</g>
				<g>
					<g>
						<g>
							<path class="st3" d="M39.8,57.1c-0.3,0-0.6-0.1-0.8-0.3l-3.5-3.5c-0.5-0.5-0.5-1.2,0-1.7c0.5-0.5,1.2-0.5,1.7,0l3.5,3.5
								c0.5,0.5,0.5,1.2,0,1.7C40.4,57,40.1,57.1,39.8,57.1z"/>
						</g>
					</g>
				</g>
				<g>
					<g>
						<g>
							<path class="st3" d="M36.3,78.4c-0.3,0-0.6-0.1-0.8-0.3c-0.5-0.5-0.5-1.2,0-1.7l3.5-3.5c0.5-0.5,1.2-0.5,1.7,0
								c0.5,0.5,0.5,1.2,0,1.7l-3.5,3.5C36.9,78.3,36.6,78.4,36.3,78.4z"/>
						</g>
					</g>
				</g>
			</g>
		</g>
		<g>
			<g>
				<g>
					<g>
						<g>
							<path class="st3" d="M107.5,66h-5c-0.7,0-1.2-0.5-1.2-1.2s0.5-1.2,1.2-1.2h5c0.7,0,1.2,0.5,1.2,1.2S108.1,66,107.5,66z"/>
						</g>
					</g>
				</g>
				<g>
					<g>
						<g>
							<path class="st3" d="M104.2,78.4c-0.3,0-0.6-0.1-0.8-0.3l-3.5-3.5c-0.5-0.5-0.5-1.2,0-1.7c0.5-0.5,1.2-0.5,1.7,0l3.5,3.5
								c0.5,0.5,0.5,1.2,0,1.7C104.8,78.3,104.5,78.4,104.2,78.4z"/>
						</g>
					</g>
				</g>
				<g>
					<g>
						<g>
							<path class="st3" d="M100.7,57.1c-0.3,0-0.6-0.1-0.8-0.3c-0.5-0.5-0.5-1.2,0-1.7l3.5-3.5c0.5-0.5,1.2-0.5,1.7,0
								c0.5,0.5,0.5,1.2,0,1.7l-3.5,3.5C101.3,57,101,57.1,100.7,57.1z"/>
						</g>
					</g>
				</g>
			</g>
		</g>
	</g>
	<g>
		<g>
			<path class="st2" d="M72.7,43.1c-2.3,3.9-0.4,7.4,3.8,6.9c4.1-0.5,13.2-0.6,21.8,1.8c6.4,1.8,13.5-0.1,16.6-1.2V30.3
				C109,30,84,19.1,79.3,19.7c0,0-16.3,10-16.4,11.6c-0.2,4,1.9,15.4,1.1,18.5c-0.8,3.1,5.9,3.6,7.1,0.9c1-2.3,0.5-8.1,0.9-8.4
				C72.3,41.8,72.7,43.1,72.7,43.1z"/>
		</g>
	</g>
	<g>
		<g>
			<path class="st0" d="M79.3,23c0,0-14.9,9.2-16.3,11.3c0.4,4.6,1.4,11.6,1.1,14.7c0,0.8,0.1,1.6,0.1,2.2C65.3,53,70,53,71,50.7
				c1-2.3,0.5-8.1,0.9-8.4c0.4-0.5,0.8,0.7,0.8,0.7c-0.8,1.3-1.1,2.6-0.9,3.8c0-0.7,0-1.1,0.1-1.2c0.4-0.5,0.8,0.7,0.8,0.7
				c-0.3,0.5-0.5,1-0.7,1.5c0.6,1.5,2.2,2.4,4.5,2.2c4.1-0.5,13.2-0.6,21.8,1.8c6.4,1.8,13.5-0.1,16.6-1.2v-17
				C109,33.2,84,22.3,79.3,23z"/>
		</g>
	</g>
	<g>
		<g>
			<path class="st1" d="M79.3,32.8l-7,3.1c0,0-0.5,0.4-0.5,1.3c0,0.9,0,7.5,0,7.5s1.6-2.5,2.3-2.8c0.8-0.4,1.6-0.9,1.6-0.9
				s2.8-1.4,6.8-0.6c3.9,0.8,6.9-0.3,6.9-0.3L79.3,32.8z"/>
		</g>
	</g>
	<g>
		<g>
			<path class="st1" d="M76.6,40.6l0.2-1.3l6.9-3.3l4.7,4c0,0-4.3,1-6.1,0.6C80.6,40.2,76.6,40.7,76.6,40.6"/>
		</g>
	</g>
	<g>
		<g>
			<path class="st9" d="M118.9,35.6"/>
		</g>
	</g>
	<g>
		<g>
			<path class="st1" d="M114.9,28.9c0-0.6,0.5-1.1,1.1-1.1h9.6c0.6,0,1.1,0.5,1.1,1.1v23.8c0,0.6-0.5,1.1-1.1,1.1H116
				c-0.6,0-1.1-0.5-1.1-1.1V28.9z"/>
		</g>
	</g>
	<g>
		<g>
			<g>
				<path class="st1" d="M114.9,33.1c0-0.4,0.5-0.7,1.1-0.7h9.6c0.6,0,1.1,0.3,1.1,0.7v15.4c0,0.4-0.5,0.7-1.1,0.7H116
					c-0.6,0-1.1-0.3-1.1-0.7V33.1z"/>
			</g>
		</g>
	</g>
	<g>
		<g>
			<g>
				<path class="st3" d="M125.7,54.7H116c-1.1,0-2-0.9-2-2V28.9c0-1.1,0.9-2,2-2h9.6c1.1,0,2,0.9,2,2v23.8
					C127.7,53.8,126.8,54.7,125.7,54.7z M116,28.6c-0.1,0-0.3,0.1-0.3,0.3v23.8c0,0.1,0.1,0.3,0.3,0.3h9.6c0.1,0,0.3-0.1,0.3-0.3
					V28.9c0-0.1-0.1-0.3-0.3-0.3H116z"/>
			</g>
		</g>
	</g>
	<g>
		<g>
			<path class="st3" d="M67,53.6c-0.5,0-1.1-0.1-1.5-0.2c-1.8-0.5-2.7-1.9-2.5-3.7c0.2-1.6-0.1-5.7-0.5-9.6
				c-0.3-3.6-0.6-6.9-0.6-8.9c0-0.6,0.1-1.4,8.6-7.1c4.1-2.7,8.2-5.2,8.2-5.2c0.1-0.1,0.2-0.1,0.3-0.1c2.6-0.4,9.5,2,19.7,5.6
				c6.7,2.4,13.5,4.8,16.1,5c0.5,0,0.8,0.4,0.8,0.9v20.3c0,0.4-0.2,0.7-0.6,0.8c-3.6,1.2-10.6,3-17.2,1.2
				c-8.6-2.4-17.5-2.2-21.5-1.8c-1.7,0.2-3.3-0.2-4.3-1.2c-0.1,0.5-0.2,1-0.4,1.4C71.1,52.7,68.9,53.6,67,53.6z M63.7,31.5
				c-0.1,1.8,0.2,5.2,0.6,8.5c0.4,4.2,0.8,8.2,0.5,10c0,0.3-0.2,1.3,1.2,1.8c1.6,0.5,3.7-0.2,4.2-1.4c0.6-1.3,0.6-4.3,0.6-6
				c0-1.8,0-2.2,0.4-2.6c0.3-0.3,0.7-0.5,1.1-0.4c0.7,0.2,1.1,1,1.2,1.4c0.1,0.2,0,0.5-0.1,0.7c-1,1.6-1.1,3.3-0.4,4.4
				c0.6,0.9,1.8,1.4,3.3,1.2c4.1-0.5,13.3-0.6,22.1,1.8c5.9,1.6,12.4,0,15.5-0.9V31.1c-3.2-0.5-9.3-2.7-15.7-5
				c-7.6-2.7-16.1-5.7-18.7-5.5C72.3,25,64.6,30.2,63.7,31.5z"/>
		</g>
	</g>
	<g>
		<g>
			<path class="st3" d="M71.7,46c-0.1,0-0.2,0-0.2,0c-0.5-0.1-0.8-0.6-0.6-1.1c0-0.1,1.8-6.5,10.3-5.6c8,0.9,10.1-0.8,10.3-1.5
				c0.1-0.5,0.6-0.8,1.1-0.7c0.5,0.1,0.8,0.6,0.7,1.1c-0.3,1.2-2,4-12.2,2.9c-7-0.7-8.3,4.1-8.4,4.3C72.5,45.8,72.1,46,71.7,46z"/>
		</g>
	</g>
	<g>
		<g>
			<path class="st3" d="M70.8,43.7c0,0,0-5.1,0-7.9c0-0.3,0.2-0.7,0.5-0.8l7.7-3.5c0.3-0.1,0.7-0.1,0.9,0.1c0.1,0.1,7.2,5.7,10,7.6
				c0.4,0.3,0.5,0.8,0.2,1.2C90,40.9,89.4,41,89,40.7c-2.5-1.7-8.1-6.1-9.7-7.3l-6.7,3.1c0,2.9,0,7.3,0,7.3L70.8,43.7z"/>
		</g>
	</g>
	<g>
		<g>
			<path class="st3" d="M76.2,40.6c-0.3,0-0.6-0.3-0.6-0.6v-0.8c0-0.2,0.1-0.5,0.4-0.5l7.8-3.3c0.3-0.1,0.7,0,0.8,0.3
				c0.1,0.3,0,0.7-0.3,0.8l-7.4,3.2V40C76.8,40.3,76.5,40.6,76.2,40.6z"/>
		</g>
	</g>
	<g>
		<g>
			<rect x="121.9" y="26.2" class="st0" width="14.3" height="29.4"/>
		</g>
	</g>
	<g>
		<g>
			<rect x="121.9" y="29.6" class="st1" width="14.3" height="22.4"/>
		</g>
	</g>
	<g>
		<g>
			<path class="st3" d="M136.2,56.5h-14.3c-0.5,0-0.9-0.4-0.9-0.9V26.2c0-0.5,0.4-0.9,0.9-0.9h14.3c0.5,0,0.9,0.4,0.9,0.9
				s-0.4,0.9-0.9,0.9h-13.4v27.6h13.4c0.5,0,0.9,0.4,0.9,0.9C137.1,56.1,136.7,56.5,136.2,56.5z"/>
		</g>
	</g>
	<g>
		<g>
			<path class="st2" d="M71.7,41.8"/>
		</g>
	</g>
	<g>
		<g>
			<g>
				<g>
					<g>
						<path class="st1" d="M7.3,140.7l-0.7-0.1l0.5-0.6c0.2-0.3,0.3-0.6,0.3-0.9v-1.6c0-0.8-0.7-1.5-1.5-1.5H4.1
							c-0.8,0-1.5,0.7-1.5,1.5v1.6c0,0.3,0.1,0.7,0.3,0.9l0.5,0.6l-0.7,0.1C1.1,141,0,142.3,0,143.9v0.8c0,0.1,0.1,0.2,0.2,0.2h9.7
							c0.1,0,0.2-0.1,0.2-0.2v-0.8C10,142.3,8.9,141,7.3,140.7z"/>
					</g>
				</g>
				<g>
					<g>
						<path class="st1" d="M19.8,140.7l-0.7-0.1l0.5-0.6c0.2-0.3,0.3-0.6,0.3-0.9v-1.6c0-0.8-0.7-1.5-1.5-1.5h-1.8
							c-0.8,0-1.5,0.7-1.5,1.5v1.6c0,0.3,0.1,0.7,0.3,0.9l0.5,0.6l-0.7,0.1c-1.5,0.3-2.7,1.6-2.7,3.2v0.8c0,0.1,0.1,0.2,0.2,0.2h9.7
							c0.1,0,0.2-0.1,0.2-0.2v-0.8C22.4,142.3,21.3,141,19.8,140.7z"/>
					</g>
				</g>
				<g>
					<g>
						<path class="st1" d="M32.2,140.7l-0.7-0.1l0.5-0.6c0.2-0.3,0.3-0.6,0.3-0.9v-1.6c0-0.8-0.7-1.5-1.5-1.5h-1.8
							c-0.8,0-1.5,0.7-1.5,1.5v1.6c0,0.3,0.1,0.7,0.3,0.9l0.5,0.6l-0.7,0.1c-1.5,0.3-2.7,1.6-2.7,3.2v0.8c0,0.1,0.1,0.2,0.2,0.2h9.7
							c0.1,0,0.2-0.1,0.2-0.2v-0.8C34.9,142.3,33.7,141,32.2,140.7z"/>
					</g>
				</g>
				<g>
					<g>
						<path class="st1" d="M44.6,140.7l-0.7-0.1l0.5-0.6c0.2-0.3,0.3-0.6,0.3-0.9v-1.6c0-0.8-0.7-1.5-1.5-1.5h-1.8
							c-0.8,0-1.5,0.7-1.5,1.5v1.6c0,0.3,0.1,0.7,0.3,0.9l0.5,0.6l-0.7,0.1c-1.5,0.3-2.7,1.6-2.7,3.2v0.8c0,0.1,0.1,0.2,0.2,0.2h9.7
							c0.1,0,0.2-0.1,0.2-0.2v-0.8C47.3,142.3,46.2,141,44.6,140.7z"/>
					</g>
				</g>
			</g>
			<g>
				<g>
					<g>
						<path class="st1" d="M7.3,128.6l-0.7-0.1l0.5-0.6c0.2-0.3,0.3-0.6,0.3-0.9v-1.6c0-0.8-0.7-1.5-1.5-1.5H4.1
							c-0.8,0-1.5,0.7-1.5,1.5v1.6c0,0.3,0.1,0.7,0.3,0.9l0.5,0.6l-0.7,0.1c-1.5,0.3-2.7,1.6-2.7,3.2v0.8c0,0.1,0.1,0.2,0.2,0.2h9.7
							c0.1,0,0.2-0.1,0.2-0.2v-0.8C10,130.2,8.9,128.9,7.3,128.6z"/>
					</g>
				</g>
				<g>
					<g>
						<path class="st1" d="M19.8,128.6l-0.7-0.1l0.5-0.6c0.2-0.3,0.3-0.6,0.3-0.9v-1.6c0-0.8-0.7-1.5-1.5-1.5h-1.8
							c-0.8,0-1.5,0.7-1.5,1.5v1.6c0,0.3,0.1,0.7,0.3,0.9l0.5,0.6l-0.7,0.1c-1.5,0.3-2.7,1.6-2.7,3.2v0.8c0,0.1,0.1,0.2,0.2,0.2h9.7
							c0.1,0,0.2-0.1,0.2-0.2v-0.8C22.4,130.2,21.3,128.9,19.8,128.6z"/>
					</g>
				</g>
				<g>
					<g>
						<path class="st1" d="M32.2,128.6l-0.7-0.1l0.5-0.6c0.2-0.3,0.3-0.6,0.3-0.9v-1.6c0-0.8-0.7-1.5-1.5-1.5h-1.8
							c-0.8,0-1.5,0.7-1.5,1.5v1.6c0,0.3,0.1,0.7,0.3,0.9l0.5,0.6l-0.7,0.1c-1.5,0.3-2.7,1.6-2.7,3.2v0.8c0,0.1,0.1,0.2,0.2,0.2h9.7
							c0.1,0,0.2-0.1,0.2-0.2v-0.8C34.9,130.2,33.7,128.9,32.2,128.6z"/>
					</g>
				</g>
			</g>
			<g>
				<g>
					<g>
						<path class="st1" d="M7.3,116.5l-0.7-0.1l0.5-0.6c0.2-0.3,0.3-0.6,0.3-0.9v-1.6c0-0.8-0.7-1.5-1.5-1.5H4.1
							c-0.8,0-1.5,0.7-1.5,1.5v1.6c0,0.3,0.1,0.7,0.3,0.9l0.5,0.6l-0.7,0.1c-1.5,0.3-2.7,1.6-2.7,3.2v0.8c0,0.1,0.1,0.2,0.2,0.2h9.7
							c0.1,0,0.2-0.1,0.2-0.2v-0.8C10,118.2,8.9,116.8,7.3,116.5z"/>
					</g>
				</g>
				<g>
					<g>
						<path class="st1" d="M19.8,116.5l-0.7-0.1l0.5-0.6c0.2-0.3,0.3-0.6,0.3-0.9v-1.6c0-0.8-0.7-1.5-1.5-1.5h-1.8
							c-0.8,0-1.5,0.7-1.5,1.5v1.6c0,0.3,0.1,0.7,0.3,0.9l0.5,0.6l-0.7,0.1c-1.5,0.3-2.7,1.6-2.7,3.2v0.8c0,0.1,0.1,0.2,0.2,0.2h9.7
							c0.1,0,0.2-0.1,0.2-0.2v-0.8C22.4,118.2,21.3,116.8,19.8,116.5z"/>
					</g>
				</g>
				<g>
					<g>
						<path class="st1" d="M32.2,116.5l-0.7-0.1l0.5-0.6c0.2-0.3,0.3-0.6,0.3-0.9v-1.6c0-0.8-0.7-1.5-1.5-1.5h-1.8
							c-0.8,0-1.5,0.7-1.5,1.5v1.6c0,0.3,0.1,0.7,0.3,0.9l0.5,0.6l-0.7,0.1c-1.5,0.3-2.7,1.6-2.7,3.2v0.8c0,0.1,0.1,0.2,0.2,0.2h9.7
							c0.1,0,0.2-0.1,0.2-0.2v-0.8C34.9,118.2,33.7,116.8,32.2,116.5z"/>
					</g>
				</g>
			</g>
		</g>
		<g>
			<g>
				<g>
					<g>
						<path class="st1" d="M133.2,140.7l0.7-0.1l-0.5-0.6c-0.2-0.3-0.3-0.6-0.3-0.9v-1.6c0-0.8,0.7-1.5,1.5-1.5h1.8
							c0.8,0,1.5,0.7,1.5,1.5v1.6c0,0.3-0.1,0.7-0.3,0.9l-0.5,0.6l0.7,0.1c1.5,0.3,2.7,1.6,2.7,3.2v0.8c0,0.1-0.1,0.2-0.2,0.2h-9.7
							c-0.1,0-0.2-0.1-0.2-0.2v-0.8C130.5,142.3,131.6,141,133.2,140.7z"/>
					</g>
				</g>
				<g>
					<g>
						<path class="st1" d="M120.7,140.7l0.7-0.1L121,140c-0.2-0.3-0.3-0.6-0.3-0.9v-1.6c0-0.8,0.7-1.5,1.5-1.5h1.8
							c0.8,0,1.5,0.7,1.5,1.5v1.6c0,0.3-0.1,0.7-0.3,0.9l-0.5,0.6l0.7,0.1c1.5,0.3,2.7,1.6,2.7,3.2v0.8c0,0.1-0.1,0.2-0.2,0.2h-9.7
							c-0.1,0-0.2-0.1-0.2-0.2v-0.8C118.1,142.3,119.2,141,120.7,140.7z"/>
					</g>
				</g>
				<g>
					<g>
						<path class="st1" d="M108.3,140.7l0.7-0.1l-0.5-0.6c-0.2-0.3-0.3-0.6-0.3-0.9v-1.6c0-0.8,0.7-1.5,1.5-1.5h1.8
							c0.8,0,1.5,0.7,1.5,1.5v1.6c0,0.3-0.1,0.7-0.3,0.9l-0.5,0.6l0.7,0.1c1.5,0.3,2.7,1.6,2.7,3.2v0.8c0,0.1-0.1,0.2-0.2,0.2h-9.7
							c-0.1,0-0.2-0.1-0.2-0.2v-0.8C105.7,142.3,106.8,141,108.3,140.7z"/>
					</g>
				</g>
				<g>
					<g>
						<path class="st1" d="M95.9,140.7l0.7-0.1l-0.5-0.6c-0.2-0.3-0.3-0.6-0.3-0.9v-1.6c0-0.8,0.7-1.5,1.5-1.5h1.8
							c0.8,0,1.5,0.7,1.5,1.5v1.6c0,0.3-0.1,0.7-0.3,0.9l-0.5,0.6l0.7,0.1c1.5,0.3,2.7,1.6,2.7,3.2v0.8c0,0.1-0.1,0.2-0.2,0.2h-9.7
							c-0.1,0-0.2-0.1-0.2-0.2v-0.8C93.2,142.3,94.3,141,95.9,140.7z"/>
					</g>
				</g>
			</g>
			<g>
				<g>
					<g>
						<path class="st1" d="M133.2,128.6l0.7-0.1l-0.5-0.6c-0.2-0.3-0.3-0.6-0.3-0.9v-1.6c0-0.8,0.7-1.5,1.5-1.5h1.8
							c0.8,0,1.5,0.7,1.5,1.5v1.6c0,0.3-0.1,0.7-0.3,0.9l-0.5,0.6l0.7,0.1c1.5,0.3,2.7,1.6,2.7,3.2v0.8c0,0.1-0.1,0.2-0.2,0.2h-9.7
							c-0.1,0-0.2-0.1-0.2-0.2v-0.8C130.5,130.2,131.6,128.9,133.2,128.6z"/>
					</g>
				</g>
				<g>
					<g>
						<path class="st1" d="M120.7,128.6l0.7-0.1l-0.5-0.6c-0.2-0.3-0.3-0.6-0.3-0.9v-1.6c0-0.8,0.7-1.5,1.5-1.5h1.8
							c0.8,0,1.5,0.7,1.5,1.5v1.6c0,0.3-0.1,0.7-0.3,0.9l-0.5,0.6l0.7,0.1c1.5,0.3,2.7,1.6,2.7,3.2v0.8c0,0.1-0.1,0.2-0.2,0.2h-9.7
							c-0.1,0-0.2-0.1-0.2-0.2v-0.8C118.1,130.2,119.2,128.9,120.7,128.6z"/>
					</g>
				</g>
				<g>
					<g>
						<path class="st1" d="M108.3,128.6l0.7-0.1l-0.5-0.6c-0.2-0.3-0.3-0.6-0.3-0.9v-1.6c0-0.8,0.7-1.5,1.5-1.5h1.8
							c0.8,0,1.5,0.7,1.5,1.5v1.6c0,0.3-0.1,0.7-0.3,0.9l-0.5,0.6l0.7,0.1c1.5,0.3,2.7,1.6,2.7,3.2v0.8c0,0.1-0.1,0.2-0.2,0.2h-9.7
							c-0.1,0-0.2-0.1-0.2-0.2v-0.8C105.7,130.2,106.8,128.9,108.3,128.6z"/>
					</g>
				</g>
			</g>
			<g>
				<g>
					<g>
						<path class="st1" d="M133.2,116.5l0.7-0.1l-0.5-0.6c-0.2-0.3-0.3-0.6-0.3-0.9v-1.6c0-0.8,0.7-1.5,1.5-1.5h1.8
							c0.8,0,1.5,0.7,1.5,1.5v1.6c0,0.3-0.1,0.7-0.3,0.9l-0.5,0.6l0.7,0.1c1.5,0.3,2.7,1.6,2.7,3.2v0.8c0,0.1-0.1,0.2-0.2,0.2h-9.7
							c-0.1,0-0.2-0.1-0.2-0.2v-0.8C130.5,118.2,131.6,116.8,133.2,116.5z"/>
					</g>
				</g>
				<g>
					<g>
						<path class="st1" d="M120.7,116.5l0.7-0.1l-0.5-0.6c-0.2-0.3-0.3-0.6-0.3-0.9v-1.6c0-0.8,0.7-1.5,1.5-1.5h1.8
							c0.8,0,1.5,0.7,1.5,1.5v1.6c0,0.3-0.1,0.7-0.3,0.9l-0.5,0.6l0.7,0.1c1.5,0.3,2.7,1.6,2.7,3.2v0.8c0,0.1-0.1,0.2-0.2,0.2h-9.7
							c-0.1,0-0.2-0.1-0.2-0.2v-0.8C118.1,118.2,119.2,116.8,120.7,116.5z"/>
					</g>
				</g>
				<g>
					<g>
						<path class="st1" d="M108.3,116.5l0.7-0.1l-0.5-0.6c-0.2-0.3-0.3-0.6-0.3-0.9v-1.6c0-0.8,0.7-1.5,1.5-1.5h1.8
							c0.8,0,1.5,0.7,1.5,1.5v1.6c0,0.3-0.1,0.7-0.3,0.9l-0.5,0.6l0.7,0.1c1.5,0.3,2.7,1.6,2.7,3.2v0.8c0,0.1-0.1,0.2-0.2,0.2h-9.7
							c-0.1,0-0.2-0.1-0.2-0.2v-0.8C105.7,118.2,106.8,116.8,108.3,116.5z"/>
					</g>
				</g>
			</g>
		</g>
	</g>
</g>
</svg>
