<?xml version="1.0" encoding="utf-8"?>
<!-- Generator: Adobe Illustrator 23.0.3, SVG Export Plug-In . SVG Version: 6.00 Build 0)  -->
<svg version="1.1" id="Layer_1" xmlns="http://www.w3.org/2000/svg" xmlns:xlink="http://www.w3.org/1999/xlink" x="0px" y="0px"
	 viewBox="0 0 147.5 148" style="enable-background:new 0 0 147.5 148;" xml:space="preserve">
<style type="text/css">
	.st0{fill:#CEDEF8;}
	.st1{fill:#E6EEFB;}
	.st2{fill:#E9F6FF;}
	.st3{fill:#DEF4FC;}
	.st4{fill:#AFD8F9;}
	.st5{fill:#2481D7;}
	.st6{fill:#0C5ADB;}
	.st7{fill:#6AB0E5;}
	.st8{fill:#FFFFFF;}
	.st9{fill:none;stroke:#2481D7;stroke-width:6;stroke-linecap:round;stroke-linejoin:round;stroke-miterlimit:10;}
</style>
<g>
	<g>
		<g>
			<g>
				<g>
					<g>
						<g>
							<g>
								<rect x="87.9" y="45.3" class="st0" width="8.4" height="1.2"/>
							</g>
						</g>
					</g>
					<g>
						<g>
							<g>
								<rect x="82.4" y="45.3" class="st0" width="0.9" height="1.2"/>
							</g>
						</g>
					</g>
					<g>
						<g>
							<g>
								<rect x="78" y="45.3" class="st0" width="0.9" height="1.2"/>
							</g>
						</g>
					</g>
					<g>
						<g>
							<g>
								<rect x="73.5" y="45.3" class="st0" width="0.9" height="1.2"/>
							</g>
						</g>
					</g>
				</g>
				<g>
					<g>
						<g>
							<g>
								<rect x="4.6" y="45.3" class="st0" width="8.4" height="1.2"/>
							</g>
						</g>
					</g>
					<g>
						<g>
							<g>
								<rect x="17.6" y="45.3" class="st0" width="0.9" height="1.2"/>
							</g>
						</g>
					</g>
					<g>
						<g>
							<g>
								<rect x="22" y="45.3" class="st0" width="0.9" height="1.2"/>
							</g>
						</g>
					</g>
					<g>
						<g>
							<g>
								<rect x="26.5" y="45.3" class="st0" width="0.9" height="1.2"/>
							</g>
						</g>
					</g>
				</g>
			</g>
			<g>
				<g>
					<g>
						<g>
							<g>
								
									<rect x="72.8" y="68.3" transform="matrix(0.7079 -0.7063 0.7063 0.7079 -27.1576 71.9276)" class="st0" width="1.2" height="0.9"/>
							</g>
						</g>
					</g>
					<g>
						<g>
							<g>
								
									<rect x="69.6" y="65.2" transform="matrix(0.7071 -0.7071 0.7071 0.7071 -25.8507 68.8921)" class="st0" width="1.2" height="0.9"/>
							</g>
						</g>
					</g>
					<g>
						<g>
							<g>
								
									<rect x="66.5" y="62" transform="matrix(0.7073 -0.707 0.707 0.7073 -24.5476 65.724)" class="st0" width="1.2" height="0.9"/>
							</g>
						</g>
					</g>
				</g>
				<g>
					<g>
						<g>
							<g>
								
									<rect x="20.4" y="12.2" transform="matrix(0.7071 -0.7071 0.7071 0.7071 -5.4535 19.6495)" class="st0" width="1.2" height="8.4"/>
							</g>
						</g>
					</g>
					<g>
						<g>
							<g>
								
									<rect x="26.9" y="22.5" transform="matrix(0.7074 -0.7068 0.7068 0.7074 -8.1618 26.1689)" class="st0" width="1.2" height="0.9"/>
							</g>
						</g>
					</g>
					<g>
						<g>
							<g>
								
									<rect x="30.1" y="25.6" transform="matrix(0.7065 -0.7077 0.7077 0.7065 -9.4612 29.3678)" class="st0" width="1.2" height="0.9"/>
							</g>
						</g>
					</g>
					<g>
						<g>
							<g>
								
									<rect x="33.2" y="28.8" transform="matrix(0.7074 -0.7068 0.7068 0.7074 -10.7694 32.4589)" class="st0" width="1.2" height="0.9"/>
							</g>
						</g>
					</g>
				</g>
			</g>
			<g>
				<g>
					<g>
						<g>
							<g>
								<rect x="49.9" y="83.3" class="st0" width="1.2" height="8.4"/>
							</g>
						</g>
					</g>
					<g>
						<g>
							<g>
								<rect x="49.9" y="77.8" class="st0" width="1.2" height="0.9"/>
							</g>
						</g>
					</g>
					<g>
						<g>
							<g>
								<rect x="49.9" y="73.4" class="st0" width="1.2" height="0.9"/>
							</g>
						</g>
					</g>
					<g>
						<g>
							<g>
								<rect x="49.9" y="68.9" class="st0" width="1.2" height="0.9"/>
							</g>
						</g>
					</g>
				</g>
				<g>
					<g>
						<g>
							<g>
								<rect x="49.9" y="0" class="st0" width="1.2" height="8.4"/>
							</g>
						</g>
					</g>
					<g>
						<g>
							<g>
								<rect x="49.9" y="13" class="st0" width="1.2" height="0.9"/>
							</g>
						</g>
					</g>
					<g>
						<g>
							<g>
								<rect x="49.9" y="17.4" class="st0" width="1.2" height="0.9"/>
							</g>
						</g>
					</g>
					<g>
						<g>
							<g>
								
									<rect x="50" y="21.8" transform="matrix(1.464842e-03 -1 1 1.464842e-03 28.0326 72.77)" class="st0" width="0.9" height="1.2"/>
							</g>
						</g>
					</g>
				</g>
			</g>
			<g>
				<g>
					<g>
						<g>
							<g>
								
									<rect x="16.8" y="74.7" transform="matrix(0.7071 -0.7071 0.7071 0.7071 -47.1202 36.9084)" class="st0" width="8.4" height="1.2"/>
							</g>
						</g>
					</g>
					<g>
						<g>
							<g>
								
									<rect x="27.1" y="68.2" transform="matrix(0.7065 -0.7077 0.7077 0.7065 -40.6097 39.674)" class="st0" width="0.9" height="1.2"/>
							</g>
						</g>
					</g>
					<g>
						<g>
							<g>
								
									<rect x="30.2" y="65.1" transform="matrix(0.7069 -0.7074 0.7074 0.7069 -37.446 40.9426)" class="st0" width="0.9" height="1.2"/>
							</g>
						</g>
					</g>
					<g>
						<g>
							<g>
								
									<rect x="33.4" y="61.9" transform="matrix(0.7076 -0.7066 0.7066 0.7076 -34.276 42.1752)" class="st0" width="0.9" height="1.2"/>
							</g>
						</g>
					</g>
				</g>
				<g>
					<g>
						<g>
							<g>
								
									<rect x="75.7" y="15.8" transform="matrix(0.707 -0.7072 0.7072 0.707 11.8133 61.3273)" class="st0" width="8.4" height="1.2"/>
							</g>
						</g>
					</g>
					<g>
						<g>
							<g>
								
									<rect x="72.9" y="22.3" transform="matrix(0.706 -0.7082 0.7082 0.706 5.3261 58.7139)" class="st0" width="0.9" height="1.2"/>
							</g>
						</g>
					</g>
					<g>
						<g>
							<g>
								
									<rect x="69.8" y="25.5" transform="matrix(0.7084 -0.7058 0.7058 0.7084 2.0635 57.1756)" class="st0" width="0.9" height="1.2"/>
							</g>
						</g>
					</g>
					<g>
						<g>
							<g>
								
									<rect x="66.6" y="28.6" transform="matrix(0.708 -0.7063 0.7063 0.708 -1.0569 55.9189)" class="st0" width="0.9" height="1.2"/>
							</g>
						</g>
					</g>
				</g>
			</g>
			<g>
				<g>
					<g>
						<g>
							<path class="st0" d="M50.5,88.5C27,88.5,7.9,69.4,7.9,45.9H9c0,22.8,18.6,41.4,41.4,41.4V88.5z"/>
						</g>
					</g>
				</g>
				<g>
					<g>
						<g>
							<path class="st0" d="M93.1,45.9h-1.2C91.9,23,73.3,4.5,50.5,4.5V3.3C73.9,3.3,93.1,22.4,93.1,45.9z"/>
						</g>
					</g>
				</g>
			</g>
			<g>
				<g>
					<g>
						<g>
							<path class="st0" d="M32,45.9h-1.2c0-10.8,8.8-19.6,19.6-19.6v1.2C40.3,27.5,32,35.7,32,45.9z"/>
						</g>
					</g>
				</g>
				<g>
					<g>
						<g>
							<path class="st0" d="M50.5,65.5v-1.2c10.2,0,18.4-8.3,18.4-18.4h1.2C70.1,56.7,61.3,65.5,50.5,65.5z"/>
						</g>
					</g>
				</g>
			</g>
		</g>
		<g>
			<g>
				<g>
					<g>
						<g>
							<path class="st0" d="M34.3,11.2c0,0-0.1,0-0.1,0c-0.1-0.1-0.2-0.2-0.2-0.3V7.7c0-0.1,0-0.2,0.1-0.2l4-4
								c0.1-0.1,0.3-0.1,0.5,0l4,4c0.1,0.1,0.1,0.2,0.1,0.2v3.2c0,0.1-0.1,0.3-0.2,0.3c-0.1,0.1-0.3,0-0.4-0.1l-3.8-3.8l-3.8,3.8
								C34.4,11.2,34.3,11.2,34.3,11.2z"/>
						</g>
					</g>
				</g>
			</g>
			<g>
				<g>
					<g>
						<g>
							<path class="st0" d="M42.3,16.9c-0.1,0-0.2,0-0.2-0.1L38.3,13l-3.8,3.8c-0.1,0.1-0.2,0.1-0.4,0.1c-0.1-0.1-0.2-0.2-0.2-0.3
								v-3.2c0-0.1,0-0.2,0.1-0.2l4-4c0.1-0.1,0.3-0.1,0.5,0l4,4c0.1,0.1,0.1,0.2,0.1,0.2v3.2c0,0.1-0.1,0.3-0.2,0.3
								C42.4,16.9,42.4,16.9,42.3,16.9z"/>
						</g>
					</g>
				</g>
			</g>
			<g>
				<g>
					<g>
						<g>
							<g>
								<path class="st0" d="M42.3,21.2c-0.1,0-0.2,0-0.2-0.1l-3.8-3.8l-3.8,3.8c-0.1,0.1-0.4,0.1-0.5,0c-0.1-0.1-0.1-0.3,0-0.5l4-4
									c0.1-0.1,0.1-0.1,0.2-0.1l0,0c0.1,0,0.2,0,0.2,0.1l4,4c0.1,0.1,0.1,0.3,0,0.5C42.5,21.2,42.4,21.2,42.3,21.2z"/>
							</g>
						</g>
					</g>
				</g>
			</g>
			<g>
				<g>
					<g>
						<g>
							<g>
								<path class="st0" d="M42.3,25.2c-0.1,0-0.2,0-0.2-0.1l-3.8-3.8l-3.8,3.8c-0.1,0.1-0.4,0.1-0.5,0c-0.1-0.1-0.1-0.3,0-0.5l4-4
									c0.1-0.1,0.1-0.1,0.2-0.1l0,0c0.1,0,0.2,0,0.2,0.1l4,4c0.1,0.1,0.1,0.3,0,0.5C42.5,25.1,42.4,25.2,42.3,25.2z"/>
							</g>
						</g>
					</g>
				</g>
			</g>
		</g>
		<g>
			<g>
				<g>
					<g>
						<g>
							<path class="st0" d="M4.2,113.2c0,0-0.1,0-0.1,0c-0.1-0.1-0.2-0.2-0.2-0.3v-3.2c0-0.1,0-0.2,0.1-0.2l4-4
								c0.1-0.1,0.3-0.1,0.5,0l4,4c0.1,0.1,0.1,0.2,0.1,0.2v3.2c0,0.1-0.1,0.3-0.2,0.3c-0.1,0.1-0.3,0-0.4-0.1l-3.8-3.8l-3.8,3.8
								C4.3,113.1,4.3,113.2,4.2,113.2z"/>
						</g>
					</g>
				</g>
			</g>
			<g>
				<g>
					<g>
						<g>
							<path class="st0" d="M12.2,118.8c-0.1,0-0.2,0-0.2-0.1l-3.8-3.8l-3.8,3.8c-0.1,0.1-0.2,0.1-0.4,0.1c-0.1-0.1-0.2-0.2-0.2-0.3
								v-3.2c0-0.1,0-0.2,0.1-0.2l4-4c0.1-0.1,0.3-0.1,0.5,0l4,4c0.1,0.1,0.1,0.2,0.1,0.2v3.2c0,0.1-0.1,0.3-0.2,0.3
								C12.3,118.8,12.3,118.8,12.2,118.8z"/>
						</g>
					</g>
				</g>
			</g>
			<g>
				<g>
					<g>
						<g>
							<g>
								<path class="st0" d="M12.2,121.6c-0.1,0-0.2,0-0.2-0.1l-3.8-3.8l-3.8,3.8c-0.1,0.1-0.3,0.1-0.5,0c-0.1-0.1-0.1-0.3,0-0.5
									l4-4c0.1-0.1,0.1-0.1,0.2-0.1l0,0c0.1,0,0.2,0,0.2,0.1l4,4c0.1,0.1,0.1,0.3,0,0.5C12.4,121.6,12.3,121.6,12.2,121.6z"/>
							</g>
						</g>
					</g>
				</g>
			</g>
		</g>
		<g>
			<g>
				<g>
					<rect x="137" y="29.6" class="st0" width="1.2" height="20.8"/>
				</g>
			</g>
		</g>
		<g>
			<g>
				<g>
					<rect x="124.2" y="52.3" class="st0" width="17.2" height="1.2"/>
				</g>
			</g>
		</g>
		<g>
			<g>
				<g>
					<rect x="124.2" y="55.7" class="st0" width="17.2" height="1.2"/>
				</g>
			</g>
		</g>
		<g>
			<g>
				<g>
					<g>
						<polygon class="st0" points="141.8,7.2 140.9,6.3 143.7,3.6 146.4,6.3 145.5,7.2 143.7,5.3 						"/>
					</g>
				</g>
			</g>
			<g>
				<g>
					<g>
						<rect x="143.1" y="4.4" class="st0" width="1.2" height="5.2"/>
					</g>
				</g>
			</g>
			<g>
				<g>
					<g>
						<rect x="143.1" y="11" class="st0" width="1.2" height="1.3"/>
					</g>
				</g>
			</g>
			<g>
				<g>
					<g>
						<rect x="143.1" y="13" class="st0" width="1.2" height="1.3"/>
					</g>
				</g>
			</g>
			<g>
				<g>
					<g>
						<rect x="143.1" y="15" class="st0" width="1.2" height="1.3"/>
					</g>
				</g>
			</g>
			<g>
				<g>
					<g>
						<rect x="143.1" y="17.3" class="st0" width="1.2" height="39.8"/>
					</g>
				</g>
			</g>
		</g>
		<g>
			<g>
				<g>
					<g>
						<polygon class="st0" points="6.3,78.5 5.5,77.7 8.2,74.9 10.9,77.7 10.1,78.5 8.2,76.6 						"/>
					</g>
				</g>
			</g>
			<g>
				<g>
					<g>
						<rect x="7.6" y="75.8" class="st0" width="1.2" height="5.2"/>
					</g>
				</g>
			</g>
			<g>
				<g>
					<g>
						<rect x="7.6" y="82.3" class="st0" width="1.2" height="1.3"/>
					</g>
				</g>
			</g>
			<g>
				<g>
					<g>
						<rect x="7.6" y="84.3" class="st0" width="1.2" height="1.3"/>
					</g>
				</g>
			</g>
			<g>
				<g>
					<g>
						<rect x="7.6" y="86.4" class="st0" width="1.2" height="1.3"/>
					</g>
				</g>
			</g>
			<g>
				<g>
					<g>
						<rect x="7.6" y="88.7" class="st0" width="1.2" height="13.1"/>
					</g>
				</g>
			</g>
		</g>
		<g>
			<g>
				<g>
					<g>
						<g>
							
								<rect x="67" y="141.6" transform="matrix(0.7071 -0.7071 0.7071 0.7071 -79.217 93.2412)" class="st0" width="11.8" height="1.2"/>
						</g>
					</g>
				</g>
				<g>
					<g>
						<g>
							
								<rect x="73.4" y="141.6" transform="matrix(0.7071 -0.7071 0.7071 0.7071 -77.345 97.7606)" class="st0" width="11.8" height="1.2"/>
						</g>
					</g>
				</g>
				<g>
					<g>
						<g>
							
								<rect x="79.8" y="141.6" transform="matrix(0.7071 -0.7071 0.7071 0.7071 -75.4729 102.2801)" class="st0" width="11.8" height="1.2"/>
						</g>
					</g>
				</g>
				<g>
					<g>
						<g>
							
								<rect x="86.2" y="141.6" transform="matrix(0.7071 -0.7071 0.7071 0.7071 -73.601 106.7994)" class="st0" width="11.8" height="1.2"/>
						</g>
					</g>
				</g>
				<g>
					<g>
						<g>
							
								<rect x="92.6" y="141.6" transform="matrix(0.7071 -0.7071 0.7071 0.7071 -71.7291 111.3186)" class="st0" width="11.8" height="1.2"/>
						</g>
					</g>
				</g>
				<g>
					<g>
						<g>
							
								<rect x="99" y="141.6" transform="matrix(0.7071 -0.7071 0.7071 0.7071 -69.8571 115.838)" class="st0" width="11.8" height="1.2"/>
						</g>
					</g>
				</g>
				<g>
					<g>
						<g>
							
								<rect x="105.4" y="141.6" transform="matrix(0.7071 -0.7071 0.7071 0.7071 -67.985 120.3575)" class="st0" width="11.8" height="1.2"/>
						</g>
					</g>
				</g>
				<g>
					<g>
						<g>
							
								<rect x="111.8" y="141.6" transform="matrix(0.7071 -0.7071 0.7071 0.7071 -66.1131 124.8767)" class="st0" width="11.8" height="1.2"/>
						</g>
					</g>
				</g>
				<g>
					<g>
						<g>
							
								<rect x="118.2" y="141.6" transform="matrix(0.7071 -0.7071 0.7071 0.7071 -64.2412 129.3959)" class="st0" width="11.8" height="1.2"/>
						</g>
					</g>
				</g>
				<g>
					<g>
						<g>
							
								<rect x="124.5" y="141.6" transform="matrix(0.7071 -0.7071 0.7071 0.7071 -62.3692 133.9153)" class="st0" width="11.8" height="1.2"/>
						</g>
					</g>
				</g>
				<g>
					<g>
						<g>
							
								<rect x="130.9" y="141.6" transform="matrix(0.7071 -0.7071 0.7071 0.7071 -60.4972 138.4347)" class="st0" width="11.8" height="1.2"/>
						</g>
					</g>
				</g>
			</g>
			<g>
				<g>
					<g>
						<polygon class="st0" points="69.4,140.7 68.2,140.7 68.2,137.5 71.4,137.5 71.4,138.7 69.4,138.7 						"/>
					</g>
				</g>
			</g>
			<g>
				<g>
					<g>
						<polygon class="st0" points="141.6,147 138.4,147 138.4,145.8 140.4,145.8 140.4,143.8 141.6,143.8 						"/>
					</g>
				</g>
			</g>
		</g>
	</g>
	<g>
		<g>
			<g>
				<path class="st1" d="M128.3,10.1H85.9c-4.6,0-8.3,3.7-8.3,8.3v38h28.7c-4.6,0-8.3,3.7-8.3,8.3v1.6v-1.5v1.6
					c0,4.6,3.7,8.3,8.3,8.3h5.4c4.6,0,8.3-3.7,8.3-8.3V29.1h0V18.3C120.1,13.8,123.8,10.1,128.3,10.1z"/>
			</g>
		</g>
	</g>
	<g>
		<g>
			<g>
				<path class="st2" d="M120.1,29.1v-5.8v-5c0-1.2,0.2-2.3,0.7-3.3H85.9c-4.6,0-8.3,3.7-8.3,8.3v33h28.7c-3.4,0-6.3,2-7.6,5
					l-0.5,6.6c0.8,3.8,4.1,6.6,8.1,6.6h5.4c4.6,0,8.3-3.7,8.3-8.3V34.1h0V29.1z"/>
			</g>
		</g>
	</g>
	<g>
		<g>
			<g>
				<path class="st3" d="M119.9,56.3h-13.5c-4.6,0-8.3,3.7-8.3,8.3v0v1.5v0c0,4.6,3.7,8.3,8.3,8.3h5.4c4.1,0,7.5-3,8.2-7V56.3z"/>
			</g>
		</g>
	</g>
	<g>
		<g>
			<g>
				<path class="st4" d="M118.7,70.7l-12.3-14.4c-4.6,0-8.3,3.7-8.3,8.3v0v1.5v0c0,4.6,3.7,8.3,8.3,8.3h5.4
					C114.7,74.5,117.2,73,118.7,70.7z"/>
			</g>
		</g>
	</g>
	<g>
		<g>
			<g>
				<path class="st3" d="M98.2,66.2v-1.6V66.2v-1.6c0-4.6,3.7-8.3,8.3-8.3h-38c-4.6,0-8.3,3.7-8.3,8.3v1.6v-1.5v1.6
					c0,4.6,3.7,8.3,8.3,8.3h38C101.9,74.5,98.2,70.8,98.2,66.2z"/>
			</g>
		</g>
	</g>
	<g>
		<g>
			<g>
				<path class="st2" d="M77.7,65.2v-8.9h-9.3c-4.6,0-8.3,3.7-8.3,8.3v0v1.5v0c0,4.3,3.2,7.8,7.4,8.2c0.3,0,0.6,0,0.9,0
					C73.5,74.5,77.7,70.3,77.7,65.2z"/>
			</g>
		</g>
	</g>
	<g>
		<g>
			<g>
				<path class="st5" d="M106.4,75.7h-38c-5.2,0-9.5-4.2-9.5-9.5v-1.6c0-5.2,4.2-9.5,9.5-9.5h38c0.7,0,1.2,0.5,1.2,1.2
					s-0.5,1.2-1.2,1.2c-3.9,0-7.1,3.2-7.1,7.1v1.6c0,3.9,3.2,7.1,7.1,7.1c0.7,0,1.2,0.5,1.2,1.2S107.1,75.7,106.4,75.7z M61.3,66.2
					L61.3,66.2c0,3.9,3.2,7.1,7.1,7.1h31.8c-2-1.7-3.2-4.3-3.2-7.1v-1.6c0-2.8,1.2-5.3,3.2-7.1H68.4c-3.9,0-7.1,3.2-7.1,7.1V66.2z"
					/>
			</g>
		</g>
	</g>
	<g>
		<g>
			<g>
				<path class="st6" d="M111.8,75.7h-5.4c-5.2,0-9.5-4.2-9.5-9.5v-1.6c0-2.8,1.2-5.3,3.2-7.1H77.7c-0.7,0-1.2-0.5-1.2-1.2v-38
					c0-5.2,4.2-9.5,9.5-9.5h42.4c0.7,0,1.2,0.5,1.2,1.2s-0.5,1.2-1.2,1.2c-3.9,0-7.1,3.2-7.1,7.1v10.6c0,0.1,0,0.1,0,0.2v37.1
					C121.3,71.4,117,75.7,111.8,75.7z M99.3,66.2L99.3,66.2c0,3.9,3.2,7.1,7.1,7.1h5.4c3.9,0,7.1-3.2,7.1-7.1V29.3
					c0-0.1,0-0.1,0-0.2V18.3c0-2.8,1.2-5.3,3.2-7.1H85.9c-3.9,0-7.1,3.2-7.1,7.1v36.8h27.6c0.7,0,1.2,0.5,1.2,1.2s-0.5,1.2-1.2,1.2
					c-3.9,0-7.1,3.2-7.1,7.1V66.2z"/>
			</g>
		</g>
	</g>
	<g>
		<g>
			<g>
				<g>
					<path class="st6" d="M113.2,22.3H84.5c-0.3,0-0.6-0.3-0.6-0.6s0.3-0.6,0.6-0.6h28.7c0.3,0,0.6,0.3,0.6,0.6
						S113.5,22.3,113.2,22.3z"/>
				</g>
			</g>
		</g>
		<g>
			<g>
				<g>
					<path class="st6" d="M113.2,29.3H84.5c-0.3,0-0.6-0.3-0.6-0.6s0.3-0.6,0.6-0.6h28.7c0.3,0,0.6,0.3,0.6,0.6
						S113.5,29.3,113.2,29.3z"/>
				</g>
			</g>
		</g>
		<g>
			<g>
				<g>
					<path class="st6" d="M113.2,36.3H84.5c-0.3,0-0.6-0.3-0.6-0.6s0.3-0.6,0.6-0.6h28.7c0.3,0,0.6,0.3,0.6,0.6
						S113.5,36.3,113.2,36.3z"/>
				</g>
			</g>
		</g>
	</g>
	<g>
		<g>
			<g>
				<path class="st1" d="M137.6,24.6v-0.8v-3.9v-1.6c0-4.6-3.7-8.3-8.3-8.3h-1c-4.6,0-8.3,3.7-8.3,8.3v6.3H137.6z"/>
			</g>
		</g>
	</g>
	<g>
		<g>
			<g>
				<path class="st0" d="M130.7,23.3c0-4.6-3.7-8.3-8.3-8.3h-1c-0.2,0-0.5,0-0.7,0c-0.4,1-0.7,2.1-0.7,3.3v6.3h10.7V23.3z"/>
			</g>
		</g>
	</g>
	<g>
		<g>
			<g>
				<path class="st6" d="M137.6,25.8h-17.6c-0.7,0-1.2-0.5-1.2-1.2v-6.3c0-5.2,4.2-9.5,9.5-9.5h1c5.2,0,9.5,4.2,9.5,9.5v6.3
					C138.8,25.3,138.3,25.8,137.6,25.8z M121.2,23.4h15.2v-5.1c0-3.9-3.2-7.1-7.1-7.1h-1c-3.9,0-7.1,3.2-7.1,7.1V23.4z"/>
			</g>
		</g>
	</g>
	<g>
		<g>
			<g>
				<path class="st0" d="M91.5,50.4v3.3v11v1.6c0,4.6,3.7,8.3,8.3,8.3h1c4.6,0,8.3-3.7,8.3-8.3V50.4H91.5z"/>
			</g>
		</g>
	</g>
	<g>
		<g>
			<g>
				<path class="st5" d="M100.8,75.7h-1c-5.2,0-9.5-4.2-9.5-9.5V52.9c0-0.7,0.5-1.2,1.2-1.2s1.2,0.5,1.2,1.2v13.3
					c0,3.9,3.2,7.1,7.1,7.1h1c3.9,0,7.1-3.2,7.1-7.1V52.9c0-0.7,0.5-1.2,1.2-1.2s1.2,0.5,1.2,1.2v13.3
					C110.3,71.4,106,75.7,100.8,75.7z"/>
			</g>
		</g>
	</g>
	<g>
		<g>
			<g>
				<path class="st2" d="M99.8,35.2H57.4c-4.6,0-8.3,3.7-8.3,8.3v28.8h28.7c-4.6,0-8.3,3.7-8.3,8.3v1.6v-1.5v1.6
					c0,4.6,3.7,8.3,8.3,8.3h5.4c4.6,0,8.3-3.7,8.3-8.3V54.3h0V43.5C91.5,38.9,95.2,35.2,99.8,35.2z"/>
			</g>
		</g>
	</g>
	<g>
		<g>
			<g>
				<path class="st2" d="M91.5,54.3v-5.8v-5c0-1.2,0.2-2.3,0.7-3.3H57.4c-4.6,0-8.3,3.7-8.3,8.3v23.9h28.7c-3.4,0-6.3,2-7.6,5
					l-0.5,6.6c0.8,3.8,4.1,6.6,8.1,6.6h5.4c4.6,0,8.3-3.7,8.3-8.3V59.2h0V54.3z"/>
			</g>
		</g>
	</g>
	<g>
		<g>
			<g>
				<path class="st3" d="M91.4,72.3H77.9c-4.6,0-8.3,3.7-8.3,8.3v0v1.5v0c0,4.6,3.7,8.3,8.3,8.3h5.4c4.1,0,7.5-3,8.2-7V72.3z"/>
			</g>
		</g>
	</g>
	<g>
		<g>
			<g>
				<path class="st4" d="M90.2,86.7L77.9,72.3c-4.6,0-8.3,3.7-8.3,8.3v0v1.5v0c0,4.6,3.7,8.3,8.3,8.3h5.4
					C86.2,90.4,88.7,89,90.2,86.7z"/>
			</g>
		</g>
	</g>
	<g>
		<g>
			<g>
				<path class="st3" d="M69.6,82.2v-1.6V82.2v-1.6c0-4.6,3.7-8.3,8.3-8.3h-38c-4.6,0-8.3,3.7-8.3,8.3v1.6v-1.5v1.6
					c0,4.6,3.7,8.3,8.3,8.3h38C73.3,90.4,69.6,86.7,69.6,82.2z"/>
			</g>
		</g>
	</g>
	<g>
		<g>
			<g>
				<path class="st2" d="M49.1,81.2v-8.9h-9.3c-4.6,0-8.3,3.7-8.3,8.3v0v1.5v0c0,4.3,3.2,7.8,7.4,8.2c0.3,0,0.6,0,0.9,0
					C45,90.4,49.1,86.3,49.1,81.2z"/>
			</g>
		</g>
	</g>
	<g>
		<g>
			<g>
				<path class="st5" d="M77.9,91.6h-38c-5.2,0-9.5-4.2-9.5-9.5v-1.6c0-5.2,4.2-9.5,9.5-9.5h38c0.7,0,1.2,0.5,1.2,1.2
					s-0.5,1.2-1.2,1.2c-3.9,0-7.1,3.2-7.1,7.1v1.6c0,3.9,3.2,7.1,7.1,7.1c0.7,0,1.2,0.5,1.2,1.2C79.1,91.1,78.6,91.6,77.9,91.6z
					 M32.8,82.1L32.8,82.1c0,3.9,3.2,7.1,7.1,7.1h31.8c-2-1.7-3.2-4.3-3.2-7.1v-1.6c0-2.8,1.2-5.3,3.2-7.1H39.9
					c-3.9,0-7.1,3.2-7.1,7.1V82.1z"/>
			</g>
		</g>
	</g>
	<g>
		<g>
			<g>
				<path class="st6" d="M83.3,91.6h-5.4c-5.2,0-9.5-4.2-9.5-9.5v-1.6c0-2.8,1.2-5.3,3.2-7.1H49.1c-0.7,0-1.2-0.5-1.2-1.2V43.5
					c0-5.2,4.2-9.5,9.5-9.5h42.4c0.7,0,1.2,0.5,1.2,1.2c0,0.7-0.5,1.2-1.2,1.2c-3.9,0-7.1,3.2-7.1,7.1v10.6c0,0.1,0,0.1,0,0.2v27.9
					C92.7,87.4,88.5,91.6,83.3,91.6z M70.8,82.1L70.8,82.1c0,3.9,3.2,7.1,7.1,7.1h5.4c3.9,0,7.1-3.2,7.1-7.1V54.5c0-0.1,0-0.1,0-0.2
					V43.5c0-2.8,1.2-5.3,3.2-7.1H57.4c-3.9,0-7.1,3.2-7.1,7.1v27.6h27.6c0.7,0,1.2,0.5,1.2,1.2s-0.5,1.2-1.2,1.2
					c-3.9,0-7.1,3.2-7.1,7.1V82.1z"/>
			</g>
		</g>
	</g>
	<g>
		<g>
			<g>
				<g>
					<path class="st6" d="M84.6,47.5H56c-0.3,0-0.6-0.3-0.6-0.6s0.3-0.6,0.6-0.6h28.7c0.3,0,0.6,0.3,0.6,0.6S85,47.5,84.6,47.5z"/>
				</g>
			</g>
		</g>
		<g>
			<g>
				<g>
					<path class="st6" d="M84.6,54.5H56c-0.3,0-0.6-0.3-0.6-0.6s0.3-0.6,0.6-0.6h28.7c0.3,0,0.6,0.3,0.6,0.6S85,54.5,84.6,54.5z"/>
				</g>
			</g>
		</g>
		<g>
			<g>
				<g>
					<path class="st6" d="M84.6,61.5H56c-0.3,0-0.6-0.3-0.6-0.6s0.3-0.6,0.6-0.6h28.7c0.3,0,0.6,0.3,0.6,0.6S85,61.5,84.6,61.5z"/>
				</g>
			</g>
		</g>
	</g>
	<g>
		<g>
			<g>
				<path class="st0" d="M109.1,50.8v-1.3v-3.9V44c0-4.6-3.7-8.3-8.3-8.3h-1c-4.6,0-8.3,3.7-8.3,8.3v6.8H109.1z"/>
			</g>
		</g>
	</g>
	<g>
		<g>
			<g>
				<path class="st6" d="M109.1,54c-0.7,0-1.2-0.5-1.2-1.2v-9.3c0-3.9-3.2-7.1-7.1-7.1h-1c-3.9,0-7.1,3.2-7.1,7.1v9.3
					c0,0.7-0.5,1.2-1.2,1.2s-1.2-0.5-1.2-1.2v-9.3c0-5.2,4.2-9.5,9.5-9.5h1c5.2,0,9.5,4.2,9.5,9.5v9.3C110.3,53.5,109.7,54,109.1,54
					z"/>
			</g>
		</g>
	</g>
	<g>
		<g>
			<g>
				<g>
					<path class="st7" d="M63,68.9v0.8v11v1.6c0,4.6,3.7,8.3,8.3,8.3h1c4.6,0,8.3-3.7,8.3-8.3V68.9H63z"/>
				</g>
			</g>
		</g>
		<g>
			<g>
				<g>
					<path class="st5" d="M72.3,91.6h-1c-5.2,0-9.5-4.2-9.5-9.5V68.9c0-0.7,0.5-1.2,1.2-1.2h17.6c0.7,0,1.2,0.5,1.2,1.2v13.3
						C81.7,87.4,77.5,91.6,72.3,91.6z M64.2,70.1v12.1c0,3.9,3.2,7.1,7.1,7.1h1c3.9,0,7.1-3.2,7.1-7.1V70.1H64.2z"/>
				</g>
			</g>
		</g>
	</g>
	<g>
		<g>
			<g>
				<polygon class="st4" points="139.5,131.9 139.5,131.9 139.5,131.9 				"/>
			</g>
		</g>
	</g>
	<g>
		<g>
			<g>
				<path class="st8" d="M53.6,81.7h73.6c3.1,0,5.5,2.5,5.5,5.6v19.4v3.3v15.2c0,3.8,3.1,6.8,6.8,6.8H54.9c-3.8,0-6.8-3.1-6.8-6.8
					v-6.2v-12.3V87.2C48,84.2,50.5,81.7,53.6,81.7z"/>
			</g>
		</g>
	</g>
	<g>
		<g>
			<g>
				<path class="st3" d="M48.1,86.8c0.2-2.9,2.6-5.2,5.5-5.2h73.6c0.9,0,1.8,0.2,2.5,0.6l2.4,2.4c0.4,0.8,0.6,1.6,0.6,2.5v19.4v3.3
					v15.2c0,3.8,3.1,6.8,6.8,6.8H93.2L48.1,86.8z"/>
			</g>
		</g>
	</g>
	<g>
		<g>
			<g>
				<path class="st1" d="M57.3,81.7h69.9c3.1,0,5.5,2.5,5.5,5.6v19.4v3.3v15.2c0,3.8,3.1,6.8,6.8,6.8H57.3V81.7z"/>
			</g>
		</g>
	</g>
	<g>
		<g>
			<g>
				<path class="st0" d="M57.3,81.7h69.9c0.1,0,0.2,0,0.3,0c0,0,0.1,0,0.1,0c0.1,0,0.2,0,0.2,0c0,0,0.1,0,0.1,0c0.1,0,0.2,0,0.2,0
					c0,0,0.1,0,0.1,0c0.1,0,0.2,0,0.3,0.1c0,0,0,0,0,0c0.4,0.1,0.8,0.3,1.2,0.5l2.4,2.4c0,0,0,0,0,0c0,0.1,0.1,0.2,0.1,0.3
					c0,0,0,0,0,0c0.1,0.3,0.2,0.6,0.3,0.9c0,0,0,0,0,0c0,0.1,0,0.2,0.1,0.3c0,0,0,0.1,0,0.1c0,0.1,0,0.1,0,0.2c0,0,0,0.1,0,0.1
					c0,0.1,0,0.1,0,0.2c0,0,0,0.1,0,0.1c0,0.1,0,0.2,0,0.3v19.4v3.3v15.2c0,3.8,3.1,6.8,6.8,6.8H93.2L57.3,96.1V81.7z"/>
			</g>
		</g>
	</g>
	<g>
		<g>
			<g>
				<path class="st0" d="M132.7,125.1V111v-1.1v-3.3V87.2c0-3.1-2.5-5.6-5.5-5.6H57.3v-7.5c0-3.2,2.6-5.8,5.8-5.8h54.4l2.7-5.2
					c1-1.9,3-3.1,5.1-3.1h15.2c3.2,0,5.8,2.6,5.8,5.8v39.4c0,0.2,0,0.5-0.1,0.7c0,0.2,0.1,0.5,0.1,0.7v18.5c0,3.8-3,6.8-6.8,6.8
					C135.7,131.9,132.7,128.9,132.7,125.1z"/>
			</g>
		</g>
	</g>
	<g>
		<g>
			<g>
				<path class="st0" d="M146.3,125.1v-18.5c0-0.2,0-0.5-0.1-0.7c0-0.2,0.1-0.5,0.1-0.7v-7.9l-29-29H63.1c-2.5,0-4.6,1.6-5.4,3.8
					l9.6,9.6h60c3.1,0,5.5,2.5,5.5,5.6v19.4v3.3v1.1v14.1c0,3.8,3.1,6.8,6.8,6.8C143.3,131.9,146.3,128.9,146.3,125.1z"/>
			</g>
		</g>
	</g>
	<g>
		<g>
			<g>
				<g>
					<path class="st0" d="M92.3,68.4H63.1c-3.2,0-5.8,2.6-5.8,5.8v7.5h48.3L92.3,68.4z"/>
				</g>
			</g>
		</g>
		<g>
			<g>
				<g>
					<path class="st0" d="M139.5,131.9c3.8,0,6.8-3.1,6.8-6.8v-2.8l-13.6-13.6v1.2v1.1v14.1C132.7,128.9,135.7,131.9,139.5,131.9z"
						/>
				</g>
			</g>
		</g>
	</g>
	<g>
		<g>
			<g>
				<g>
					<g>
						<path class="st6" d="M139.5,133.1c-0.7,0-1.2-0.5-1.2-1.2s0.5-1.2,1.2-1.2h0c0.7,0,1.2,0.5,1.2,1.2S140.2,133.1,139.5,133.1z"
							/>
					</g>
				</g>
			</g>
			<g>
				<g>
					<g>
						<path class="st6" d="M139.5,133.1H54.9c-4.4,0-8-3.6-8-8V87.2c0-3.7,3-6.7,6.7-6.7h73.6c3.7,0,6.7,3,6.7,6.7v37.9
							c0,3.1,2.5,5.6,5.6,5.6c0.7,0,1.2,0.5,1.2,1.2S140.2,133.1,139.5,133.1z M53.6,82.9c-2.4,0-4.4,2-4.4,4.4v37.9
							c0,3.1,2.5,5.6,5.6,5.6h79c-1.4-1.4-2.3-3.4-2.3-5.6V87.2c0-2.4-2-4.4-4.4-4.4H53.6z"/>
					</g>
				</g>
			</g>
		</g>
		<g>
			<g>
				<g>
					<path class="st6" d="M139.5,133.1c-4.4,0-8-3.6-8-8V87.2c0-2.4-2-4.4-4.4-4.4H57.3c-0.7,0-1.2-0.5-1.2-1.2v-7.5
						c0-3.8,3.1-7,7-7h53.7l2.4-4.6c1.2-2.3,3.6-3.7,6.2-3.7h15.2c3.8,0,7,3.1,7,7v39.4c0,0.3,0,0.5-0.1,0.7l0,0c0,0,0,0.1,0,0.1
						c0,0.2,0,0.4,0,0.6v18.5C147.5,129.5,143.9,133.1,139.5,133.1z M58.5,80.5h68.7c3.7,0,6.7,3,6.7,6.7v37.9
						c0,3.1,2.5,5.6,5.6,5.6s5.6-2.5,5.6-5.6v-18.5c0-0.1,0-0.2,0-0.3c0-0.1,0-0.2,0-0.3c0-0.1,0-0.2,0-0.2c0-0.1,0-0.1,0-0.2
						c0-0.1,0-0.3,0-0.4V65.8c0-2.5-2.1-4.6-4.6-4.6h-15.2c-1.7,0-3.3,0.9-4.1,2.5l-2.7,5.2c-0.2,0.4-0.6,0.6-1.1,0.6H63.1
						c-2.5,0-4.6,2.1-4.6,4.6V80.5z"/>
				</g>
			</g>
		</g>
	</g>
	<g>
		<g>
			<g>
				<path class="st1" d="M78.7,81.6v-0.8v-3.9v-1.6c0-4.6-3.7-8.3-8.3-8.3h-1c-4.6,0-8.3,3.7-8.3,8.3v6.3H78.7z"/>
			</g>
		</g>
	</g>
	<g>
		<g>
			<g>
				<path class="st0" d="M71.8,80.3c0-4.6-3.7-8.3-8.3-8.3h-1c-0.2,0-0.5,0-0.7,0c-0.4,1-0.7,2.1-0.7,3.3v6.3h10.7V80.3z"/>
			</g>
		</g>
	</g>
	<g>
		<g>
			<g>
				<path class="st1" d="M69.4,67.1H27c-4.6,0-8.3,3.7-8.3,8.3v53.3h28.7c-4.6,0-8.3,3.7-8.3,8.3v1.6V137v1.6c0,4.6,3.7,8.3,8.3,8.3
					h5.4c4.6,0,8.3-3.7,8.3-8.3V86.2h0V75.4C61.1,70.8,64.8,67.1,69.4,67.1z"/>
			</g>
		</g>
	</g>
	<g>
		<g>
			<g>
				<path class="st1" d="M61,128.7H47.5c-4.6,0-8.3,3.7-8.3,8.3v0v1.5v0c0,4.6,3.7,8.3,8.3,8.3h5.4c4.1,0,7.5-3,8.2-7V128.7z"/>
			</g>
		</g>
	</g>
	<g>
		<g>
			<g>
				<path class="st0" d="M59.8,143.1l-12.3-14.4c-4.6,0-8.3,3.7-8.3,8.3v0v1.5v0c0,4.6,3.7,8.3,8.3,8.3h5.4
					C55.7,146.8,58.3,145.3,59.8,143.1z"/>
			</g>
		</g>
	</g>
	<g>
		<g>
			<g>
				<path class="st1" d="M39.2,138.5V137V138.5V137c0-4.6,3.7-8.3,8.3-8.3h-38c-4.6,0-8.3,3.7-8.3,8.3v1.6V137v1.6
					c0,4.6,3.7,8.3,8.3,8.3h38C42.9,146.8,39.2,143.1,39.2,138.5z"/>
			</g>
		</g>
	</g>
	<g>
		<g>
			<g>
				<path class="st1" d="M18.7,137.6v-8.9H9.5c-4.6,0-8.3,3.7-8.3,8.3v0v1.5v0c0,4.3,3.2,7.8,7.4,8.2c0.3,0,0.6,0,0.9,0
					C14.6,146.8,18.7,142.7,18.7,137.6z"/>
			</g>
		</g>
	</g>
	<g>
		<g>
			<g>
				<path class="st6" d="M47.5,148h-38c-5.2,0-9.5-4.2-9.5-9.5V137c0-5.2,4.2-9.5,9.5-9.5h38c0.7,0,1.2,0.5,1.2,1.2
					s-0.5,1.2-1.2,1.2c-3.9,0-7.1,3.2-7.1,7.1v1.6c0,3.9,3.2,7.1,7.1,7.1c0.7,0,1.2,0.5,1.2,1.2S48.1,148,47.5,148z M2.4,138.5
					L2.4,138.5c0,3.9,3.2,7.1,7.1,7.1h31.8c-2-1.7-3.2-4.3-3.2-7.1V137c0-2.8,1.2-5.3,3.2-7.1H9.5c-3.9,0-7.1,3.2-7.1,7.1V138.5z"/>
			</g>
		</g>
	</g>
	<g>
		<g>
			<g>
				<path class="st6" d="M52.9,148h-5.4c-5.2,0-9.5-4.2-9.5-9.5V137c0-2.8,1.2-5.3,3.2-7.1H18.7c-0.7,0-1.2-0.5-1.2-1.2V75.4
					c0-5.2,4.2-9.5,9.5-9.5h42.4c0.7,0,1.2,0.5,1.2,1.2s-0.5,1.2-1.2,1.2c-3.9,0-7.1,3.2-7.1,7.1V86c0,0.1,0,0.1,0,0.2v52.4
					C62.3,143.8,58.1,148,52.9,148z M40.4,138.5L40.4,138.5c0,3.9,3.2,7.1,7.1,7.1h5.4c3.9,0,7.1-3.2,7.1-7.1V86.3
					c0-0.1,0-0.1,0-0.2V75.4c0-2.8,1.2-5.3,3.2-7.1H27c-3.9,0-7.1,3.2-7.1,7.1v52.1h27.6c0.7,0,1.2,0.5,1.2,1.2s-0.5,1.2-1.2,1.2
					c-3.9,0-7.1,3.2-7.1,7.1V138.5z"/>
			</g>
		</g>
	</g>
	<g>
		<g>
			<g>
				<g>
					<path class="st6" d="M54.2,103.9H25.6c-0.3,0-0.6-0.3-0.6-0.6s0.3-0.6,0.6-0.6h28.7c0.3,0,0.6,0.3,0.6,0.6
						S54.5,103.9,54.2,103.9z"/>
				</g>
			</g>
		</g>
		<g>
			<g>
				<g>
					<path class="st6" d="M54.2,110.9H25.6c-0.3,0-0.6-0.3-0.6-0.6s0.3-0.6,0.6-0.6h28.7c0.3,0,0.6,0.3,0.6,0.6
						S54.5,110.9,54.2,110.9z"/>
				</g>
			</g>
		</g>
		<g>
			<g>
				<g>
					<path class="st6" d="M54.2,117.9H25.6c-0.3,0-0.6-0.3-0.6-0.6s0.3-0.6,0.6-0.6h28.7c0.3,0,0.6,0.3,0.6,0.6
						S54.5,117.9,54.2,117.9z"/>
				</g>
			</g>
		</g>
	</g>
	<g>
		<g>
			<g>
				<path class="st6" d="M78.7,82.8H61.1c-0.7,0-1.2-0.5-1.2-1.2v-6.3c0-5.2,4.2-9.5,9.5-9.5h1c5.2,0,9.5,4.2,9.5,9.5v6.3
					C79.9,82.3,79.3,82.8,78.7,82.8z M62.3,80.5h15.2v-5.1c0-3.9-3.2-7.1-7.1-7.1h-1c-3.9,0-7.1,3.2-7.1,7.1V80.5z"/>
			</g>
		</g>
	</g>
	<g>
		<g>
			<g>
				<g>
					<g>
						<path class="st9" d="M46.6,81.8"/>
					</g>
				</g>
			</g>
			<g>
				<g>
					<g>
						<path class="st9" d="M46.6,88.2"/>
					</g>
				</g>
			</g>
		</g>
	</g>
	<g>
		<g>
			<g>
				<g>
					<g>
						<path class="st6" d="M106.9,121.3c-0.5,0-0.9-0.4-0.9-0.9s0.4-0.9,0.9-0.9c6.7,0,12.2-5.5,12.2-12.2c0-0.5,0.4-0.9,0.9-0.9
							c0.5,0,0.9,0.4,0.9,0.9C120.8,115,114.6,121.3,106.9,121.3z"/>
					</g>
				</g>
			</g>
			<g>
				<g>
					<g>
						<path class="st6" d="M93.8,108.2c-0.5,0-0.9-0.4-0.9-0.9c0-7.7,6.3-14,14-14c0.5,0,0.9,0.4,0.9,0.9c0,0.5-0.4,0.9-0.9,0.9
							c-6.7,0-12.2,5.5-12.2,12.2C94.7,107.8,94.3,108.2,93.8,108.2z"/>
					</g>
				</g>
			</g>
		</g>
		<g>
			<g>
				<g>
					<g>
						<path class="st6" d="M114.6,107.9c-0.3,0-0.6-0.3-0.6-0.6c0-0.4,0-0.9-0.1-1.3c-0.1-0.3,0.2-0.6,0.5-0.7
							c0.3-0.1,0.6,0.2,0.7,0.5c0.1,0.5,0.1,1,0.1,1.5C115.2,107.6,114.9,107.9,114.6,107.9z"/>
					</g>
				</g>
			</g>
			<g>
				<g>
					<g>
						<path class="st6" d="M109.9,100.7c-0.1,0-0.2,0-0.2,0c-0.9-0.4-1.8-0.6-2.8-0.6c-0.3,0-0.6-0.3-0.6-0.6s0.3-0.6,0.6-0.6
							c1.1,0,2.2,0.2,3.3,0.7c0.3,0.1,0.4,0.5,0.3,0.8C110.3,100.6,110.1,100.7,109.9,100.7z"/>
					</g>
				</g>
			</g>
			<g>
				<g>
					<g>
						<path class="st6" d="M106.9,115.6c-4.6,0-8.4-3.7-8.4-8.4c0-0.3,0.3-0.6,0.6-0.6s0.6,0.3,0.6,0.6c0,4,3.2,7.2,7.2,7.2
							c0.3,0,0.6,0.3,0.6,0.6S107.2,115.6,106.9,115.6z"/>
					</g>
				</g>
			</g>
		</g>
		<g>
			<g>
				<g>
					<path class="st6" d="M106.7,110.3L106.7,110.3c-0.2,0-0.5-0.1-0.6-0.3l-3-3c-0.3-0.3-0.3-0.9,0-1.3c0.3-0.3,0.9-0.3,1.3,0
						l2.4,2.4l11.3-11.3c0.3-0.3,0.9-0.3,1.3,0c0.3,0.3,0.3,0.9,0,1.3l-12,12C107.2,110.2,106.9,110.3,106.7,110.3z"/>
				</g>
			</g>
		</g>
		<g>
			<g>
				<g>
					<g>
						<path class="st6" d="M72.5,99.5c-0.2,0-0.5-0.1-0.6-0.3l-2.4-2.4c-0.3-0.3-0.3-0.9,0-1.3c0.3-0.3,0.9-0.3,1.3,0l1.8,1.8
							l5.7-5.7c0.3-0.3,0.9-0.3,1.3,0c0.3,0.3,0.3,0.9,0,1.3l-6.3,6.3C73,99.5,72.8,99.5,72.5,99.5z"/>
					</g>
				</g>
			</g>
			<g>
				<g>
					<g>
						<path class="st6" d="M72.5,110.6c-0.2,0-0.5-0.1-0.6-0.3l-2.4-2.4c-0.3-0.3-0.3-0.9,0-1.3s0.9-0.3,1.3,0l1.8,1.8l5.7-5.7
							c0.3-0.3,0.9-0.3,1.3,0c0.3,0.3,0.3,0.9,0,1.3l-6.3,6.3C73,110.5,72.7,110.6,72.5,110.6z"/>
					</g>
				</g>
			</g>
			<g>
				<g>
					<g>
						<path class="st6" d="M72.5,121.7c-0.2,0-0.5-0.1-0.6-0.3l-2.4-2.4c-0.3-0.3-0.3-0.9,0-1.3c0.3-0.3,0.9-0.3,1.3,0l1.8,1.8
							l5.7-5.7c0.3-0.3,0.9-0.3,1.3,0c0.3,0.3,0.3,0.9,0,1.3l-6.3,6.3C73,121.6,72.8,121.7,72.5,121.7z"/>
					</g>
				</g>
			</g>
		</g>
	</g>
	<g>
		<g>
			<g>
				<g>
					<path class="st8" d="M116.7,50.5h-13.9L91.5,61.8v22.8c0,1.7,1.4,3.2,3.2,3.2h22c1.7,0,3.2-1.4,3.2-3.2V53.7
						C119.9,51.9,118.5,50.5,116.7,50.5z"/>
				</g>
			</g>
		</g>
		<g>
			<g>
				<g>
					<path class="st3" d="M102.8,50.5L91.5,61.8V67h12.9c1.7,0,3.2-1.4,3.2-3.2V50.5H102.8z"/>
				</g>
			</g>
		</g>
		<g>
			<g>
				<g>
					<path class="st3" d="M99.7,61.8c1.7,0,3.2-1.4,3.2-3.2v-8.1L91.5,61.8H99.7z"/>
				</g>
			</g>
		</g>
	</g>
	<g>
		<g>
			<g>
				<g>
					<path class="st6" d="M116.7,88.9h-22c-2.4,0-4.3-2-4.3-4.4V61.8c0-0.3,0.1-0.6,0.3-0.8L102,49.7c0.2-0.2,0.5-0.3,0.8-0.3h13.9
						c2.4,0,4.3,2,4.3,4.3v30.9C121.1,87,119.1,88.9,116.7,88.9z M92.7,62.3v22.3c0,1.1,0.9,2,2,2h22c1.1,0,2-0.9,2-2V53.7
						c0-1.1-0.9-2-2-2h-13.4L92.7,62.3z"/>
				</g>
			</g>
		</g>
		<g>
			<g>
				<g>
					<path class="st6" d="M99.7,62.7h-8.1c-0.4,0-0.7-0.2-0.8-0.6c-0.1-0.3-0.1-0.7,0.2-1l11.3-11.3c0.3-0.3,0.6-0.3,1-0.2
						c0.3,0.1,0.6,0.5,0.6,0.8v8.1C103.7,60.9,101.9,62.7,99.7,62.7z M93.7,60.9h6c1.3,0,2.3-1,2.3-2.3v-6L93.7,60.9z"/>
				</g>
			</g>
		</g>
	</g>
	<g>
		<g>
			<g>
				<g>
					<line class="st3" x1="105.8" y1="74.3" x2="111.5" y2="80"/>
				</g>
			</g>
		</g>
	</g>
	<g>
		<g>
			<g>
				<g>
					<g>
						<g>
							<path class="st6" d="M101.3,71.9C101.3,71.9,101.3,71.9,101.3,71.9c-0.8,0-1.5-0.3-2.1-0.9c-0.6-0.6-0.9-1.3-0.9-2.1
								c0-0.8,0.3-1.5,0.9-2.1c0.6-0.6,1.3-0.9,2.1-0.9c1.6,0,2.9,1.3,2.9,2.9c0,0,0,0,0,0c0,0.8-0.3,1.5-0.9,2.1
								C102.8,71.6,102,71.9,101.3,71.9z M101.3,70.7C101.3,70.7,101.3,70.7,101.3,70.7c0.5,0,0.9-0.2,1.2-0.5
								c0.3-0.3,0.5-0.8,0.5-1.2c0-1-0.8-1.7-1.7-1.7c-0.5,0-0.9,0.2-1.2,0.5c-0.3,0.3-0.5,0.8-0.5,1.2c0,0.5,0.2,0.9,0.5,1.2
								C100.4,70.5,100.8,70.7,101.3,70.7C101.3,70.7,101.3,70.7,101.3,70.7z"/>
						</g>
					</g>
				</g>
			</g>
			<g>
				<g>
					<g>
						<g>
							<path class="st6" d="M110.1,80.7c-0.8,0-1.5-0.3-2.1-0.9c-0.6-0.6-0.9-1.3-0.9-2.1c0-0.8,0.3-1.5,0.8-2.1
								c0.6-0.6,1.3-0.9,2.1-0.9c1.6,0,2.9,1.3,2.9,2.9C113.1,79.4,111.8,80.7,110.1,80.7z M110.1,76.1c-0.5,0-0.9,0.2-1.2,0.5
								c-0.3,0.3-0.5,0.8-0.5,1.2c0,0.5,0.2,0.9,0.5,1.2c0.3,0.3,0.8,0.5,1.2,0.5c1,0,1.7-0.8,1.7-1.7
								C111.9,76.9,111.1,76.1,110.1,76.1z"/>
						</g>
					</g>
				</g>
			</g>
		</g>
		<g>
			<g>
				<g>
					<path class="st6" d="M100.1,79.6c-0.2,0-0.3-0.1-0.4-0.2c-0.2-0.2-0.2-0.6,0-0.8l11.2-11.2c0.2-0.2,0.6-0.2,0.8,0
						c0.2,0.2,0.2,0.6,0,0.8l-11.2,11.2C100.4,79.5,100.3,79.6,100.1,79.6z"/>
				</g>
			</g>
		</g>
	</g>
	<g>
		<path class="st6" d="M25,82.6h1.3V86h1.4v-3.4H29v8.4h-1.3v-3.8h-1.4v3.8H25V82.6z"/>
		<path class="st6" d="M30,82.6h1.3v8.4H30V82.6z"/>
		<path class="st6" d="M32.6,90.6c-0.3-0.4-0.5-0.9-0.5-1.6v-0.5h1.3v0.6c0,0.5,0.2,0.8,0.7,0.8c0.2,0,0.4-0.1,0.5-0.2
			c0.1-0.1,0.2-0.3,0.2-0.6c0-0.4-0.1-0.7-0.2-0.9c-0.2-0.3-0.5-0.6-0.9-1c-0.5-0.5-0.9-0.9-1.1-1.3c-0.2-0.4-0.3-0.8-0.3-1.3
			c0-0.7,0.2-1.2,0.5-1.5c0.3-0.4,0.8-0.5,1.5-0.5c0.6,0,1.1,0.2,1.4,0.5c0.3,0.4,0.5,0.9,0.5,1.6V85h-1.3v-0.4
			c0-0.3-0.1-0.5-0.2-0.6c-0.1-0.1-0.3-0.2-0.5-0.2c-0.4,0-0.7,0.3-0.7,0.8c0,0.3,0.1,0.6,0.2,0.9c0.2,0.3,0.5,0.6,0.9,1
			c0.6,0.5,0.9,0.9,1.1,1.3c0.2,0.4,0.3,0.9,0.3,1.4c0,0.7-0.2,1.2-0.5,1.6c-0.3,0.4-0.8,0.6-1.5,0.6C33.4,91.2,32.9,91,32.6,90.6z"
			/>
		<path class="st6" d="M37.9,83.8h-1.4v-1.2h4.1v1.2h-1.4v7.2h-1.3V83.8z"/>
		<path class="st6" d="M41.6,90.6c-0.3-0.4-0.5-0.9-0.5-1.6v-4.4c0-0.7,0.2-1.2,0.5-1.6c0.3-0.4,0.8-0.6,1.5-0.6s1.1,0.2,1.5,0.6
			c0.3,0.4,0.5,0.9,0.5,1.6v4.4c0,0.7-0.2,1.2-0.5,1.6c-0.3,0.4-0.8,0.6-1.5,0.6S41.9,91,41.6,90.6z M43.8,89.1v-4.6
			c0-0.6-0.2-0.8-0.7-0.8s-0.7,0.3-0.7,0.8v4.6c0,0.6,0.2,0.8,0.7,0.8S43.8,89.7,43.8,89.1z"/>
		<path class="st6" d="M46,82.6h2c0.7,0,1.2,0.2,1.5,0.5c0.3,0.3,0.5,0.8,0.5,1.5v0.5c0,0.9-0.3,1.4-0.9,1.7v0
			c0.3,0.1,0.5,0.3,0.7,0.6c0.1,0.3,0.2,0.7,0.2,1.2V90c0,0.2,0,0.4,0,0.6c0,0.1,0.1,0.3,0.1,0.4h-1.4c0-0.1-0.1-0.3-0.1-0.4
			c0-0.1,0-0.3,0-0.7v-1.5c0-0.4-0.1-0.7-0.2-0.8c-0.1-0.2-0.3-0.2-0.6-0.2h-0.5v3.6H46V82.6z M47.8,86.2c0.3,0,0.5-0.1,0.6-0.2
			c0.1-0.1,0.2-0.4,0.2-0.7v-0.7c0-0.3-0.1-0.5-0.2-0.7c-0.1-0.1-0.3-0.2-0.5-0.2h-0.6v2.4H47.8z"/>
		<path class="st6" d="M51.9,87.5l-1.6-4.8h1.4l0.9,3.1h0l0.9-3.1h1.3l-1.6,4.8v3.6h-1.3V87.5z"/>
	</g>
</g>
</svg>
