<?xml version="1.0" encoding="utf-8"?>
<!-- Generator: Adobe Illustrator 23.0.3, SVG Export Plug-In . SVG Version: 6.00 Build 0)  -->
<svg version="1.1" id="Layer_1" xmlns="http://www.w3.org/2000/svg" xmlns:xlink="http://www.w3.org/1999/xlink" x="0px" y="0px"
	 viewBox="0 0 140.7 148" style="enable-background:new 0 0 140.7 148;" xml:space="preserve">
<style type="text/css">
	.st0{fill:#E6EEFB;}
	.st1{fill:#CEDEF8;}
	.st2{fill:#0C5ADB;}
	.st3{fill:#FFFFFF;}
	.st4{fill:#E9F6FF;}
	.st5{fill:#AFD8F9;}
	.st6{fill:#DEF4FC;}
	.st7{fill:#B1C7E8;}
</style>
<g>
	<g>
		<g>
			<path class="st0" d="M101.8,52c0,17.3-14,31.4-31.4,31.4C53,83.4,39,69.4,39,52c0-17.3,14-31.4,31.4-31.4
				C87.7,20.7,101.8,34.7,101.8,52z"/>
		</g>
	</g>
	<g>
		<g>
			<path class="st0" d="M131,133V59.6c0-2.6-2.1-4.8-4.8-4.8H14.6c-2.6,0-4.8,2.1-4.8,4.8V133H131z"/>
		</g>
	</g>
	<g>
		<g>
			<g>
				<g>
					<g>
						<rect x="107.1" y="51.4" class="st0" width="8.2" height="1.2"/>
					</g>
				</g>
				<g>
					<g>
						<rect x="101.7" y="51.4" class="st0" width="0.9" height="1.2"/>
					</g>
				</g>
				<g>
					<g>
						<rect x="97.4" y="51.4" class="st0" width="0.9" height="1.2"/>
					</g>
				</g>
				<g>
					<g>
						<rect x="93" y="51.4" class="st0" width="0.9" height="1.2"/>
					</g>
				</g>
			</g>
			<g>
				<g>
					<g>
						<rect x="25.4" y="51.4" class="st0" width="8.2" height="1.2"/>
					</g>
				</g>
				<g>
					<g>
						<rect x="38.1" y="51.4" class="st0" width="0.9" height="1.2"/>
					</g>
				</g>
				<g>
					<g>
						<rect x="42.5" y="51.4" class="st0" width="0.9" height="1.2"/>
					</g>
				</g>
				<g>
					<g>
						<rect x="46.8" y="51.4" class="st0" width="0.9" height="1.2"/>
					</g>
				</g>
			</g>
		</g>
		<g>
			<g>
				<g>
					<g>
						
							<rect x="92.3" y="74.1" transform="matrix(0.7079 -0.7063 0.7063 0.7079 -25.5141 87.3598)" class="st0" width="1.2" height="0.9"/>
					</g>
				</g>
				<g>
					<g>
						
							<rect x="89.2" y="71" transform="matrix(0.7071 -0.7071 0.7071 0.7071 -24.221 84.4073)" class="st0" width="1.2" height="0.9"/>
					</g>
				</g>
				<g>
					<g>
						
							<rect x="86.1" y="67.9" transform="matrix(0.7073 -0.7069 0.7069 0.7073 -22.9451 81.2949)" class="st0" width="1.2" height="0.9"/>
					</g>
				</g>
			</g>
			<g>
				<g>
					<g>
						
							<rect x="40.9" y="19" transform="matrix(0.7071 -0.7071 0.7071 0.7071 -4.2142 36.1078)" class="st0" width="1.2" height="8.2"/>
					</g>
				</g>
				<g>
					<g>
						
							<rect x="47.3" y="29.1" transform="matrix(0.7076 -0.7066 0.7066 0.7076 -6.8782 42.4803)" class="st0" width="1.2" height="0.9"/>
					</g>
				</g>
				<g>
					<g>
						
							<rect x="50.4" y="32.2" transform="matrix(0.7066 -0.7076 0.7076 0.7066 -8.1394 45.6449)" class="st0" width="1.2" height="0.9"/>
					</g>
				</g>
				<g>
					<g>
						
							<rect x="53.5" y="35.3" transform="matrix(0.7073 -0.7069 0.7069 0.7073 -9.43 48.6766)" class="st0" width="1.2" height="0.9"/>
					</g>
				</g>
			</g>
		</g>
		<g>
			<g>
				<g>
					<g>
						<rect x="69.8" y="88.8" class="st0" width="1.2" height="8.2"/>
					</g>
				</g>
				<g>
					<g>
						<rect x="69.8" y="83.4" class="st0" width="1.2" height="0.9"/>
					</g>
				</g>
				<g>
					<g>
						<rect x="69.8" y="79" class="st0" width="1.2" height="0.9"/>
					</g>
				</g>
				<g>
					<g>
						<rect x="69.8" y="74.7" class="st0" width="1.2" height="0.9"/>
					</g>
				</g>
			</g>
			<g>
				<g>
					<g>
						<rect x="69.8" y="7" class="st0" width="1.2" height="8.2"/>
					</g>
				</g>
				<g>
					<g>
						<rect x="69.8" y="19.8" class="st0" width="1.2" height="0.9"/>
					</g>
				</g>
				<g>
					<g>
						<rect x="69.8" y="24.1" class="st0" width="1.2" height="0.9"/>
					</g>
				</g>
				<g>
					<g>
						
							<rect x="69.9" y="28.4" transform="matrix(1.464842e-03 -1 1 1.464842e-03 41.306 99.3015)" class="st0" width="0.9" height="1.2"/>
					</g>
				</g>
			</g>
		</g>
		<g>
			<g>
				<g>
					<g>
						
							<rect x="37.4" y="80.3" transform="matrix(0.7071 -0.7071 0.7071 0.7071 -45.0834 53.0358)" class="st0" width="8.2" height="1.2"/>
					</g>
				</g>
				<g>
					<g>
						
							<rect x="47.4" y="73.9" transform="matrix(0.7065 -0.7077 0.7077 0.7065 -38.689 55.7656)" class="st0" width="0.9" height="1.2"/>
					</g>
				</g>
				<g>
					<g>
						
							<rect x="50.5" y="70.8" transform="matrix(0.7069 -0.7074 0.7074 0.7069 -35.591 56.9997)" class="st0" width="0.9" height="1.2"/>
					</g>
				</g>
				<g>
					<g>
						
							<rect x="53.6" y="67.8" transform="matrix(0.7076 -0.7066 0.7066 0.7076 -32.4918 58.1882)" class="st0" width="0.9" height="1.2"/>
					</g>
				</g>
			</g>
			<g>
				<g>
					<g>
						
							<rect x="95.2" y="22.5" transform="matrix(0.707 -0.7072 0.7072 0.707 12.7236 76.9906)" class="st0" width="8.2" height="1.2"/>
					</g>
				</g>
				<g>
					<g>
						<rect x="92.4" y="29" transform="matrix(0.706 -0.7082 0.7082 0.706 6.3741 74.4545)" class="st0" width="0.9" height="1.2"/>
					</g>
				</g>
				<g>
					<g>
						
							<rect x="89.3" y="32" transform="matrix(0.7081 -0.7061 0.7061 0.7081 3.161 72.9224)" class="st0" width="0.9" height="1.2"/>
					</g>
				</g>
				<g>
					<g>
						
							<rect x="86.2" y="35.1" transform="matrix(0.7081 -0.7061 0.7061 0.7081 8.001734e-02 71.6436)" class="st0" width="0.9" height="1.2"/>
					</g>
				</g>
			</g>
		</g>
		<g>
			<g>
				<g>
					<path class="st0" d="M70.4,93.8c-23,0-41.8-18.8-41.8-41.8h1.2c0,22.4,18.2,40.6,40.6,40.6V93.8z"/>
				</g>
			</g>
			<g>
				<g>
					<path class="st0" d="M112.2,52H111c0-22.4-18.2-40.6-40.6-40.6v-1.2C93.4,10.2,112.2,29,112.2,52z"/>
				</g>
			</g>
		</g>
		<g>
			<g>
				<g>
					<g>
						<g>
							<path class="st0" d="M112.2,52.6l-1.2,0c0-0.2,0-0.4,0-0.6h1.2C112.2,52.2,112.2,52.4,112.2,52.6z"/>
						</g>
					</g>
				</g>
				<g>
					<g>
						<g>
							<path class="st0" d="M72.2,93.8l-0.1-1.2c0.4,0,0.8,0,1.2-0.1l0.1,1.2C73,93.8,72.6,93.8,72.2,93.8z M74.6,93.6l-0.1-1.2
								c0.4,0,0.8-0.1,1.2-0.1l0.2,1.2C75.4,93.5,75,93.6,74.6,93.6z M77.1,93.3l-0.2-1.2c0.4-0.1,0.8-0.1,1.2-0.2l0.2,1.2
								C77.9,93.2,77.5,93.2,77.1,93.3z M79.4,92.9l-0.3-1.2c0.4-0.1,0.8-0.2,1.1-0.3l0.3,1.2C80.2,92.7,79.8,92.8,79.4,92.9z
								 M81.8,92.3l-0.3-1.1c0.4-0.1,0.8-0.2,1.1-0.3l0.4,1.1C82.6,92,82.2,92.1,81.8,92.3z M84.1,91.5l-0.4-1.1
								c0.4-0.1,0.7-0.3,1.1-0.4l0.4,1.1C84.9,91.3,84.5,91.4,84.1,91.5z M86.4,90.7l-0.5-1.1c0.4-0.2,0.7-0.3,1.1-0.5l0.5,1.1
								C87.1,90.3,86.8,90.5,86.4,90.7z M88.6,89.7l-0.5-1.1c0.4-0.2,0.7-0.3,1.1-0.5l0.6,1.1C89.3,89.3,89,89.5,88.6,89.7z
								 M90.7,88.5l-0.6-1c0.3-0.2,0.7-0.4,1-0.6l0.6,1C91.4,88.1,91.1,88.4,90.7,88.5z M92.8,87.3l-0.6-1c0.3-0.2,0.7-0.4,1-0.6
								l0.7,1C93.5,86.9,93.2,87.1,92.8,87.3z M94.8,85.9l-0.7-1c0.3-0.2,0.6-0.5,0.9-0.7l0.7,0.9C95.5,85.5,95.2,85.7,94.8,85.9z
								 M96.8,84.5L96,83.5c0.3-0.2,0.6-0.5,0.9-0.8l0.8,0.9C97.4,83.9,97.1,84.2,96.8,84.5z M98.6,82.9L97.8,82
								c0.3-0.3,0.6-0.5,0.9-0.8l0.8,0.9C99.2,82.3,98.9,82.6,98.6,82.9z M100.3,81.2l-0.9-0.8c0.3-0.3,0.5-0.6,0.8-0.9l0.9,0.8
								C100.9,80.6,100.6,80.9,100.3,81.2z M102,79.4l-0.9-0.8c0.3-0.3,0.5-0.6,0.8-0.9l0.9,0.8C102.5,78.8,102.3,79.1,102,79.4z
								 M103.5,77.5l-0.9-0.7c0.2-0.3,0.5-0.6,0.7-0.9l1,0.7C104,76.9,103.8,77.2,103.5,77.5z M105,75.5l-1-0.7
								c0.2-0.3,0.4-0.7,0.7-1l1,0.6C105.4,74.9,105.2,75.2,105,75.5z M106.3,73.5l-1-0.6c0.2-0.3,0.4-0.7,0.6-1l1,0.6
								C106.7,72.8,106.5,73.1,106.3,73.5z M107.5,71.4l-1.1-0.6c0.2-0.3,0.4-0.7,0.5-1.1l1.1,0.5C107.8,70.6,107.6,71,107.5,71.4z
								 M108.5,69.2l-1.1-0.5c0.2-0.4,0.3-0.7,0.5-1.1L109,68C108.8,68.4,108.7,68.8,108.5,69.2z M109.5,66.9l-1.1-0.4
								c0.1-0.4,0.3-0.7,0.4-1.1l1.1,0.4C109.7,66.1,109.6,66.5,109.5,66.9z M110.3,64.6l-1.1-0.4c0.1-0.4,0.2-0.8,0.3-1.1l1.1,0.3
								C110.5,63.8,110.4,64.2,110.3,64.6z M110.9,62.3l-1.2-0.3c0.1-0.4,0.2-0.8,0.3-1.1l1.2,0.3C111.1,61.5,111,61.9,110.9,62.3z
								 M111.4,59.9l-1.2-0.2c0.1-0.4,0.1-0.8,0.2-1.2l1.2,0.2C111.6,59.1,111.5,59.5,111.4,59.9z M111.8,57.5l-1.2-0.2
								c0.1-0.4,0.1-0.8,0.1-1.2l1.2,0.1C111.9,56.7,111.9,57.1,111.8,57.5z M112.1,55.1l-1.2-0.1c0-0.4,0.1-0.8,0.1-1.2l1.2,0.1
								C112.1,54.3,112.1,54.7,112.1,55.1z"/>
						</g>
					</g>
				</g>
				<g>
					<g>
						<g>
							<path class="st0" d="M70.4,93.8v-1.2c0.2,0,0.4,0,0.6,0l0,1.2C70.8,93.8,70.6,93.8,70.4,93.8z"/>
						</g>
					</g>
				</g>
			</g>
			<g>
				<g>
					<g>
						<g>
							<path class="st0" d="M29.8,52h-1.2c0-0.2,0-0.4,0-0.6l1.2,0C29.8,51.6,29.8,51.8,29.8,52z"/>
						</g>
					</g>
				</g>
				<g>
					<g>
						<g>
							<path class="st0" d="M29.8,50.3l-1.2-0.1c0-0.4,0-0.8,0.1-1.2l1.2,0.1C29.8,49.5,29.8,49.9,29.8,50.3z M30,47.9l-1.2-0.1
								c0-0.4,0.1-0.8,0.1-1.2l1.2,0.2C30.1,47.1,30,47.5,30,47.9z M30.3,45.6l-1.2-0.2c0.1-0.4,0.1-0.8,0.2-1.2l1.2,0.2
								C30.4,44.8,30.3,45.2,30.3,45.6z M30.7,43.3L29.6,43c0.1-0.4,0.2-0.8,0.3-1.2l1.2,0.3C30.9,42.5,30.8,42.9,30.7,43.3z
								 M31.3,41l-1.1-0.3c0.1-0.4,0.2-0.8,0.3-1.2l1.1,0.4C31.5,40.2,31.4,40.6,31.3,41z M32,38.7l-1.1-0.4
								c0.1-0.4,0.3-0.8,0.4-1.1l1.1,0.4C32.3,38,32.1,38.3,32,38.7z M32.9,36.5L31.7,36c0.2-0.4,0.3-0.7,0.5-1.1l1.1,0.5
								C33.2,35.8,33,36.1,32.9,36.5z M33.8,34.3l-1.1-0.5c0.2-0.4,0.4-0.7,0.5-1.1l1.1,0.6C34.2,33.6,34,34,33.8,34.3z M34.9,32.2
								l-1-0.6c0.2-0.4,0.4-0.7,0.6-1.1l1,0.6C35.3,31.5,35.1,31.9,34.9,32.2z M36.1,30.2l-1-0.6c0.2-0.3,0.4-0.7,0.7-1l1,0.7
								C36.6,29.5,36.3,29.9,36.1,30.2z M37.5,28.3l-1-0.7c0.2-0.3,0.5-0.7,0.7-1l0.9,0.7C37.9,27.6,37.7,27.9,37.5,28.3z
								 M38.9,26.4L38,25.6c0.3-0.3,0.5-0.6,0.8-0.9l0.9,0.8C39.4,25.8,39.2,26.1,38.9,26.4z M40.5,24.6l-0.9-0.8
								c0.3-0.3,0.6-0.6,0.8-0.9l0.9,0.8C41,24,40.7,24.3,40.5,24.6z M42.1,22.9L41.3,22c0.3-0.3,0.6-0.6,0.9-0.8l0.8,0.9
								C42.7,22.4,42.4,22.6,42.1,22.9z M43.8,21.3l-0.8-0.9c0.3-0.3,0.6-0.5,0.9-0.8l0.8,0.9C44.4,20.8,44.1,21,43.8,21.3z
								 M45.7,19.8l-0.7-0.9c0.3-0.2,0.6-0.5,1-0.7l0.7,1C46.3,19.3,46,19.6,45.7,19.8z M47.6,18.4l-0.7-1c0.3-0.2,0.7-0.5,1-0.7
								l0.6,1C48.2,18,47.9,18.2,47.6,18.4z M49.6,17.2l-0.6-1c0.3-0.2,0.7-0.4,1.1-0.6l0.6,1C50.2,16.8,49.9,17,49.6,17.2z
								 M51.6,16L51.1,15c0.4-0.2,0.7-0.4,1.1-0.5l0.5,1.1C52.3,15.7,52,15.8,51.6,16z M53.7,15l-0.5-1.1c0.4-0.2,0.7-0.3,1.1-0.5
								l0.5,1.1C54.5,14.7,54.1,14.8,53.7,15z M55.9,14.1L55.5,13c0.4-0.1,0.8-0.3,1.1-0.4l0.4,1.1C56.7,13.8,56.3,13.9,55.9,14.1z
								 M58.2,13.3l-0.4-1.1c0.4-0.1,0.8-0.2,1.2-0.3l0.3,1.1C58.9,13.1,58.5,13.2,58.2,13.3z M60.4,12.7l-0.3-1.2
								c0.4-0.1,0.8-0.2,1.2-0.3l0.3,1.2C61.2,12.5,60.8,12.6,60.4,12.7z M62.7,12.2L62.5,11c0.4-0.1,0.8-0.1,1.2-0.2l0.2,1.2
								C63.5,12,63.1,12.1,62.7,12.2z M65.1,11.8l-0.2-1.2c0.4-0.1,0.8-0.1,1.2-0.1l0.1,1.2C65.8,11.7,65.5,11.7,65.1,11.8z
								 M67.4,11.5l-0.1-1.2c0.4,0,0.8-0.1,1.2-0.1l0.1,1.2C68.2,11.5,67.8,11.5,67.4,11.5z"/>
						</g>
					</g>
				</g>
				<g>
					<g>
						<g>
							<path class="st0" d="M69.8,11.4l0-1.2c0.2,0,0.4,0,0.6,0v1.2C70.2,11.4,70,11.4,69.8,11.4z"/>
						</g>
					</g>
				</g>
			</g>
		</g>
		<g>
			<g>
				<g>
					<g>
						<path class="st0" d="M44.2,52H43C43,37,55.3,24.7,70.4,24.7v1.2C56,25.9,44.2,37.6,44.2,52z"/>
					</g>
				</g>
				<g>
					<g>
						<path class="st0" d="M70.4,79.4v-1.2c14.4,0,26.2-11.7,26.2-26.2h1.2C97.7,67.1,85.5,79.4,70.4,79.4z"/>
					</g>
				</g>
			</g>
			<g>
				<g>
					<g>
						<g>
							<g>
								<path class="st0" d="M70.4,79.4c-0.2,0-0.4,0-0.6,0l0-1.2c0.2,0,0.4,0,0.6,0V79.4z"/>
							</g>
						</g>
					</g>
					<g>
						<g>
							<g>
								<path class="st0" d="M68.6,79.3c-0.4,0-0.8-0.1-1.2-0.1l0.1-1.2c0.4,0,0.8,0.1,1.1,0.1L68.6,79.3z M66.2,79.1
									c-0.4-0.1-0.8-0.1-1.2-0.2l0.2-1.2c0.4,0.1,0.7,0.1,1.1,0.2L66.2,79.1z M63.9,78.6c-0.4-0.1-0.8-0.2-1.2-0.3l0.3-1.1
									c0.4,0.1,0.7,0.2,1.1,0.3L63.9,78.6z M61.6,77.9c-0.4-0.1-0.8-0.3-1.1-0.4l0.4-1.1c0.4,0.1,0.7,0.3,1.1,0.4L61.6,77.9z
									 M59.3,77.1c-0.4-0.2-0.7-0.3-1.1-0.5l0.5-1.1c0.3,0.2,0.7,0.3,1,0.5L59.3,77.1z M57.2,76c-0.3-0.2-0.7-0.4-1-0.6l0.6-1
									c0.3,0.2,0.7,0.4,1,0.6L57.2,76z M55.2,74.8c-0.3-0.2-0.7-0.5-1-0.7l0.7-1c0.3,0.2,0.6,0.4,0.9,0.7L55.2,74.8z M53.2,73.4
									c-0.3-0.2-0.6-0.5-0.9-0.8l0.8-0.9c0.3,0.3,0.6,0.5,0.9,0.7L53.2,73.4z M51.5,71.8c-0.3-0.3-0.6-0.6-0.8-0.8l0.9-0.8
									c0.3,0.3,0.5,0.5,0.8,0.8L51.5,71.8z M49.8,70.1c-0.3-0.3-0.5-0.6-0.8-0.9l0.9-0.7c0.2,0.3,0.5,0.6,0.7,0.9L49.8,70.1z
									 M48.3,68.2c-0.2-0.3-0.5-0.6-0.7-1l1-0.7c0.2,0.3,0.4,0.6,0.7,0.9L48.3,68.2z M47,66.2c-0.2-0.3-0.4-0.7-0.6-1l1-0.6
									c0.2,0.3,0.4,0.7,0.6,1L47,66.2z M45.8,64.1c-0.2-0.4-0.3-0.7-0.5-1.1l1.1-0.5c0.2,0.3,0.3,0.7,0.5,1L45.8,64.1z M44.9,62
									c-0.1-0.4-0.3-0.7-0.4-1.1l1.1-0.4c0.1,0.4,0.3,0.7,0.4,1.1L44.9,62z M44.1,59.7c-0.1-0.4-0.2-0.8-0.3-1.2l1.2-0.3
									c0.1,0.4,0.2,0.7,0.3,1.1L44.1,59.7z M43.6,57.4c-0.1-0.4-0.1-0.8-0.2-1.2l1.2-0.2c0.1,0.4,0.1,0.8,0.2,1.1L43.6,57.4z
									 M43.2,55c0-0.4-0.1-0.8-0.1-1.2l1.2-0.1c0,0.4,0.1,0.8,0.1,1.1L43.2,55z"/>
							</g>
						</g>
					</g>
					<g>
						<g>
							<g>
								<path class="st0" d="M43,52.6c0-0.2,0-0.4,0-0.6h1.2c0,0.2,0,0.4,0,0.6L43,52.6z"/>
							</g>
						</g>
					</g>
				</g>
				<g>
					<g>
						<g>
							<g>
								<path class="st0" d="M71,25.9c-0.2,0-0.4,0-0.6,0v-1.2c0.2,0,0.4,0,0.6,0L71,25.9z"/>
							</g>
						</g>
					</g>
					<g>
						<g>
							<g>
								<path class="st0" d="M96.5,50.3c0-0.4-0.1-0.8-0.1-1.1l1.2-0.1c0,0.4,0.1,0.8,0.1,1.2L96.5,50.3z M96.2,48
									c-0.1-0.4-0.1-0.8-0.2-1.1l1.2-0.2c0.1,0.4,0.1,0.8,0.2,1.2L96.2,48z M95.8,45.8c-0.1-0.4-0.2-0.7-0.3-1.1l1.1-0.3
									c0.1,0.4,0.2,0.8,0.3,1.2L95.8,45.8z M95.1,43.6c-0.1-0.4-0.3-0.7-0.4-1.1l1.1-0.4c0.1,0.4,0.3,0.7,0.4,1.1L95.1,43.6z
									 M94.3,41.5c-0.2-0.3-0.3-0.7-0.5-1l1.1-0.5c0.2,0.4,0.3,0.7,0.5,1.1L94.3,41.5z M93.3,39.5c-0.2-0.3-0.4-0.7-0.6-1l1-0.6
									c0.2,0.3,0.4,0.7,0.6,1L93.3,39.5z M92.1,37.5c-0.2-0.3-0.4-0.6-0.7-0.9l1-0.7c0.2,0.3,0.5,0.6,0.7,1L92.1,37.5z M90.8,35.7
									c-0.2-0.3-0.5-0.6-0.7-0.9l0.9-0.8c0.3,0.3,0.5,0.6,0.8,0.9L90.8,35.7z M89.3,34c-0.3-0.3-0.5-0.5-0.8-0.8l0.8-0.9
									c0.3,0.3,0.6,0.6,0.8,0.8L89.3,34z M87.6,32.4c-0.3-0.3-0.6-0.5-0.9-0.7l0.7-0.9c0.3,0.2,0.6,0.5,0.9,0.8L87.6,32.4z
									 M85.9,30.9c-0.3-0.2-0.6-0.4-0.9-0.7l0.7-1c0.3,0.2,0.7,0.5,1,0.7L85.9,30.9z M84,29.7c-0.3-0.2-0.7-0.4-1-0.6l0.6-1
									c0.3,0.2,0.7,0.4,1,0.6L84,29.7z M82,28.6c-0.3-0.2-0.7-0.3-1-0.5l0.5-1.1c0.4,0.2,0.7,0.3,1.1,0.5L82,28.6z M79.9,27.7
									c-0.4-0.1-0.7-0.3-1.1-0.4l0.4-1.1c0.4,0.1,0.8,0.3,1.1,0.4L79.9,27.7z M77.7,26.9c-0.4-0.1-0.7-0.2-1.1-0.3l0.3-1.2
									c0.4,0.1,0.8,0.2,1.2,0.3L77.7,26.9z M75.5,26.4c-0.4-0.1-0.7-0.1-1.1-0.2l0.2-1.2c0.4,0.1,0.8,0.1,1.2,0.2L75.5,26.4z
									 M73.2,26c-0.4,0-0.8-0.1-1.1-0.1l0.1-1.2c0.4,0,0.8,0.1,1.2,0.1L73.2,26z"/>
							</g>
						</g>
					</g>
					<g>
						<g>
							<g>
								<path class="st0" d="M97.7,52h-1.2c0-0.2,0-0.4,0-0.6l1.2,0C97.7,51.6,97.7,51.8,97.7,52z"/>
							</g>
						</g>
					</g>
				</g>
			</g>
		</g>
		<g>
			<g>
				<g>
					<path class="st0" d="M70.4,93.8c-23,0-41.8-18.8-41.8-41.8h1.2c0,22.4,18.2,40.6,40.6,40.6V93.8z"/>
				</g>
			</g>
			<g>
				<g>
					<path class="st0" d="M112.2,52H111c0-22.4-18.2-40.6-40.6-40.6v-1.2C93.4,10.2,112.2,29,112.2,52z"/>
				</g>
			</g>
		</g>
		<g>
			<g>
				<g>
					<g>
						<g>
							<path class="st0" d="M112.2,52.6l-1.2,0c0-0.2,0-0.4,0-0.6h1.2C112.2,52.2,112.2,52.4,112.2,52.6z"/>
						</g>
					</g>
				</g>
				<g>
					<g>
						<g>
							<path class="st0" d="M72.2,93.8l-0.1-1.2c0.4,0,0.8,0,1.2-0.1l0.1,1.2C73,93.8,72.6,93.8,72.2,93.8z M74.6,93.6l-0.1-1.2
								c0.4,0,0.8-0.1,1.2-0.1l0.2,1.2C75.4,93.5,75,93.6,74.6,93.6z M77.1,93.3l-0.2-1.2c0.4-0.1,0.8-0.1,1.2-0.2l0.2,1.2
								C77.9,93.2,77.5,93.2,77.1,93.3z M79.4,92.9l-0.3-1.2c0.4-0.1,0.8-0.2,1.1-0.3l0.3,1.2C80.2,92.7,79.8,92.8,79.4,92.9z
								 M81.8,92.3l-0.3-1.1c0.4-0.1,0.8-0.2,1.1-0.3l0.4,1.1C82.6,92,82.2,92.1,81.8,92.3z M84.1,91.5l-0.4-1.1
								c0.4-0.1,0.7-0.3,1.1-0.4l0.4,1.1C84.9,91.3,84.5,91.4,84.1,91.5z M86.4,90.7l-0.5-1.1c0.4-0.2,0.7-0.3,1.1-0.5l0.5,1.1
								C87.1,90.3,86.8,90.5,86.4,90.7z M88.6,89.7l-0.5-1.1c0.4-0.2,0.7-0.3,1.1-0.5l0.6,1.1C89.3,89.3,89,89.5,88.6,89.7z
								 M90.7,88.5l-0.6-1c0.3-0.2,0.7-0.4,1-0.6l0.6,1C91.4,88.1,91.1,88.4,90.7,88.5z M92.8,87.3l-0.6-1c0.3-0.2,0.7-0.4,1-0.6
								l0.7,1C93.5,86.9,93.2,87.1,92.8,87.3z M94.8,85.9l-0.7-1c0.3-0.2,0.6-0.5,0.9-0.7l0.7,0.9C95.5,85.5,95.2,85.7,94.8,85.9z
								 M96.8,84.5L96,83.5c0.3-0.2,0.6-0.5,0.9-0.8l0.8,0.9C97.4,83.9,97.1,84.2,96.8,84.5z M98.6,82.9L97.8,82
								c0.3-0.3,0.6-0.5,0.9-0.8l0.8,0.9C99.2,82.3,98.9,82.6,98.6,82.9z M100.3,81.2l-0.9-0.8c0.3-0.3,0.5-0.6,0.8-0.9l0.9,0.8
								C100.9,80.6,100.6,80.9,100.3,81.2z M102,79.4l-0.9-0.8c0.3-0.3,0.5-0.6,0.8-0.9l0.9,0.8C102.5,78.8,102.3,79.1,102,79.4z
								 M103.5,77.5l-0.9-0.7c0.2-0.3,0.5-0.6,0.7-0.9l1,0.7C104,76.9,103.8,77.2,103.5,77.5z M105,75.5l-1-0.7
								c0.2-0.3,0.4-0.7,0.7-1l1,0.6C105.4,74.9,105.2,75.2,105,75.5z M106.3,73.5l-1-0.6c0.2-0.3,0.4-0.7,0.6-1l1,0.6
								C106.7,72.8,106.5,73.1,106.3,73.5z M107.5,71.4l-1.1-0.6c0.2-0.3,0.4-0.7,0.5-1.1l1.1,0.5C107.8,70.6,107.6,71,107.5,71.4z
								 M108.5,69.2l-1.1-0.5c0.2-0.4,0.3-0.7,0.5-1.1L109,68C108.8,68.4,108.7,68.8,108.5,69.2z M109.5,66.9l-1.1-0.4
								c0.1-0.4,0.3-0.7,0.4-1.1l1.1,0.4C109.7,66.1,109.6,66.5,109.5,66.9z M110.3,64.6l-1.1-0.4c0.1-0.4,0.2-0.8,0.3-1.1l1.1,0.3
								C110.5,63.8,110.4,64.2,110.3,64.6z M110.9,62.3l-1.2-0.3c0.1-0.4,0.2-0.8,0.3-1.1l1.2,0.3C111.1,61.5,111,61.9,110.9,62.3z
								 M111.4,59.9l-1.2-0.2c0.1-0.4,0.1-0.8,0.2-1.2l1.2,0.2C111.6,59.1,111.5,59.5,111.4,59.9z M111.8,57.5l-1.2-0.2
								c0.1-0.4,0.1-0.8,0.1-1.2l1.2,0.1C111.9,56.7,111.9,57.1,111.8,57.5z M112.1,55.1l-1.2-0.1c0-0.4,0.1-0.8,0.1-1.2l1.2,0.1
								C112.1,54.3,112.1,54.7,112.1,55.1z"/>
						</g>
					</g>
				</g>
				<g>
					<g>
						<g>
							<path class="st0" d="M70.4,93.8v-1.2c0.2,0,0.4,0,0.6,0l0,1.2C70.8,93.8,70.6,93.8,70.4,93.8z"/>
						</g>
					</g>
				</g>
			</g>
			<g>
				<g>
					<g>
						<g>
							<path class="st0" d="M29.8,52h-1.2c0-0.2,0-0.4,0-0.6l1.2,0C29.8,51.6,29.8,51.8,29.8,52z"/>
						</g>
					</g>
				</g>
				<g>
					<g>
						<g>
							<path class="st0" d="M29.8,50.3l-1.2-0.1c0-0.4,0-0.8,0.1-1.2l1.2,0.1C29.8,49.5,29.8,49.9,29.8,50.3z M30,47.9l-1.2-0.1
								c0-0.4,0.1-0.8,0.1-1.2l1.2,0.2C30.1,47.1,30,47.5,30,47.9z M30.3,45.6l-1.2-0.2c0.1-0.4,0.1-0.8,0.2-1.2l1.2,0.2
								C30.4,44.8,30.3,45.2,30.3,45.6z M30.7,43.3L29.6,43c0.1-0.4,0.2-0.8,0.3-1.2l1.2,0.3C30.9,42.5,30.8,42.9,30.7,43.3z
								 M31.3,41l-1.1-0.3c0.1-0.4,0.2-0.8,0.3-1.2l1.1,0.4C31.5,40.2,31.4,40.6,31.3,41z M32,38.7l-1.1-0.4
								c0.1-0.4,0.3-0.8,0.4-1.1l1.1,0.4C32.3,38,32.1,38.3,32,38.7z M32.9,36.5L31.7,36c0.2-0.4,0.3-0.7,0.5-1.1l1.1,0.5
								C33.2,35.8,33,36.1,32.9,36.5z M33.8,34.3l-1.1-0.5c0.2-0.4,0.4-0.7,0.5-1.1l1.1,0.6C34.2,33.6,34,34,33.8,34.3z M34.9,32.2
								l-1-0.6c0.2-0.4,0.4-0.7,0.6-1.1l1,0.6C35.3,31.5,35.1,31.9,34.9,32.2z M36.1,30.2l-1-0.6c0.2-0.3,0.4-0.7,0.7-1l1,0.7
								C36.6,29.5,36.3,29.9,36.1,30.2z M37.5,28.3l-1-0.7c0.2-0.3,0.5-0.7,0.7-1l0.9,0.7C37.9,27.6,37.7,27.9,37.5,28.3z
								 M38.9,26.4L38,25.6c0.3-0.3,0.5-0.6,0.8-0.9l0.9,0.8C39.4,25.8,39.2,26.1,38.9,26.4z M40.5,24.6l-0.9-0.8
								c0.3-0.3,0.6-0.6,0.8-0.9l0.9,0.8C41,24,40.7,24.3,40.5,24.6z M42.1,22.9L41.3,22c0.3-0.3,0.6-0.6,0.9-0.8l0.8,0.9
								C42.7,22.4,42.4,22.6,42.1,22.9z M43.8,21.3l-0.8-0.9c0.3-0.3,0.6-0.5,0.9-0.8l0.8,0.9C44.4,20.8,44.1,21,43.8,21.3z
								 M45.7,19.8l-0.7-0.9c0.3-0.2,0.6-0.5,1-0.7l0.7,1C46.3,19.3,46,19.6,45.7,19.8z M47.6,18.4l-0.7-1c0.3-0.2,0.7-0.5,1-0.7
								l0.6,1C48.2,18,47.9,18.2,47.6,18.4z M49.6,17.2l-0.6-1c0.3-0.2,0.7-0.4,1.1-0.6l0.6,1C50.2,16.8,49.9,17,49.6,17.2z
								 M51.6,16L51.1,15c0.4-0.2,0.7-0.4,1.1-0.5l0.5,1.1C52.3,15.7,52,15.8,51.6,16z M53.7,15l-0.5-1.1c0.4-0.2,0.7-0.3,1.1-0.5
								l0.5,1.1C54.5,14.7,54.1,14.8,53.7,15z M55.9,14.1L55.5,13c0.4-0.1,0.8-0.3,1.1-0.4l0.4,1.1C56.7,13.8,56.3,13.9,55.9,14.1z
								 M58.2,13.3l-0.4-1.1c0.4-0.1,0.8-0.2,1.2-0.3l0.3,1.1C58.9,13.1,58.5,13.2,58.2,13.3z M60.4,12.7l-0.3-1.2
								c0.4-0.1,0.8-0.2,1.2-0.3l0.3,1.2C61.2,12.5,60.8,12.6,60.4,12.7z M62.7,12.2L62.5,11c0.4-0.1,0.8-0.1,1.2-0.2l0.2,1.2
								C63.5,12,63.1,12.1,62.7,12.2z M65.1,11.8l-0.2-1.2c0.4-0.1,0.8-0.1,1.2-0.1l0.1,1.2C65.8,11.7,65.5,11.7,65.1,11.8z
								 M67.4,11.5l-0.1-1.2c0.4,0,0.8-0.1,1.2-0.1l0.1,1.2C68.2,11.5,67.8,11.5,67.4,11.5z"/>
						</g>
					</g>
				</g>
				<g>
					<g>
						<g>
							<path class="st0" d="M69.8,11.4l0-1.2c0.2,0,0.4,0,0.6,0v1.2C70.2,11.4,70,11.4,69.8,11.4z"/>
						</g>
					</g>
				</g>
			</g>
		</g>
		<g>
			<g>
				<g>
					<path class="st0" d="M52.3,52h-1.2c0-10.6,8.6-19.2,19.2-19.2V34C60.4,34,52.3,42.1,52.3,52z"/>
				</g>
			</g>
			<g>
				<g>
					<path class="st0" d="M70.4,71.3v-1.2c10,0,18.1-8.1,18.1-18h1.2C89.6,62.6,81,71.3,70.4,71.3z"/>
				</g>
			</g>
		</g>
	</g>
	<g>
		<g>
			<g>
				<rect x="9.8" y="121.8" class="st1" width="121.2" height="10.3"/>
			</g>
		</g>
		<g>
			<g>
				<g>
					<path class="st1" d="M47.9,117.1c0.2-0.5,0.4-1.1,0.4-1.7c0-2.2-1.8-4-4-4c-1.3,0-2.4,0.6-3.1,1.5c-0.3-3-2.8-5.4-5.9-5.4
						c-3.3,0-5.9,2.7-5.9,5.9c0,0.5,0.1,0.9,0.2,1.4c-0.2,0-0.3-0.1-0.5-0.1c-1.2,0-2.2,0.9-2.3,2c-0.8-0.5-1.8-0.8-2.8-0.8
						c-2.8,0-5.1,2.3-5.1,5.1c0,2.8,2.3,5.1,5.1,5.1c0,0,0.1,0,0.1,0c0.6,2.8,3.1,5,6.1,5c3.2,0,5.9-2.5,6.1-5.6
						c0.7,0.4,1.6,0.6,2.4,0.6c1.8,0,3.4-0.9,4.3-2.3c0.7,1.8,2.5,3.1,4.6,3.1c2.7,0,5-2.2,5-5C52.5,119.4,50.5,117.2,47.9,117.1z"
						/>
				</g>
			</g>
			<g>
				<g>
					<circle class="st1" cx="18.7" cy="109.3" r="1.8"/>
				</g>
			</g>
			<g>
				<g>
					<circle class="st1" cx="23.5" cy="107.9" r="0.4"/>
				</g>
			</g>
			<g>
				<g>
					<circle class="st1" cx="27.8" cy="107.7" r="0.4"/>
				</g>
			</g>
			<g>
				<g>
					<path class="st1" d="M23.5,111.9c0,0.3,0.2,0.5,0.5,0.5c0.3,0,0.5-0.2,0.5-0.5c0-0.3-0.2-0.5-0.5-0.5
						C23.7,111.4,23.5,111.6,23.5,111.9z"/>
				</g>
			</g>
			<g>
				<g>
					<path class="st1" d="M25.9,103.6c1.1,0,1.9-0.9,1.9-1.9c0-1.1-0.9-1.9-1.9-1.9s-1.9,0.9-1.9,1.9
						C24,102.8,24.8,103.6,25.9,103.6z"/>
				</g>
			</g>
			<g>
				<g>
					<path class="st1" d="M42.7,107.5c0.9,0,1.6-0.7,1.6-1.6c0-0.9-0.7-1.6-1.6-1.6c-0.9,0-1.6,0.7-1.6,1.6
						C41.2,106.8,41.9,107.5,42.7,107.5z"/>
				</g>
			</g>
			<g>
				<g>
					<path class="st1" d="M47.3,107.9c0.5,0,1-0.4,1-1c0-0.5-0.4-1-1-1c-0.5,0-1,0.4-1,1C46.3,107.4,46.8,107.9,47.3,107.9z"/>
				</g>
			</g>
			<g>
				<g>
					<circle class="st1" cx="19.6" cy="102.4" r="2.6"/>
				</g>
			</g>
			<g>
				<g>
					<path class="st1" d="M116.9,115.9c-1,0-2,0.3-2.8,0.8c-0.1-1.1-1.1-2-2.3-2c-0.2,0-0.3,0-0.5,0.1c0.1-0.4,0.2-0.9,0.2-1.4
						c0-3.3-2.7-5.9-5.9-5.9c-3.1,0-5.7,2.4-5.9,5.4c-0.7-0.9-1.9-1.5-3.1-1.5c-2.2,0-4,1.8-4,4c0,0.6,0.1,1.2,0.4,1.7
						c-2.6,0.2-4.6,2.3-4.6,4.9c0,2.7,2.2,5,5,5c2.1,0,3.8-1.3,4.6-3.1c0.9,1.4,2.5,2.3,4.3,2.3c0.9,0,1.7-0.2,2.4-0.6
						c0.3,3.1,2.9,5.6,6.1,5.6c3,0,5.5-2.2,6.1-5c0,0,0.1,0,0.1,0c2.8,0,5.1-2.3,5.1-5.1C122,118.2,119.7,115.9,116.9,115.9z"/>
				</g>
			</g>
			<g>
				<g>
					<circle class="st1" cx="122" cy="109.3" r="1.8"/>
				</g>
			</g>
			<g>
				<g>
					<circle class="st1" cx="117.3" cy="107.9" r="0.4"/>
				</g>
			</g>
			<g>
				<g>
					<circle class="st1" cx="112.9" cy="107.7" r="0.4"/>
				</g>
			</g>
			<g>
				<g>
					<path class="st1" d="M116.3,111.9c0,0.3,0.2,0.5,0.5,0.5c0.3,0,0.5-0.2,0.5-0.5c0-0.3-0.2-0.5-0.5-0.5
						C116.5,111.4,116.3,111.6,116.3,111.9z"/>
				</g>
			</g>
			<g>
				<g>
					<path class="st1" d="M114.9,103.6c1.1,0,1.9-0.9,1.9-1.9c0-1.1-0.9-1.9-1.9-1.9c-1.1,0-1.9,0.9-1.9,1.9
						C112.9,102.8,113.8,103.6,114.9,103.6z"/>
				</g>
			</g>
			<g>
				<g>
					<path class="st1" d="M98,107.5c0.9,0,1.6-0.7,1.6-1.6c0-0.9-0.7-1.6-1.6-1.6c-0.9,0-1.6,0.7-1.6,1.6
						C96.5,106.8,97.2,107.5,98,107.5z"/>
				</g>
			</g>
			<g>
				<g>
					<path class="st1" d="M93.4,107.9c0.5,0,1-0.4,1-1c0-0.5-0.4-1-1-1c-0.5,0-1,0.4-1,1C92.5,107.4,92.9,107.9,93.4,107.9z"/>
				</g>
			</g>
			<g>
				<g>
					<circle class="st1" cx="121.2" cy="102.4" r="2.6"/>
				</g>
			</g>
		</g>
		<g>
			<g>
				<g>
					<path class="st1" d="M64.2,97.4v19.5c0,4.6-3.8,8.4-8.4,8.4l0,0c-4.6,0-8.4-3.8-8.4-8.4"/>
				</g>
			</g>
			<g>
				<g>
					<path class="st1" d="M47.4,117.1V114c0-2.3,1.9-4.2,4.2-4.2l0,0c2.3,0,4.2,1.9,4.2,4.2"/>
				</g>
			</g>
		</g>
		<g>
			<g>
				<g>
					<path class="st1" d="M76.5,97.4v19.5c0,4.6,3.8,8.4,8.4,8.4l0,0c4.6,0,8.4-3.8,8.4-8.4"/>
				</g>
			</g>
			<g>
				<g>
					<path class="st1" d="M93.3,117.1V114c0-2.3-1.9-4.2-4.2-4.2l0,0c-2.3,0-4.2,1.9-4.2,4.2"/>
				</g>
			</g>
		</g>
	</g>
	<g>
		<g>
			<path class="st2" d="M131,134.2H9.8c-0.7,0-1.2-0.5-1.2-1.2V59.6c0-3.3,2.7-6,6-6h111.6c3.3,0,6,2.7,6,6V133
				C132.2,133.6,131.6,134.2,131,134.2z M11,131.8h118.8V59.6c0-2-1.6-3.6-3.6-3.6H14.6c-2,0-3.6,1.6-3.6,3.6V131.8z"/>
		</g>
	</g>
	<g>
		<g>
			<path class="st3" d="M1.2,133v9.1c0,2.6,2.1,4.8,4.8,4.8h128.8c2.6,0,4.8-2.1,4.8-4.8V133H1.2z"/>
		</g>
	</g>
	<g>
		<g>
			<path class="st4" d="M51,133.3v1c0,2.6,2.1,4.8,4.8,4.8H85c2.6,0,4.8-2.1,4.8-4.8v-1H51z"/>
		</g>
	</g>
	<g>
		<g>
			<path class="st0" d="M51,133.3v1c0,2.6,2.1,4.8,4.8,4.8H85c2.6,0,4.8-2.1,4.8-4.8v-1H51z"/>
		</g>
	</g>
	<g>
		<g>
			<path class="st2" d="M85,139.6H55.7c-3,0-5.4-2.4-5.4-5.4v-1c0-0.3,0.3-0.6,0.6-0.6h38.8c0.3,0,0.6,0.3,0.6,0.6v1
				C90.4,137.2,88,139.6,85,139.6z M51.6,133.9v0.4c0,2.3,1.9,4.2,4.2,4.2H85c2.3,0,4.2-1.9,4.2-4.2v-0.4H51.6z"/>
		</g>
	</g>
	<g>
		<g>
			<path class="st2" d="M134.8,148H6c-3.3,0-6-2.7-6-6V133c0-0.7,0.5-1.2,1.2-1.2h138.4c0.7,0,1.2,0.5,1.2,1.2v9.1
				C140.7,145.3,138.1,148,134.8,148z M2.4,134.2v7.9c0,2,1.6,3.6,3.6,3.6h128.8c2,0,3.6-1.6,3.6-3.6v-7.9H2.4z"/>
		</g>
	</g>
	<g>
		<g>
			<path class="st1" d="M108.6,96.4c0-0.1,0-0.2,0-0.3V85.4v-4.5c0-1.8-1.5-3.3-3.3-3.3c-1.8,0-3.3,1.5-3.3,3.3v4.5v1.2l-18.4-3.7
				l-1.1,4.6l2.1-8.3H85c1.4-5.7,2.2-12,2.2-18.7c0-6.9-0.8-13.4-2.3-19.3v0c-0.1-0.6-0.3-1.2-0.5-1.8c0-0.1-0.1-0.2-0.1-0.3
				c-0.1-0.5-0.3-0.9-0.4-1.4c-0.1-0.2-0.1-0.3-0.2-0.5c-0.1-0.4-0.2-0.8-0.4-1.2c-0.1-0.2-0.1-0.3-0.2-0.5
				c-0.1-0.4-0.3-0.7-0.4-1.1c-0.1-0.2-0.1-0.3-0.2-0.5c-0.1-0.4-0.3-0.7-0.4-1.1c-0.1-0.1-0.1-0.3-0.2-0.4
				c-0.2-0.4-0.3-0.8-0.5-1.2c0-0.1-0.1-0.2-0.1-0.3c-0.2-0.5-0.4-0.9-0.6-1.4c0,0,0,0,0-0.1c-2.8-5.7-6.3-10.1-10.3-12.7
				c-3.7,2.4-6.9,6.3-9.6,11.3h0c0,0,0,0,0,0c-0.2,0.5-0.5,0.9-0.7,1.4c-0.1,0.1-0.1,0.2-0.2,0.3c-0.2,0.4-0.4,0.7-0.5,1.1
				c-0.1,0.2-0.1,0.3-0.2,0.5c-0.1,0.3-0.3,0.7-0.4,1c-0.1,0.2-0.1,0.4-0.2,0.5c-0.1,0.3-0.3,0.6-0.4,1c-0.1,0.2-0.1,0.4-0.2,0.6
				c-0.1,0.3-0.2,0.7-0.4,1c-0.1,0.2-0.1,0.4-0.2,0.6c-0.1,0.3-0.2,0.7-0.3,1c-0.1,0.2-0.1,0.4-0.2,0.6c-0.1,0.4-0.2,0.8-0.4,1.2
				c0,0.1-0.1,0.3-0.1,0.4c-0.2,0.6-0.3,1.2-0.5,1.7v0c-1.5,5.9-2.3,12.4-2.3,19.3c0,6.7,0.8,13,2.2,18.7h0.3l0.7,2.9l0.2,0.8
				l-18.4,3.7v-1.2v-4.5c0-1.8-1.5-3.3-3.3-3.3c-1.8,0-3.3,1.5-3.3,3.3v4.5v10.8c0,0.1,0,0.2,0,0.3h-1.7V99v2.6h9.9V99v-2.6h-1.7
				c0-0.1,0-0.2,0-0.3v-3.3H41h17.5h1l-2.2-8.8l2.8,11.2h2c0.3,3.8,3.5,6.7,7.3,6.7H70h0.8h0.6c3.9,0,7-3,7.3-6.7h2l0.6-2.4h1h17.5
				h2.3v3.3c0,0.1,0,0.2,0,0.3h-1.7v2.6v2.5h9.9v-2.5v-2.6H108.6z"/>
		</g>
	</g>
	<g>
		<g>
			<g>
				<line class="st5" x1="64.2" y1="118.9" x2="64.2" y2="129.9"/>
			</g>
		</g>
	</g>
	<g>
		<g>
			<g>
				<line class="st5" x1="76.5" y1="118.9" x2="76.5" y2="129.9"/>
			</g>
		</g>
	</g>
	<g>
		<g>
			<line class="st5" x1="70.4" y1="107.5" x2="70.4" y2="129.9"/>
		</g>
	</g>
	<g>
		<g>
			<line class="st5" x1="70.4" y1="99.8" x2="70.4" y2="101.8"/>
		</g>
	</g>
	<g>
		<g>
			<path class="st1" d="M78.7,89.7c0,4-3.3,7.3-7.3,7.3h-2c-4.1,0-7.3-3.3-7.3-7.3"/>
		</g>
	</g>
	<g>
		<g>
			<path class="st1" d="M73.6,89.7c0,4-1.3,7.3-2.8,7.3H70c-1.6,0-2.8-3.3-2.8-7.3"/>
		</g>
	</g>
	<g>
		<g>
			<path class="st1" d="M85,73.5c1.4-5.7,2.2-12,2.2-18.7c0-20.1-7-37.2-16.8-43.6c-9.8,6.4-16.8,23.5-16.8,43.6
				c0,6.7,0.8,13,2.2,18.7H85z"/>
		</g>
	</g>
	<g>
		<g>
			<path class="st1" d="M78,73.5c0.7-5.7,1.1-12,1.1-18.7c0-20.1-3.6-37.2-8.7-43.6c-5.1,6.4-8.7,23.5-8.7,43.6
				c0,6.7,0.4,13,1.1,18.7H78z"/>
		</g>
	</g>
	<g>
		<g>
			<path class="st1" d="M73.4,73.5c0.3-5.7,0.5-12,0.5-18.7c0-20.1-1.5-37.2-3.5-43.6c-2,6.4-3.5,23.5-3.5,43.6
				c0,6.7,0.2,13,0.5,18.7H73.4z"/>
		</g>
	</g>
	<g>
		<g>
			<path class="st1" d="M77.5,47.7c4,4,4,10.4,0,14.3c-4,4-10.4,4-14.3,0c-4-4-4-10.4,0-14.3C67.2,43.7,73.6,43.7,77.5,47.7z"/>
		</g>
	</g>
	<g>
		<g>
			<g>
				<line class="st5" x1="68.3" y1="78" x2="72.4" y2="78"/>
			</g>
		</g>
		<g>
			<g>
				<line class="st5" x1="68.3" y1="81.5" x2="72.4" y2="81.5"/>
			</g>
		</g>
		<g>
			<g>
				<line class="st5" x1="68.3" y1="85.1" x2="72.4" y2="85.1"/>
			</g>
		</g>
	</g>
	<g>
		<g>
			<path class="st1" d="M55.9,35.5h29c-1.2-4.9-2.9-9.2-4.9-13H60.8C58.8,26.3,57.1,30.7,55.9,35.5z"/>
		</g>
	</g>
	<g>
		<g>
			<path class="st1" d="M62.4,35.5h15.9c-0.7-4.9-1.6-9.2-2.7-13H65.1C64,26.3,63.1,30.7,62.4,35.5z"/>
		</g>
	</g>
	<g>
		<g>
			<path class="st2" d="M66.7,35.5h7.4c-0.3-4.9-0.7-9.2-1.2-13h-4.9C67.4,26.3,67,30.7,66.7,35.5z"/>
		</g>
	</g>
	<g>
		<g>
			<line class="st5" x1="70.4" y1="35.5" x2="70.4" y2="22.5"/>
		</g>
	</g>
	<g>
		<g>
			<line class="st5" x1="70.4" y1="60.9" x2="70.4" y2="73.5"/>
		</g>
	</g>
	<g>
		<g>
			<polygon class="st3" points="80.6,89.6 60.1,89.6 56.1,73.5 84.7,73.5 			"/>
		</g>
	</g>
	<g>
		<g>
			<polygon class="st1" points="76.6,89.6 64.2,89.6 61.7,73.5 79,73.5 			"/>
		</g>
	</g>
	<g>
		<g>
			<polygon class="st1" points="56.8,76.4 83.9,76.4 84.7,73.5 56.1,73.5 			"/>
		</g>
	</g>
	<g>
		<g>
			<polygon class="st1" points="78.6,76.4 79,73.5 61.7,73.5 62.2,76.4 			"/>
		</g>
	</g>
	<g>
		<g>
			<polygon class="st2" points="83.7,77.2 81.2,87.2 102.1,87.2 102.1,83.9 			"/>
		</g>
	</g>
	<g>
		<g>
			<polygon class="st2" points="57,77.2 38.6,83.9 38.6,87.2 59.5,87.2 			"/>
		</g>
	</g>
	<g>
		<g>
			<rect x="30.4" y="90.8" class="st6" width="9.9" height="5.1"/>
		</g>
	</g>
	<g>
		<g>
			<rect x="30.4" y="90.8" class="st1" width="9.9" height="2.6"/>
		</g>
	</g>
	<g>
		<g>
			<path class="st1" d="M38.6,90.8c0-0.1,0-0.2,0-0.3V75.2c0-1.8-1.5-3.3-3.3-3.3c-1.8,0-3.3,1.5-3.3,3.3v15.3c0,0.1,0,0.2,0,0.3
				H38.6z"/>
		</g>
	</g>
	<g>
		<g>
			<rect x="100.4" y="90.8" class="st6" width="9.9" height="5.1"/>
		</g>
	</g>
	<g>
		<g>
			<rect x="100.4" y="90.8" class="st1" width="9.9" height="2.6"/>
		</g>
	</g>
	<g>
		<g>
			<path class="st1" d="M108.6,90.8c0-0.1,0-0.2,0-0.3V75.2c0-1.8-1.5-3.3-3.3-3.3c-1.8,0-3.3,1.5-3.3,3.3v15.3c0,0.1,0,0.2,0,0.3
				H108.6z"/>
		</g>
	</g>
	<g>
		<g>
			<path class="st1" d="M35.4,76.4c-1.8,0-3.3,1.5-3.3,3.3v10.8c0,0.1,0,0.2,0,0.3h6.5c0-0.1,0-0.2,0-0.3V79.7
				C38.6,77.9,37.2,76.4,35.4,76.4z"/>
		</g>
	</g>
	<g>
		<g>
			<path class="st1" d="M105.4,76.4c-1.8,0-3.3,1.5-3.3,3.3v10.8c0,0.1,0,0.2,0,0.3h6.5c0-0.1,0-0.2,0-0.3V79.7
				C108.7,77.9,107.2,76.4,105.4,76.4z"/>
		</g>
	</g>
	<g>
		<g>
			<g>
				<g>
					<g>
						<g>
							<g>
								<path class="st1" d="M118.4,22l-15.7-4.2v-5.1l15.7-4.2V22z M103.9,16.9l13.3,3.5V10.1l-13.3,3.5V16.9z"/>
							</g>
						</g>
						<g>
							<g>
								<path class="st1" d="M120.7,23l-3.5,0V7.6l3.5,0V23z M118.4,21.8l1.1,0V8.7l-1.1,0V21.8z"/>
							</g>
						</g>
						<g>
							<g>
								<rect x="102.7" y="12.2" class="st1" width="1.2" height="6.1"/>
							</g>
						</g>
					</g>
					<g>
						<g>
							<path class="st1" d="M107.9,21.8c-1.4,0-2.6-1.2-2.6-2.6v-1h1.2v1c0,0.8,0.6,1.4,1.4,1.4c0.8,0,1.4-0.6,1.4-1.4l1.2,0
								C110.5,20.7,109.3,21.8,107.9,21.8z"/>
						</g>
					</g>
				</g>
				<g>
					<g>
						<rect x="109.3" y="11.4" class="st1" width="1.2" height="5.4"/>
					</g>
				</g>
				<g>
					<g>
						<rect x="112.5" y="10.7" class="st1" width="1.2" height="6.8"/>
					</g>
				</g>
			</g>
			<g>
				<g>
					<g>
						<g>
							<g>
								<path class="st1" d="M22.3,22V8.6l15.7,4.2v5.1L22.3,22z M23.5,10.1v10.3l13.3-3.5v-3.3L23.5,10.1z"/>
							</g>
						</g>
						<g>
							<g>
								<path class="st1" d="M20.1,23V7.6l3.5,0V23L20.1,23z M21.3,8.7v13.1l1.1,0V8.7L21.3,8.7z"/>
							</g>
						</g>
						<g>
							<g>
								<rect x="36.9" y="12.2" class="st1" width="1.2" height="6.1"/>
							</g>
						</g>
					</g>
					<g>
						<g>
							<path class="st1" d="M32.9,21.8c-1.4,0-2.6-1.2-2.6-2.6l1.2,0c0,0.8,0.6,1.4,1.4,1.4c0.8,0,1.4-0.6,1.4-1.4v-1h1.2v1
								C35.5,20.7,34.3,21.8,32.9,21.8z"/>
						</g>
					</g>
				</g>
				<g>
					<g>
						<rect x="30.2" y="11.4" class="st1" width="1.2" height="5.4"/>
					</g>
				</g>
				<g>
					<g>
						<rect x="27.1" y="10.7" class="st1" width="1.2" height="6.8"/>
					</g>
				</g>
			</g>
		</g>
	</g>
	<g>
		<g>
			<g>
				<g>
					<g>
						<path class="st1" d="M23.4,52.5H8.3V24.5h15.1V52.5z M9.5,51.3h12.7V25.7H9.5V51.3z"/>
					</g>
				</g>
				<g>
					<g>
						<g>
							<path class="st1" d="M20.3,49.5h-5.6L14.7,49c-0.1-0.9-0.5-1.7-1.1-2.1c-0.5-0.3-1-0.4-1.5-0.3l-0.7,0.2v-4.5h1.2v3.1
								c0.6,0,1.2,0.2,1.8,0.5c0.7,0.5,1.3,1.4,1.5,2.4h3.3v-6h1.2V49.5z"/>
						</g>
					</g>
					<g>
						<g>
							<path class="st1" d="M20.3,34.6h-1.2v-2.5c-1.6-0.5-2.9-1.8-3.3-3.5h-3.3v6h-1.2v-7.2h5.6L17,28c0.2,1.6,1.4,2.8,2.9,3.1
								l0.5,0.1V34.6z"/>
						</g>
					</g>
				</g>
				<g>
					<g>
						<g>
							<path class="st1" d="M11.8,50.1c-0.6,0-1-0.5-1-1c0-0.6,0.5-1,1-1c0.6,0,1,0.5,1,1C12.9,49.6,12.4,50.1,11.8,50.1z
								 M11.8,48.9c-0.1,0-0.2,0.1-0.2,0.2c0,0.1,0.1,0.2,0.2,0.2c0.1,0,0.2-0.1,0.2-0.2C12,48.9,11.9,48.9,11.8,48.9z"/>
						</g>
					</g>
					<g>
						<g>
							<path class="st1" d="M19.8,29c-0.6,0-1-0.5-1-1c0-0.6,0.5-1,1-1c0.6,0,1,0.5,1,1C20.9,28.5,20.4,29,19.8,29z M19.8,27.8
								c-0.1,0-0.2,0.1-0.2,0.2s0.1,0.2,0.2,0.2c0.1,0,0.2-0.1,0.2-0.2S19.9,27.8,19.8,27.8z"/>
						</g>
					</g>
				</g>
				<g>
					<g>
						<g>
							<g>
								<path class="st1" d="M14.3,40.6h-0.6c-1.2,0-2.1-0.9-2.1-2.1c0-1.2,0.9-2.1,2.1-2.1v1.2c-0.5,0-0.9,0.4-0.9,0.9
									c0,0.5,0.4,0.9,0.9,0.9h0.6c0.5,0,0.9-0.4,0.9-0.9h1.2C16.4,39.6,15.5,40.6,14.3,40.6z"/>
							</g>
						</g>
						<g>
							<g>
								<path class="st1" d="M17.9,40.6v-1.2c0.5,0,0.9-0.4,0.9-0.9c0-0.5-0.4-0.9-0.9-0.9h-0.6c-0.5,0-0.9,0.4-0.9,0.9h-1.2
									c0-1.2,0.9-2.1,2.1-2.1h0.6c1.2,0,2.1,0.9,2.1,2.1C20,39.6,19.1,40.6,17.9,40.6z"/>
							</g>
						</g>
					</g>
					<g>
						<g>
							<g>
								<rect x="9.5" y="37.9" class="st1" width="2.6" height="1.2"/>
							</g>
						</g>
						<g>
							<g>
								<rect x="19.5" y="37.9" class="st1" width="2.6" height="1.2"/>
							</g>
						</g>
					</g>
				</g>
			</g>
			<g>
				<g>
					<g>
						<path class="st1" d="M132.5,52.5h-15.1V24.5h15.1V52.5z M118.6,51.3h12.7V25.7h-12.7V51.3z"/>
					</g>
				</g>
				<g>
					<g>
						<g>
							<path class="st1" d="M129.4,49.5h-5.6l-0.1-0.5c-0.1-0.9-0.5-1.7-1.1-2.1c-0.5-0.3-1-0.4-1.5-0.3l-0.7,0.2v-4.5h1.2v3.1
								c0.6,0,1.2,0.2,1.8,0.5c0.7,0.5,1.3,1.4,1.5,2.4h3.3v-6h1.2V49.5z"/>
						</g>
					</g>
					<g>
						<g>
							<path class="st1" d="M129.4,34.6h-1.2v-2.5c-1.6-0.5-2.9-1.8-3.3-3.5h-3.3v6h-1.2v-7.2h5.6L126,28c0.2,1.6,1.4,2.8,2.9,3.1
								l0.5,0.1V34.6z"/>
						</g>
					</g>
				</g>
				<g>
					<g>
						<g>
							<path class="st1" d="M120.9,50.1c-0.6,0-1-0.5-1-1c0-0.6,0.5-1,1-1c0.6,0,1,0.5,1,1C121.9,49.6,121.5,50.1,120.9,50.1z
								 M120.9,48.9c-0.1,0-0.2,0.1-0.2,0.2c0,0.1,0.1,0.2,0.2,0.2c0.1,0,0.2-0.1,0.2-0.2C121.1,48.9,121,48.9,120.9,48.9z"/>
						</g>
					</g>
					<g>
						<g>
							<path class="st1" d="M128.9,29c-0.6,0-1-0.5-1-1c0-0.6,0.5-1,1-1s1,0.5,1,1C130,28.5,129.5,29,128.9,29z M128.9,27.8
								c-0.1,0-0.2,0.1-0.2,0.2s0.1,0.2,0.2,0.2c0.1,0,0.2-0.1,0.2-0.2S129,27.8,128.9,27.8z"/>
						</g>
					</g>
				</g>
				<g>
					<g>
						<g>
							<g>
								<path class="st1" d="M123.4,40.6h-0.6c-1.2,0-2.1-0.9-2.1-2.1c0-1.2,0.9-2.1,2.1-2.1v1.2c-0.5,0-0.9,0.4-0.9,0.9
									c0,0.5,0.4,0.9,0.9,0.9h0.6c0.5,0,0.9-0.4,0.9-0.9h1.2C125.5,39.6,124.6,40.6,123.4,40.6z"/>
							</g>
						</g>
						<g>
							<g>
								<path class="st1" d="M127,40.6v-1.2c0.5,0,0.9-0.4,0.9-0.9c0-0.5-0.4-0.9-0.9-0.9h-0.6c-0.5,0-0.9,0.4-0.9,0.9h-1.2
									c0-1.2,0.9-2.1,2.1-2.1h0.6c1.2,0,2.1,0.9,2.1,2.1C129.1,39.6,128.1,40.6,127,40.6z"/>
							</g>
						</g>
					</g>
					<g>
						<g>
							<g>
								<rect x="118.6" y="37.9" class="st1" width="2.6" height="1.2"/>
							</g>
						</g>
						<g>
							<g>
								<rect x="128.6" y="37.9" class="st1" width="2.6" height="1.2"/>
							</g>
						</g>
					</g>
				</g>
			</g>
		</g>
	</g>
	<g>
		<g>
			<g>
				<g>
					<polygon class="st2" points="33.5,102.9 32.6,102 35.4,99.3 38.1,102 37.3,102.9 35.4,101 					"/>
				</g>
			</g>
			<g>
				<g>
					<rect x="34.8" y="100.2" class="st2" width="1.2" height="5.3"/>
				</g>
			</g>
			<g>
				<g>
					<rect x="34.8" y="106.7" class="st2" width="1.2" height="1.3"/>
				</g>
			</g>
			<g>
				<g>
					<rect x="34.8" y="108.7" class="st2" width="1.2" height="1.3"/>
				</g>
			</g>
			<g>
				<g>
					<rect x="34.8" y="110.8" class="st2" width="1.2" height="1.3"/>
				</g>
			</g>
			<g>
				<g>
					<rect x="34.8" y="113.1" class="st2" width="1.2" height="3.3"/>
				</g>
			</g>
		</g>
		<g>
			<g>
				<g>
					<polygon class="st2" points="33.5,124.1 32.6,123.2 35.4,120.5 38.1,123.2 37.3,124.1 35.4,122.2 					"/>
				</g>
			</g>
			<g>
				<g>
					<rect x="34.8" y="121.3" class="st2" width="1.2" height="5.3"/>
				</g>
			</g>
			<g>
				<g>
					<rect x="34.8" y="127.9" class="st2" width="1.2" height="1.3"/>
				</g>
			</g>
			<g>
				<g>
					<rect x="34.8" y="129.9" class="st2" width="1.2" height="1.3"/>
				</g>
			</g>
			<g>
				<g>
					<rect x="34.8" y="132" class="st2" width="1.2" height="1.3"/>
				</g>
			</g>
			<g>
				<g>
					<rect x="34.8" y="134.3" class="st2" width="1.2" height="10.1"/>
				</g>
			</g>
		</g>
		<g>
			<g>
				<g>
					<polygon class="st2" points="103.5,102.9 102.6,102 105.4,99.3 108.1,102 107.3,102.9 105.4,101 					"/>
				</g>
			</g>
			<g>
				<g>
					<rect x="104.8" y="100.2" class="st2" width="1.2" height="5.3"/>
				</g>
			</g>
			<g>
				<g>
					<rect x="104.8" y="106.7" class="st2" width="1.2" height="1.3"/>
				</g>
			</g>
			<g>
				<g>
					<rect x="104.8" y="108.7" class="st2" width="1.2" height="1.3"/>
				</g>
			</g>
			<g>
				<g>
					<rect x="104.8" y="110.8" class="st2" width="1.2" height="1.3"/>
				</g>
			</g>
			<g>
				<g>
					<rect x="104.8" y="113.1" class="st2" width="1.2" height="3.3"/>
				</g>
			</g>
		</g>
		<g>
			<g>
				<g>
					<polygon class="st2" points="103.5,124.1 102.6,123.2 105.4,120.5 108.1,123.2 107.3,124.1 105.4,122.2 					"/>
				</g>
			</g>
			<g>
				<g>
					<rect x="104.8" y="121.3" class="st2" width="1.2" height="5.3"/>
				</g>
			</g>
			<g>
				<g>
					<rect x="104.8" y="127.9" class="st2" width="1.2" height="1.3"/>
				</g>
			</g>
			<g>
				<g>
					<rect x="104.8" y="129.9" class="st2" width="1.2" height="1.3"/>
				</g>
			</g>
			<g>
				<g>
					<rect x="104.8" y="132" class="st2" width="1.2" height="1.3"/>
				</g>
			</g>
			<g>
				<g>
					<rect x="104.8" y="134.3" class="st2" width="1.2" height="10.1"/>
				</g>
			</g>
		</g>
	</g>
	<g>
		<g>
			<path class="st0" d="M70.4,7.7c-2.1,0-3.9-1.7-3.9-3.9S68.2,0,70.4,0c2.1,0,3.9,1.7,3.9,3.9S72.5,7.7,70.4,7.7z M70.4,1.2
				c-1.5,0-2.7,1.2-2.7,2.7c0,1.5,1.2,2.7,2.7,2.7c1.5,0,2.7-1.2,2.7-2.7C73,2.4,71.9,1.2,70.4,1.2z"/>
		</g>
	</g>
	<g>
		<g>
			<g>
				<g>
					<path class="st1" d="M120.8,70.2c-2.9,0-5.2-2.3-5.2-5.2s2.3-5.2,5.2-5.2c2.9,0,5.2,2.3,5.2,5.2S123.7,70.2,120.8,70.2z
						 M120.8,61c-2.2,0-4,1.8-4,4c0,2.2,1.8,4,4,4c2.2,0,4-1.8,4-4C124.8,62.8,123,61,120.8,61z"/>
				</g>
			</g>
			<g>
				<g>
					<g>
						<g>
							<path class="st1" d="M120.8,65.6c-0.3,0-0.6-0.3-0.6-0.6v-2.3c0-0.3,0.3-0.6,0.6-0.6c0.3,0,0.6,0.3,0.6,0.6V65
								C121.4,65.3,121.1,65.6,120.8,65.6z"/>
						</g>
					</g>
				</g>
				<g>
					<g>
						<g>
							<g>
								<path class="st1" d="M120.8,65.6c-0.3,0-0.6-0.3-0.6-0.6v-2.8c0-0.3,0.3-0.6,0.6-0.6c0.3,0,0.6,0.3,0.6,0.6V65
									C121.4,65.3,121.1,65.6,120.8,65.6z"/>
							</g>
						</g>
					</g>
					<g>
						<g>
							<g>
								<path class="st1" d="M120.8,67.3"/>
							</g>
						</g>
						<g>
							<g>
								<path class="st1" d="M120.8,65"/>
							</g>
						</g>
					</g>
				</g>
				<g>
					<g>
						<g>
							<g>
								<path class="st1" d="M122.6,65.6h-1.8c-0.3,0-0.6-0.3-0.6-0.6c0-0.3,0.3-0.6,0.6-0.6h1.8c0.3,0,0.6,0.3,0.6,0.6
									C123.2,65.3,122.9,65.6,122.6,65.6z"/>
							</g>
						</g>
					</g>
				</g>
			</g>
			<g>
				<g>
					<path class="st1" d="M120.8,65.8c-0.5,0-0.8-0.4-0.8-0.8s0.4-0.8,0.8-0.8c0.5,0,0.8,0.4,0.8,0.8S121.3,65.8,120.8,65.8z
						 M120.8,64.6c-0.2,0-0.4,0.2-0.4,0.4c0,0.2,0.2,0.4,0.4,0.4c0.2,0,0.4-0.2,0.4-0.4C121.1,64.8,121,64.6,120.8,64.6z"/>
				</g>
			</g>
		</g>
		<g>
			<g>
				<g>
					<path class="st1" d="M20,70.2c-2.9,0-5.2-2.3-5.2-5.2s2.3-5.2,5.2-5.2s5.2,2.3,5.2,5.2S22.8,70.2,20,70.2z M20,61
						c-2.2,0-4,1.8-4,4c0,2.2,1.8,4,4,4s4-1.8,4-4C24,62.8,22.2,61,20,61z"/>
				</g>
			</g>
			<g>
				<g>
					<g>
						<g>
							<path class="st1" d="M20,65.6c-0.3,0-0.6-0.3-0.6-0.6v-2.3c0-0.3,0.3-0.6,0.6-0.6c0.3,0,0.6,0.3,0.6,0.6V65
								C20.6,65.3,20.3,65.6,20,65.6z"/>
						</g>
					</g>
				</g>
				<g>
					<g>
						<g>
							<g>
								<path class="st1" d="M20,65.6c-0.3,0-0.6-0.3-0.6-0.6v-2.8c0-0.3,0.3-0.6,0.6-0.6c0.3,0,0.6,0.3,0.6,0.6V65
									C20.6,65.3,20.3,65.6,20,65.6z"/>
							</g>
						</g>
					</g>
					<g>
						<g>
							<g>
								<path class="st1" d="M20,67.3"/>
							</g>
						</g>
						<g>
							<g>
								<path class="st1" d="M20,65"/>
							</g>
						</g>
					</g>
				</g>
				<g>
					<g>
						<g>
							<g>
								<path class="st1" d="M20,65.6h-1.8c-0.3,0-0.6-0.3-0.6-0.6c0-0.3,0.3-0.6,0.6-0.6H20c0.3,0,0.6,0.3,0.6,0.6
									C20.6,65.3,20.3,65.6,20,65.6z"/>
							</g>
						</g>
					</g>
				</g>
			</g>
			<g>
				<g>
					<path class="st1" d="M20,65.8c-0.5,0-0.8-0.4-0.8-0.8s0.4-0.8,0.8-0.8c0.5,0,0.8,0.4,0.8,0.8S20.4,65.8,20,65.8z M20,64.6
						c-0.2,0-0.4,0.2-0.4,0.4c0,0.2,0.2,0.4,0.4,0.4c0.2,0,0.4-0.2,0.4-0.4C20.3,64.8,20.2,64.6,20,64.6z"/>
				</g>
			</g>
		</g>
	</g>
	<g>
		<g>
			<g>
				<g>
					<g>
						<g>
							<rect x="63.6" y="97.4" class="st7" width="1.2" height="0.6"/>
						</g>
					</g>
				</g>
				<g>
					<g>
						<g>
							<path class="st7" d="M55.3,125.9c-0.4,0-0.9-0.1-1.3-0.2l0.2-1.2c0.4,0.1,0.7,0.1,1.1,0.1L55.3,125.9z M56.6,125.9l-0.1-1.2
								c0.4,0,0.7-0.1,1.1-0.2l0.3,1.2C57.4,125.8,57,125.9,56.6,125.9z M52.8,125.4c-0.4-0.1-0.8-0.3-1.2-0.5l0.6-1.1
								c0.3,0.2,0.7,0.3,1,0.5L52.8,125.4z M59.1,125.3l-0.4-1.1c0.3-0.1,0.7-0.3,1-0.5l0.6,1C59.9,125,59.5,125.2,59.1,125.3z
								 M50.5,124.2c-0.3-0.3-0.7-0.5-1-0.8l0.8-0.8c0.3,0.3,0.6,0.5,0.9,0.7L50.5,124.2z M61.3,124l-0.7-0.9
								c0.3-0.2,0.6-0.5,0.8-0.7l0.9,0.8C62,123.5,61.7,123.8,61.3,124z M48.6,122.4c-0.3-0.3-0.5-0.7-0.7-1.1l1-0.6
								c0.2,0.3,0.4,0.6,0.6,0.9L48.6,122.4z M63.1,122.2l-1-0.7c0.2-0.3,0.4-0.6,0.6-1l1.1,0.6C63.6,121.5,63.4,121.8,63.1,122.2z
								 M47.4,120.1c-0.2-0.4-0.3-0.8-0.4-1.2l1.2-0.3c0.1,0.4,0.2,0.7,0.3,1.1L47.4,120.1z M64.3,119.9l-1.1-0.4
								c0.1-0.4,0.2-0.7,0.3-1.1l1.2,0.2C64.6,119.1,64.5,119.5,64.3,119.9z M64.8,117.4l-1.2-0.1c0-0.1,0-0.2,0-0.4v-0.8h1.2v0.8
								C64.8,117.1,64.8,117.2,64.8,117.4z M64.8,114.9h-1.2v-1.2h1.2V114.9z M64.8,112.5h-1.2v-1.2h1.2V112.5z M64.8,110.1h-1.2
								v-1.2h1.2V110.1z M64.8,107.7h-1.2v-1.2h1.2V107.7z M64.8,105.3h-1.2V104h1.2V105.3z M64.8,102.8h-1.2v-1.2h1.2V102.8z
								 M64.8,100.4h-1.2v-1.2h1.2V100.4z"/>
						</g>
					</g>
				</g>
				<g>
					<g>
						<g>
							<path class="st7" d="M46.8,117.6c0-0.2,0-0.4,0-0.6H48c0,0.2,0,0.4,0,0.6L46.8,117.6z"/>
						</g>
					</g>
				</g>
			</g>
			<g>
				<g>
					<g>
						<g>
							<rect x="46.8" y="116.5" class="st7" width="1.2" height="0.6"/>
						</g>
					</g>
				</g>
				<g>
					<g>
						<g>
							<path class="st7" d="M48,115.4h-1.2v-1.2H48V115.4z M48.1,113.2l-1.2-0.3c0.1-0.4,0.3-0.9,0.5-1.2l1,0.6
								C48.3,112.5,48.2,112.9,48.1,113.2z M54.9,112.5c-0.1-0.3-0.3-0.6-0.5-0.8l0.9-0.8c0.3,0.3,0.5,0.7,0.7,1.1L54.9,112.5z
								 M49,111.4l-0.9-0.8c0.3-0.3,0.7-0.6,1.1-0.8l0.6,1C49.5,111,49.3,111.2,49,111.4z M53.6,111c-0.3-0.2-0.6-0.3-0.9-0.4
								l0.4-1.1c0.4,0.1,0.8,0.3,1.2,0.6L53.6,111z M50.8,110.5l-0.3-1.2c0.4-0.1,0.9-0.2,1.3-0.1l0,1.2
								C51.4,110.3,51.1,110.4,50.8,110.5z"/>
						</g>
					</g>
				</g>
				<g>
					<g>
						<g>
							<path class="st7" d="M56.4,114h-1.2c0-0.2,0-0.3,0-0.5l1.2-0.2C56.4,113.5,56.4,113.7,56.4,114z"/>
						</g>
					</g>
				</g>
			</g>
		</g>
		<g>
			<g>
				<g>
					<g>
						<g>
							<rect x="63.6" y="118.9" class="st7" width="1.2" height="0.6"/>
						</g>
					</g>
				</g>
				<g>
					<g>
						<g>
							<path class="st7" d="M64.8,128.2h-1.2v-1.1h1.2V128.2z M64.8,126h-1.2v-1.1h1.2V126z M64.8,123.8h-1.2v-1.1h1.2V123.8z
								 M64.8,121.6h-1.2v-1.1h1.2V121.6z"/>
						</g>
					</g>
				</g>
				<g>
					<g>
						<g>
							<rect x="63.6" y="129.3" class="st7" width="1.2" height="0.6"/>
						</g>
					</g>
				</g>
			</g>
		</g>
		<g>
			<g>
				<g>
					<g>
						<g>
							<rect x="75.9" y="97.4" class="st7" width="1.2" height="0.6"/>
						</g>
					</g>
				</g>
				<g>
					<g>
						<g>
							<path class="st7" d="M85.5,125.9l-0.1-1.2c0.4,0,0.7-0.1,1.1-0.1l0.2,1.2C86.3,125.8,85.9,125.9,85.5,125.9z M84.2,125.9
								c-0.4,0-0.9-0.1-1.3-0.2l0.3-1.2c0.4,0.1,0.7,0.1,1.1,0.2L84.2,125.9z M88,125.4l-0.4-1.1c0.3-0.1,0.7-0.3,1-0.5l0.6,1.1
								C88.8,125.1,88.4,125.2,88,125.4z M81.7,125.3c-0.4-0.2-0.8-0.3-1.2-0.6l0.6-1c0.3,0.2,0.7,0.3,1,0.5L81.7,125.3z
								 M90.3,124.2l-0.7-1c0.3-0.2,0.6-0.5,0.9-0.7l0.8,0.8C90.9,123.6,90.6,123.9,90.3,124.2z M79.4,124c-0.3-0.3-0.7-0.6-1-0.9
								l0.9-0.8c0.3,0.3,0.5,0.5,0.8,0.7L79.4,124z M92.1,122.4l-1-0.7c0.2-0.3,0.4-0.6,0.6-0.9l1,0.6
								C92.6,121.7,92.4,122,92.1,122.4z M77.6,122.2c-0.3-0.3-0.5-0.7-0.7-1.1l1.1-0.6c0.2,0.3,0.4,0.7,0.6,1L77.6,122.2z
								 M93.3,120.1l-1.1-0.4c0.1-0.3,0.2-0.7,0.3-1.1l1.2,0.3C93.6,119.3,93.5,119.7,93.3,120.1z M76.4,119.9
								c-0.1-0.4-0.3-0.8-0.3-1.2l1.2-0.2c0.1,0.4,0.2,0.7,0.3,1.1L76.4,119.9z M75.9,117.4c0-0.1,0-0.3,0-0.4v-0.8h1.2v0.8
								c0,0.1,0,0.2,0,0.4L75.9,117.4z M77.1,114.9h-1.2v-1.2h1.2V114.9z M77.1,112.5h-1.2v-1.2h1.2V112.5z M77.1,110.1h-1.2v-1.2
								h1.2V110.1z M77.1,107.7h-1.2v-1.2h1.2V107.7z M77.1,105.3h-1.2V104h1.2V105.3z M77.1,102.8h-1.2v-1.2h1.2V102.8z
								 M77.1,100.4h-1.2v-1.2h1.2V100.4z"/>
						</g>
					</g>
				</g>
				<g>
					<g>
						<g>
							<path class="st7" d="M93.9,117.6l-1.2-0.1c0-0.2,0-0.4,0-0.6h1.2C93.9,117.1,93.9,117.4,93.9,117.6z"/>
						</g>
					</g>
				</g>
			</g>
			<g>
				<g>
					<g>
						<g>
							<rect x="92.7" y="116.5" class="st7" width="1.2" height="0.6"/>
						</g>
					</g>
				</g>
				<g>
					<g>
						<g>
							<path class="st7" d="M93.9,115.4h-1.2v-1.2h1.2V115.4z M92.6,113.2c-0.1-0.3-0.2-0.6-0.3-0.9l1-0.6c0.2,0.4,0.4,0.8,0.5,1.2
								L92.6,113.2z M85.8,112.5l-1.1-0.5c0.2-0.4,0.4-0.8,0.7-1.1l0.9,0.8C86.2,111.9,86,112.2,85.8,112.5z M91.7,111.4
								c-0.2-0.2-0.5-0.4-0.8-0.6l0.6-1c0.4,0.2,0.7,0.5,1.1,0.8L91.7,111.4z M87.1,111l-0.7-1c0.4-0.3,0.8-0.4,1.2-0.6l0.4,1.1
								C87.7,110.6,87.4,110.8,87.1,111z M90,110.5c-0.3-0.1-0.7-0.1-1-0.1l0-1.2c0.4,0,0.9,0,1.3,0.1L90,110.5z"/>
						</g>
					</g>
				</g>
				<g>
					<g>
						<g>
							<path class="st7" d="M85.5,114h-1.2c0-0.2,0-0.5,0-0.7l1.2,0.2C85.5,113.6,85.5,113.8,85.5,114z"/>
						</g>
					</g>
				</g>
			</g>
		</g>
		<g>
			<g>
				<g>
					<g>
						<g>
							<rect x="75.9" y="118.9" class="st7" width="1.2" height="0.6"/>
						</g>
					</g>
				</g>
				<g>
					<g>
						<g>
							<path class="st7" d="M77.1,128.2h-1.2v-1.1h1.2V128.2z M77.1,126h-1.2v-1.1h1.2V126z M77.1,123.8h-1.2v-1.1h1.2V123.8z
								 M77.1,121.6h-1.2v-1.1h1.2V121.6z"/>
						</g>
					</g>
				</g>
				<g>
					<g>
						<g>
							<rect x="75.9" y="129.3" class="st7" width="1.2" height="0.6"/>
						</g>
					</g>
				</g>
			</g>
		</g>
		<g>
			<g>
				<g>
					<g>
						<rect x="69.8" y="107.5" class="st7" width="1.2" height="0.6"/>
					</g>
				</g>
			</g>
			<g>
				<g>
					<g>
						<path class="st7" d="M71,128.1h-1.2v-1.2H71V128.1z M71,125.6h-1.2v-1.3H71V125.6z M71,123.1h-1.2v-1.2H71V123.1z M71,120.6
							h-1.2v-1.2H71V120.6z M71,118.1h-1.2v-1.2H71V118.1z M71,115.6h-1.2v-1.3H71V115.6z M71,113.1h-1.2v-1.2H71V113.1z M71,110.6
							h-1.2v-1.2H71V110.6z"/>
					</g>
				</g>
			</g>
			<g>
				<g>
					<g>
						<rect x="69.8" y="129.3" class="st7" width="1.2" height="0.6"/>
					</g>
				</g>
			</g>
		</g>
		<g>
			<g>
				<g>
					<path class="st7" d="M71,103.6h-1.2v-1.2H71V103.6z M71,101.2h-1.2V100H71V101.2z"/>
				</g>
			</g>
		</g>
	</g>
	<g>
		<g>
			<path class="st4" d="M77.5,44.9c4,4,4,10.4,0,14.3c-4,4-10.4,4-14.3,0c-4-4-4-10.4,0-14.3C67.2,40.9,73.6,40.9,77.5,44.9z"/>
		</g>
	</g>
	<g>
		<g>
			<path class="st2" d="M70.4,63.1c-2.8,0-5.7-1.1-7.8-3.2c-4.3-4.3-4.3-11.3,0-15.6c2.1-2.1,4.9-3.2,7.8-3.2c2.9,0,5.7,1.1,7.8,3.2
				h0c4.3,4.3,4.3,11.3,0,15.6C76,62,73.2,63.1,70.4,63.1z M70.4,42.8c-2.5,0-4.8,1-6.5,2.7c-3.6,3.6-3.6,9.5,0,13.1
				c3.6,3.6,9.5,3.6,13.1,0c3.6-3.6,3.6-9.5,0-13.1c0,0,0,0,0,0C75.2,43.8,72.8,42.8,70.4,42.8z"/>
		</g>
	</g>
	<g>
		<g>
			<g>
				<g>
					<path class="st2" d="M70.4,53.2c-1.6,0-2.9-1.3-2.9-2.9v-0.6c0-1.6,1.3-2.9,2.9-2.9c1.6,0,2.9,1.3,2.9,2.9h-2.4
						c0-0.3-0.2-0.5-0.5-0.5c-0.3,0-0.5,0.2-0.5,0.5v0.6c0,0.3,0.2,0.5,0.5,0.5V53.2z"/>
				</g>
			</g>
			<g>
				<g>
					<path class="st2" d="M70.4,57.3c-1.6,0-2.9-1.3-2.9-2.9h2.4c0,0.3,0.2,0.5,0.5,0.5c0.3,0,0.5-0.2,0.5-0.5v-0.6
						c0-0.3-0.2-0.5-0.5-0.5v-2.4c1.6,0,2.9,1.3,2.9,2.9v0.6C73.3,56,72,57.3,70.4,57.3z"/>
				</g>
			</g>
		</g>
		<g>
			<g>
				<g>
					<rect x="69.2" y="45.8" class="st2" width="2.4" height="3.2"/>
				</g>
			</g>
			<g>
				<g>
					<rect x="69.2" y="55" class="st2" width="2.4" height="3.2"/>
				</g>
			</g>
		</g>
	</g>
	<g>
		<g>
			<g>
				<g>
					<g>
						<path class="st2" d="M71.4,98h-2c-4.5,0-8.2-3.7-8.2-8.2c0-0.5,0.4-0.9,0.9-0.9c0.5,0,0.9,0.4,0.9,0.9c0,3.6,2.9,6.4,6.4,6.4
							h2c3.6,0,6.4-2.9,6.4-6.4c0-0.5,0.4-0.9,0.9-0.9c0.5,0,0.9,0.4,0.9,0.9C79.6,94.3,75.9,98,71.4,98z"/>
					</g>
				</g>
			</g>
			<g>
				<g>
					<g>
						<path class="st2" d="M70.8,98H70c-2.4,0-3.7-4.1-3.7-8.2c0-0.5,0.4-0.9,0.9-0.9c0.5,0,0.9,0.4,0.9,0.9c0,4.2,1.4,6.4,1.9,6.4
							h0.8c0.6,0,1.9-2.2,1.9-6.4c0-0.5,0.4-0.9,0.9-0.9s0.9,0.4,0.9,0.9C74.5,93.8,73.2,98,70.8,98z"/>
					</g>
				</g>
			</g>
			<g>
				<g>
					<g>
						<path class="st2" d="M85,74.4H55.7c-0.4,0-0.8-0.3-0.9-0.7c-1.4-6-2.2-12.3-2.2-18.9c0-19.8,6.9-37.6,17.2-44.3
							c0.3-0.2,0.7-0.2,1,0C81.1,17.2,88,35,88,54.8c0,6.6-0.7,12.9-2.2,18.9C85.8,74.1,85.4,74.4,85,74.4z M56.5,72.6h27.8
							c1.3-5.6,2-11.6,2-17.8c0-18.9-6.4-35.8-15.9-42.5C60.9,19,54.5,35.9,54.5,54.8C54.5,61,55.2,66.9,56.5,72.6z"/>
					</g>
				</g>
			</g>
			<g>
				<g>
					<g>
						<g>
							<path class="st2" d="M72.4,78.9h-4.1c-0.5,0-0.9-0.4-0.9-0.9c0-0.5,0.4-0.9,0.9-0.9h4.1c0.5,0,0.9,0.4,0.9,0.9
								C73.3,78.5,72.9,78.9,72.4,78.9z"/>
						</g>
					</g>
				</g>
				<g>
					<g>
						<g>
							<path class="st2" d="M72.4,82.4h-4.1c-0.5,0-0.9-0.4-0.9-0.9c0-0.5,0.4-0.9,0.9-0.9h4.1c0.5,0,0.9,0.4,0.9,0.9
								C73.3,82,72.9,82.4,72.4,82.4z"/>
						</g>
					</g>
				</g>
				<g>
					<g>
						<g>
							<path class="st2" d="M72.4,86h-4.1c-0.5,0-0.9-0.4-0.9-0.9c0-0.5,0.4-0.9,0.9-0.9h4.1c0.5,0,0.9,0.4,0.9,0.9
								C73.3,85.6,72.9,86,72.4,86z"/>
						</g>
					</g>
				</g>
			</g>
			<g>
				<g>
					<g>
						<path class="st2" d="M84.9,36.4h-29c-0.3,0-0.5-0.1-0.7-0.3C55,35.8,55,35.6,55,35.3c1.2-4.9,2.9-9.3,5-13.2
							c0.2-0.3,0.5-0.5,0.8-0.5H80c0.3,0,0.6,0.2,0.8,0.5c2.1,3.9,3.7,8.3,5,13.2c0.1,0.3,0,0.6-0.2,0.8
							C85.4,36.3,85.1,36.4,84.9,36.4z M57,34.6h26.7c-1.1-4.1-2.5-7.9-4.3-11.2H61.3C59.6,26.7,58.2,30.5,57,34.6z"/>
					</g>
				</g>
			</g>
			<g>
				<g>
					<g>
						<path class="st2" d="M78.3,36.4H62.4c-0.3,0-0.5-0.1-0.7-0.3c-0.2-0.2-0.2-0.5-0.2-0.7c0.7-4.9,1.6-9.3,2.7-13.2
							c0.1-0.4,0.5-0.6,0.9-0.6h10.5c0.4,0,0.7,0.3,0.9,0.6c1.1,3.9,2.1,8.3,2.7,13.2c0,0.3,0,0.5-0.2,0.7
							C78.8,36.3,78.6,36.4,78.3,36.4z M63.4,34.6h13.9c-0.6-4.1-1.4-7.9-2.3-11.2h-9.2C64.8,26.7,64.1,30.5,63.4,34.6z"/>
					</g>
				</g>
			</g>
			<g>
				<g>
					<g>
						<path class="st2" d="M70.4,36.4c-0.5,0-0.9-0.4-0.9-0.9v-13c0-0.5,0.4-0.9,0.9-0.9c0.5,0,0.9,0.4,0.9,0.9v13
							C71.3,36,70.9,36.4,70.4,36.4z"/>
					</g>
				</g>
			</g>
			<g>
				<g>
					<g>
						<path class="st2" d="M70.4,74.4c-0.5,0-0.9-0.4-0.9-0.9V60.9c0-0.5,0.4-0.9,0.9-0.9c0.5,0,0.9,0.4,0.9,0.9v12.6
							C71.3,74,70.9,74.4,70.4,74.4z"/>
					</g>
				</g>
			</g>
			<g>
				<g>
					<g>
						<path class="st2" d="M80.6,90.5H60.1c-0.4,0-0.8-0.3-0.9-0.7l-4-16.1c-0.1-0.3,0-0.6,0.2-0.8c0.2-0.2,0.4-0.3,0.7-0.3h28.6
							c0.3,0,0.5,0.1,0.7,0.3c0.2,0.2,0.2,0.5,0.2,0.8l-4,16.1C81.4,90.2,81,90.5,80.6,90.5z M60.8,88.7h19.1l3.6-14.4H57.2
							L60.8,88.7z"/>
					</g>
				</g>
			</g>
			<g>
				<g>
					<g>
						<path class="st2" d="M102.1,88.1H81.2c-0.3,0-0.5-0.1-0.7-0.3c-0.2-0.2-0.2-0.5-0.2-0.8l2.5-10c0.1-0.2,0.2-0.5,0.4-0.6
							c0.2-0.1,0.5-0.1,0.7-0.1l18.4,6.7c0.4,0.1,0.6,0.5,0.6,0.8v3.3C103,87.7,102.6,88.1,102.1,88.1z M82.4,86.3h18.8v-1.8
							l-16.9-6.1L82.4,86.3z"/>
					</g>
				</g>
			</g>
			<g>
				<g>
					<g>
						<path class="st2" d="M59.5,88.1H38.6c-0.5,0-0.9-0.4-0.9-0.9v-3.3c0-0.4,0.2-0.7,0.6-0.8l18.4-6.7c0.2-0.1,0.5-0.1,0.7,0.1
							c0.2,0.1,0.4,0.3,0.4,0.6l2.5,10c0.1,0.3,0,0.6-0.2,0.8C60,88,59.8,88.1,59.5,88.1z M39.5,86.3h18.8l-2-7.9l-16.9,6.1V86.3z"
							/>
					</g>
				</g>
			</g>
		</g>
		<g>
			<g>
				<g>
					<g>
						<g>
							<path class="st2" d="M40.3,96.8h-9.9c-0.5,0-0.9-0.4-0.9-0.9v-5.1c0-0.5,0.4-0.9,0.9-0.9h9.9c0.5,0,0.9,0.4,0.9,0.9v5.1
								C41.2,96.4,40.8,96.8,40.3,96.8z M31.3,95h8.1v-3.3h-8.1V95z"/>
						</g>
					</g>
				</g>
				<g>
					<g>
						<g>
							<path class="st2" d="M38.6,91.7h-6.5c-0.5,0-0.8-0.4-0.9-0.8c0-0.1,0-0.3,0-0.4V75.2c0-2.3,1.9-4.2,4.2-4.2s4.2,1.9,4.2,4.2
								v15.3c0,0.1,0,0.3,0,0.4C39.5,91.3,39.1,91.7,38.6,91.7z M33,89.9h4.8V75.2c0-1.3-1.1-2.4-2.4-2.4S33,73.9,33,75.2V89.9z"/>
						</g>
					</g>
				</g>
			</g>
			<g>
				<g>
					<g>
						<g>
							<path class="st2" d="M110.3,96.8h-9.9c-0.5,0-0.9-0.4-0.9-0.9v-5.1c0-0.5,0.4-0.9,0.9-0.9h9.9c0.5,0,0.9,0.4,0.9,0.9v5.1
								C111.2,96.4,110.8,96.8,110.3,96.8z M101.3,95h8.1v-3.3h-8.1V95z"/>
						</g>
					</g>
				</g>
				<g>
					<g>
						<g>
							<path class="st2" d="M108.6,91.7h-6.5c-0.5,0-0.8-0.4-0.9-0.8c0-0.1,0-0.3,0-0.4V75.2c0-2.3,1.9-4.2,4.2-4.2s4.2,1.9,4.2,4.2
								v15.3c0,0.1,0,0.3,0,0.4C109.5,91.3,109.1,91.7,108.6,91.7z M103,89.9h4.8V75.2c0-1.3-1.1-2.4-2.4-2.4
								c-1.3,0-2.4,1.1-2.4,2.4V89.9z"/>
						</g>
					</g>
				</g>
			</g>
		</g>
	</g>
</g>
</svg>
