<?xml version="1.0" encoding="utf-8"?>
<!-- Generator: Adobe Illustrator 23.0.3, SVG Export Plug-In . SVG Version: 6.00 Build 0)  -->
<svg version="1.1" id="Capa_1" xmlns="http://www.w3.org/2000/svg" xmlns:xlink="http://www.w3.org/1999/xlink" x="0px" y="0px"
	 viewBox="0 0 47.6 50" style="enable-background:new 0 0 47.6 50;" xml:space="preserve">
<g>
	<path d="M26.3,48.6l-7.2-6.1l0,0l-5-4.3v-7c0-0.5-0.4-0.8-0.8-0.8c-0.5,0-0.8,0.4-0.8,0.8v7L0.3,48.7C0,49-0.1,49.5,0.2,49.9
		C0.5,50.2,1,50.3,1.4,50l6.7-5.8l4.4,2.3v2.8c0,0.5,0.4,0.8,0.8,0.8s0.8-0.4,0.8-0.8v-2.8l4.4-2.3l6.7,5.8c0.2,0.1,0.3,0.2,0.5,0.2
		s0.5-0.1,0.6-0.3C26.7,49.4,26.7,48.9,26.3,48.6z M9.4,42.9l3.1-2.6v4.3L9.4,42.9z M14.1,44.5v-4.3l3.1,2.6L14.1,44.5z"/>
	<path d="M40.3,26.4L40.3,26.4c-0.5,0-0.8,0.4-0.8,0.8c0,1.8-0.5,3.3-1.5,4.3l0,0l0,0c-1.7,1.7-4.8,2-8.7,0.7
		c-4.1-1.4-8.4-4.2-12.3-8.1s-6.7-8.2-8.1-12.3c-1.3-3.9-1-7,0.7-8.7s4.8-2,8.7-0.7c4.1,1.4,8.4,4.2,12.3,8.1c3,3,5.4,6.4,7,9.7
		c0.2,0.4,0.7,0.6,1.1,0.4c0.4-0.2,0.6-0.7,0.4-1.1c-1.7-3.5-4.2-7-7.3-10.1c-4-4-8.6-7-12.9-8.5C14.4-0.6,10.7-0.2,8.5,2l0,0
		L7.7,2.8c-2.8,2.8-3.8,7-2.8,11.9c1,4.8,3.8,9.6,7.8,13.7c5.9,5.9,11.6,7.5,15.3,7.8c0.5,0,1.1,0.1,1.6,0.1c3.6,0,6.9-1.1,8.7-2.9
		l0.8-0.8l0,0c1.3-1.3,2-3.2,2-5.4C41.1,26.8,40.8,26.4,40.3,26.4z M28.2,34.6c-3.5-0.3-8.8-1.8-14.3-7.4c-6-6-8.7-13.6-7.4-19
		c0.1,1.3,0.4,2.7,0.9,4.1c1.4,4.3,4.4,8.9,8.5,12.9c4,4,8.6,7,12.9,8.5c1.1,0.4,2.1,0.6,3.1,0.8C30.7,34.7,29.5,34.7,28.2,34.6z"/>
	<path d="M47.4,15.5l-3.7-3.7c-0.3-0.3-0.8-0.3-1.2,0c-0.3,0.3-0.3,0.8,0,1.2l0.2,0.2L41,14.9c-0.3,0.3-0.3,0.8,0,1.2
		c0.2,0.2,0.4,0.2,0.6,0.2c0.2,0,0.4-0.1,0.6-0.2l1.7-1.7l1.7,1.7L34.1,27.6c-0.3,0.3-0.3,0.8,0,1.2c0.2,0.2,0.4,0.2,0.6,0.2
		s0.4-0.1,0.6-0.2l12.1-12.1c0.2-0.2,0.2-0.4,0.2-0.6C47.6,15.9,47.5,15.7,47.4,15.5z"/>
</g>
</svg>
