<?xml version="1.0" encoding="utf-8"?>
<!-- Generator: Adobe Illustrator 23.0.3, SVG Export Plug-In . SVG Version: 6.00 Build 0)  -->
<svg version="1.1" id="Capa_1" xmlns="http://www.w3.org/2000/svg" xmlns:xlink="http://www.w3.org/1999/xlink" x="0px" y="0px"
	 viewBox="0 0 50 50" style="enable-background:new 0 0 50 50;" xml:space="preserve">
<g>
	<path d="M8.1,4v4.8h1.6v-4h4V3.2H8.9C8.4,3.2,8.1,3.6,8.1,4z"/>
	<path d="M41.1,3.2h-4.8v1.6h4v4h1.6V4C41.9,3.6,41.6,3.2,41.1,3.2z"/>
	<path d="M40.3,21h-4v1.6h4.8c0.4,0,0.8-0.4,0.8-0.8V17h-1.6V21L40.3,21z"/>
	<path d="M9.7,16.9H8.1v4.8c0,0.4,0.4,0.8,0.8,0.8h4.8V21h-4C9.7,21,9.7,16.9,9.7,16.9z"/>
	<path d="M22.6,12.1h-6.5v-4h-1.6v9.7h1.6v-4h6.5v4h1.6V8.1h-1.6V12.1z"/>
	<path d="M30.6,8.1h-4c-0.4,0-0.8,0.4-0.8,0.8V17c0,0.4,0.4,0.8,0.8,0.8h4c2.7,0,4.8-2.2,4.8-4.8S33.3,8.1,30.6,8.1z M30.6,16.1
		h-3.2V9.6h3.2c1.8,0,3.2,1.4,3.2,3.2S32.4,16.1,30.6,16.1z"/>
	<path d="M21.8,27.4h6.5V29h-6.5V27.4z"/>
	<path d="M49.2,38.7h-9.7v-2.4c0-0.4-0.4-0.8-0.8-0.8H29v-3.2h13.7c1.3,0,2.4-1.1,2.4-2.4V2.5c0-1.3-1.1-2.4-2.4-2.4H7.2
		c-1.3,0-2.4,1.1-2.4,2.4v27.4c0,1.3,1.1,2.4,2.4,2.4h13.7v3.2h-9.7c-0.4,0-0.8,0.4-0.8,0.8v2.4H0.7c-0.4,0-0.8,0.4-0.8,0.8V50h1.6
		v-9.7h22.6V50h1.6v-9.7h22.6V50h1.6V39.5C50,39.1,49.6,38.7,49.2,38.7z M6.5,2.4c0-0.4,0.4-0.8,0.8-0.8h35.5c0.4,0,0.8,0.4,0.8,0.8
		v21.8H6.5V2.4z M6.5,29.8v-4h37.1v4c0,0.4-0.4,0.8-0.8,0.8H7.3C6.8,30.6,6.5,30.3,6.5,29.8z M22.6,32.3h4.8v3.2h-4.8
		C22.6,35.5,22.6,32.3,22.6,32.3z M12.1,38.7v-1.6h25.8v1.6H12.1z"/>
	<path d="M27.4,43.5H29v3.2h-1.6V43.5z"/>
	<path d="M21,43.5h1.6v3.2H21V43.5z"/>
</g>
</svg>
