<?xml version="1.0" encoding="utf-8"?>
<!-- Generator: Adobe Illustrator 23.0.3, SVG Export Plug-In . SVG Version: 6.00 Build 0)  -->
<svg version="1.1" id="Layer_1" xmlns="http://www.w3.org/2000/svg" xmlns:xlink="http://www.w3.org/1999/xlink" x="0px" y="0px"
	 viewBox="0 0 128 128" style="enable-background:new 0 0 128 128;" xml:space="preserve">
<style type="text/css">
	.st0{fill:#80C0FF;}
	.st1{fill:#45ABFF;}
	.st2{fill:#FFFFFF;}
	.st3{fill:#E9F6FF;}
	.st4{fill:#0C5ADB;}
</style>
<g>
	<g>
		<g>
			<g>
				<g>
					<path class="st0" d="M116.1,115.1V51.9c0-2.3-1.8-4.1-4.1-4.1H16c-2.3,0-4.1,1.8-4.1,4.1v63.1H116.1z"/>
				</g>
			</g>
		</g>
		<g>
			<g>
				<g>
					<rect x="11.9" y="105.4" class="st1" width="104.3" height="8.9"/>
				</g>
			</g>
		</g>
		<g>
			<g>
				<g>
					<g>
						<path class="st1" d="M44.7,101.4c0.2-0.4,0.3-0.9,0.3-1.5c0-1.9-1.5-3.4-3.4-3.4c-1.1,0-2.1,0.5-2.7,1.3
							c-0.2-2.6-2.4-4.7-5.1-4.7c-2.8,0-5.1,2.3-5.1,5.1c0,0.4,0.1,0.8,0.1,1.2c-0.1,0-0.3,0-0.4,0c-1,0-1.9,0.8-2,1.8
							c-0.7-0.5-1.5-0.7-2.4-0.7c-2.4,0-4.4,2-4.4,4.4c0,2.4,2,4.4,4.4,4.4c0,0,0.1,0,0.1,0c0.5,2.5,2.6,4.3,5.2,4.3
							c2.8,0,5-2.1,5.3-4.8c0.6,0.3,1.3,0.5,2.1,0.5c1.6,0,2.9-0.8,3.7-2c0.6,1.6,2.2,2.6,3.9,2.6c2.4,0,4.3-1.9,4.3-4.3
							C48.6,103.4,46.9,101.5,44.7,101.4z"/>
					</g>
				</g>
			</g>
			<g>
				<g>
					<g>
						<circle class="st1" cx="19.6" cy="94.7" r="1.5"/>
					</g>
				</g>
			</g>
			<g>
				<g>
					<g>
						<circle class="st1" cx="23.6" cy="93.5" r="0.4"/>
					</g>
				</g>
			</g>
			<g>
				<g>
					<g>
						<circle class="st1" cx="27.4" cy="93.3" r="0.4"/>
					</g>
				</g>
			</g>
			<g>
				<g>
					<g>
						<path class="st1" d="M23.6,96.9c0,0.2,0.2,0.4,0.4,0.4c0.2,0,0.4-0.2,0.4-0.4c0-0.2-0.2-0.4-0.4-0.4
							C23.8,96.5,23.6,96.7,23.6,96.9z"/>
					</g>
				</g>
			</g>
			<g>
				<g>
					<g>
						<path class="st1" d="M25.7,89.8c0.9,0,1.7-0.7,1.7-1.7c0-0.9-0.7-1.7-1.7-1.7c-0.9,0-1.7,0.7-1.7,1.7
							C24.1,89.1,24.8,89.8,25.7,89.8z"/>
					</g>
				</g>
			</g>
			<g>
				<g>
					<g>
						<path class="st1" d="M40.2,93.1c0.7,0,1.3-0.6,1.3-1.3c0-0.7-0.6-1.3-1.3-1.3c-0.7,0-1.3,0.6-1.3,1.3
							C38.9,92.5,39.5,93.1,40.2,93.1z"/>
					</g>
				</g>
			</g>
			<g>
				<g>
					<g>
						<path class="st1" d="M44.1,93.5c0.5,0,0.8-0.4,0.8-0.8c0-0.5-0.4-0.8-0.8-0.8c-0.5,0-0.8,0.4-0.8,0.8
							C43.3,93.1,43.7,93.5,44.1,93.5z"/>
					</g>
				</g>
			</g>
			<g>
				<g>
					<g>
						<circle class="st1" cx="20.3" cy="88.7" r="2.2"/>
					</g>
				</g>
			</g>
			<g>
				<g>
					<g>
						<path class="st1" d="M104,100.4c-0.9,0-1.7,0.3-2.4,0.7c-0.1-1-1-1.8-2-1.8c-0.1,0-0.3,0-0.4,0c0.1-0.4,0.1-0.8,0.1-1.2
							c0-2.8-2.3-5.1-5.1-5.1c-2.7,0-4.9,2.1-5.1,4.7c-0.6-0.8-1.6-1.3-2.7-1.3c-1.9,0-3.4,1.5-3.4,3.4c0,0.5,0.1,1,0.3,1.5
							c-2.2,0.2-3.9,2-3.9,4.2c0,2.4,1.9,4.3,4.3,4.3c1.8,0,3.3-1.1,3.9-2.6c0.8,1.2,2.2,2,3.7,2c0.8,0,1.5-0.2,2.1-0.5
							c0.2,2.7,2.5,4.8,5.3,4.8c2.6,0,4.7-1.9,5.2-4.3c0,0,0.1,0,0.1,0c2.4,0,4.4-2,4.4-4.4C108.4,102.4,106.5,100.4,104,100.4z"/>
					</g>
				</g>
			</g>
			<g>
				<g>
					<g>
						<circle class="st1" cx="108.4" cy="94.7" r="1.5"/>
					</g>
				</g>
			</g>
			<g>
				<g>
					<g>
						<circle class="st1" cx="104.4" cy="93.5" r="0.4"/>
					</g>
				</g>
			</g>
			<g>
				<g>
					<g>
						<circle class="st1" cx="100.6" cy="93.3" r="0.4"/>
					</g>
				</g>
			</g>
			<g>
				<g>
					<g>
						<path class="st1" d="M103.5,96.9c0,0.2,0.2,0.4,0.4,0.4c0.2,0,0.4-0.2,0.4-0.4c0-0.2-0.2-0.4-0.4-0.4
							C103.7,96.5,103.5,96.7,103.5,96.9z"/>
					</g>
				</g>
			</g>
			<g>
				<g>
					<g>
						<path class="st1" d="M102.3,89.8c0.9,0,1.7-0.7,1.7-1.7c0-0.9-0.7-1.7-1.7-1.7c-0.9,0-1.7,0.7-1.7,1.7
							C100.6,89.1,101.4,89.8,102.3,89.8z"/>
					</g>
				</g>
			</g>
			<g>
				<g>
					<g>
						<path class="st1" d="M87.8,93.1c0.7,0,1.3-0.6,1.3-1.3c0-0.7-0.6-1.3-1.3-1.3s-1.3,0.6-1.3,1.3C86.5,92.5,87,93.1,87.8,93.1z"
							/>
					</g>
				</g>
			</g>
			<g>
				<g>
					<g>
						<path class="st1" d="M83.9,93.5c0.5,0,0.8-0.4,0.8-0.8c0-0.5-0.4-0.8-0.8-0.8c-0.5,0-0.8,0.4-0.8,0.8
							C83,93.1,83.4,93.5,83.9,93.5z"/>
					</g>
				</g>
			</g>
			<g>
				<g>
					<g>
						<circle class="st1" cx="107.7" cy="88.7" r="2.2"/>
					</g>
				</g>
			</g>
		</g>
		<g>
			<g>
				<g>
					<path class="st2" d="M1,115.1v7.8c0,2.3,1.8,4.1,4.1,4.1h117.7c2.3,0,4.1-1.8,4.1-4.1v-7.8H1z"/>
				</g>
			</g>
		</g>
		<g>
			<g>
				<g>
					<path class="st3" d="M47.3,115.4v0.8c0,2.3,1.8,4.1,4.1,4.1h25.2c2.3,0,4.1-1.8,4.1-4.1v-0.8H47.3z"/>
				</g>
			</g>
		</g>
		<g>
			<g>
				<g>
					<path class="st0" d="M47.3,115.4v0.8c0,2.3,1.8,4.1,4.1,4.1h25.2c2.3,0,4.1-1.8,4.1-4.1v-0.8H47.3z"/>
				</g>
			</g>
		</g>
		<g>
			<g>
				<g>
					<path class="st1" d="M51.4,120.3h25.2c1.7,0,3.1-1,3.8-2.5H47.6C48.3,119.3,49.7,120.3,51.4,120.3z"/>
				</g>
			</g>
		</g>
		<g>
			<g>
				<g>
					<path class="st4" d="M76.6,120.8H51.4c-2.6,0-4.6-2.1-4.6-4.6v-0.8c0-0.3,0.2-0.5,0.5-0.5h33.4c0.3,0,0.5,0.2,0.5,0.5v0.8
						C81.2,118.7,79.1,120.8,76.6,120.8z M47.8,115.9v0.3c0,2,1.6,3.6,3.6,3.6h25.2c2,0,3.6-1.6,3.6-3.6v-0.3H47.8z"/>
				</g>
			</g>
		</g>
		<g>
			<g>
				<g>
					<path class="st3" d="M1,122.9c0,2.3,1.8,4.1,4.1,4.1h117.7c2.3,0,4.1-1.8,4.1-4.1v0L1,122.9L1,122.9z"/>
				</g>
			</g>
		</g>
		<g>
			<g>
				<g>
					<path class="st4" d="M122.9,128H5.1c-2.8,0-5.1-2.3-5.1-5.1v-7.8c0-0.6,0.5-1,1-1H127c0.6,0,1,0.5,1,1v7.8
						C128,125.7,125.7,128,122.9,128z M2.1,116.1v6.8c0,1.7,1.4,3.1,3.1,3.1h117.7c1.7,0,3.1-1.4,3.1-3.1v-6.8H2.1z"/>
				</g>
			</g>
		</g>
		<g>
			<g>
				<g>
					<path class="st4" d="M116.1,116.1H11.9c-0.6,0-1-0.5-1-1V51.9c0-2.8,2.3-5.1,5.1-5.1h96c2.8,0,5.1,2.3,5.1,5.1v63.1
						C117.2,115.6,116.7,116.1,116.1,116.1z M12.9,114h102.2V51.9c0-1.7-1.4-3.1-3.1-3.1H16c-1.7,0-3.1,1.4-3.1,3.1V114z"/>
				</g>
			</g>
		</g>
		<g>
			<g>
				<g>
					<g>
						<g>
							<polygon class="st4" points="32.3,89.2 31.5,88.5 33.9,86.1 36.2,88.5 35.5,89.2 33.9,87.6 							"/>
						</g>
					</g>
				</g>
				<g>
					<g>
						<g>
							<rect x="33.4" y="86.8" class="st4" width="1" height="4.5"/>
						</g>
					</g>
				</g>
				<g>
					<g>
						<g>
							<rect x="33.4" y="92.5" class="st4" width="1" height="1.1"/>
						</g>
					</g>
				</g>
				<g>
					<g>
						<g>
							<rect x="33.4" y="94.2" class="st4" width="1" height="1.1"/>
						</g>
					</g>
				</g>
				<g>
					<g>
						<g>
							<rect x="33.4" y="96" class="st4" width="1" height="1.1"/>
						</g>
					</g>
				</g>
				<g>
					<g>
						<g>
							<rect x="33.4" y="98" class="st4" width="1" height="2.9"/>
						</g>
					</g>
				</g>
			</g>
			<g>
				<g>
					<g>
						<g>
							<polygon class="st4" points="32.3,107.4 31.5,106.7 33.9,104.3 36.2,106.7 35.5,107.4 33.9,105.8 							"/>
						</g>
					</g>
				</g>
				<g>
					<g>
						<g>
							<rect x="33.4" y="105" class="st4" width="1" height="4.5"/>
						</g>
					</g>
				</g>
				<g>
					<g>
						<g>
							<rect x="33.4" y="110.7" class="st4" width="1" height="1.1"/>
						</g>
					</g>
				</g>
				<g>
					<g>
						<g>
							<rect x="33.4" y="112.4" class="st4" width="1" height="1.1"/>
						</g>
					</g>
				</g>
				<g>
					<g>
						<g>
							<rect x="33.4" y="114.2" class="st4" width="1" height="1.1"/>
						</g>
					</g>
				</g>
				<g>
					<g>
						<g>
							<rect x="33.4" y="116.2" class="st4" width="1" height="8.7"/>
						</g>
					</g>
				</g>
			</g>
			<g>
				<g>
					<g>
						<g>
							<polygon class="st4" points="92.5,89.2 91.8,88.5 94.1,86.1 96.5,88.5 95.8,89.2 94.1,87.6 							"/>
						</g>
					</g>
				</g>
				<g>
					<g>
						<g>
							<rect x="93.6" y="86.8" class="st4" width="1" height="4.5"/>
						</g>
					</g>
				</g>
				<g>
					<g>
						<g>
							<rect x="93.6" y="92.5" class="st4" width="1" height="1.1"/>
						</g>
					</g>
				</g>
				<g>
					<g>
						<g>
							<rect x="93.6" y="94.2" class="st4" width="1" height="1.1"/>
						</g>
					</g>
				</g>
				<g>
					<g>
						<g>
							<rect x="93.6" y="96" class="st4" width="1" height="1.1"/>
						</g>
					</g>
				</g>
				<g>
					<g>
						<g>
							<rect x="93.6" y="98" class="st4" width="1" height="2.9"/>
						</g>
					</g>
				</g>
			</g>
			<g>
				<g>
					<g>
						<g>
							<polygon class="st4" points="92.5,107.4 91.8,106.7 94.1,104.3 96.5,106.7 95.8,107.4 94.1,105.8 							"/>
						</g>
					</g>
				</g>
				<g>
					<g>
						<g>
							<rect x="93.6" y="105" class="st4" width="1" height="4.5"/>
						</g>
					</g>
				</g>
				<g>
					<g>
						<g>
							<rect x="93.6" y="110.7" class="st4" width="1" height="1.1"/>
						</g>
					</g>
				</g>
				<g>
					<g>
						<g>
							<rect x="93.6" y="112.4" class="st4" width="1" height="1.1"/>
						</g>
					</g>
				</g>
				<g>
					<g>
						<g>
							<rect x="93.6" y="114.2" class="st4" width="1" height="1.1"/>
						</g>
					</g>
				</g>
				<g>
					<g>
						<g>
							<rect x="93.6" y="116.2" class="st4" width="1" height="8.7"/>
						</g>
					</g>
				</g>
			</g>
		</g>
	</g>
	<g>
		<g>
			<g>
				<g>
					<g>
						<rect x="95.6" y="44.3" class="st4" width="7.1" height="1"/>
					</g>
				</g>
			</g>
			<g>
				<g>
					<g>
						<rect x="87.2" y="44.3" class="st4" width="0.8" height="1"/>
					</g>
				</g>
			</g>
			<g>
				<g>
					<g>
						<rect x="83.5" y="44.3" class="st4" width="0.8" height="1"/>
					</g>
				</g>
			</g>
		</g>
		<g>
			<g>
				<g>
					<g>
						<rect x="25.3" y="44.3" class="st4" width="7.1" height="1"/>
					</g>
				</g>
			</g>
			<g>
				<g>
					<g>
						<rect x="40" y="44.3" class="st4" width="0.8" height="1"/>
					</g>
				</g>
			</g>
			<g>
				<g>
					<g>
						<rect x="43.8" y="44.3" class="st4" width="0.8" height="1"/>
					</g>
				</g>
			</g>
		</g>
	</g>
	<g>
		<g>
			<g>
				<path class="st1" d="M95.5,44.8c0,17.4-14.1,31.5-31.5,31.5c-17.4,0-31.5-14.1-31.5-31.5c0-17.4,14.1-31.5,31.5-31.5
					C81.4,13.3,95.5,27.4,95.5,44.8z"/>
			</g>
		</g>
	</g>
	<g>
		<g>
			<g>
				<path class="st3" d="M95.5,44.8c0,17.4-14.1,31.5-31.5,31.5c-17.4,0-31.5-14.1-31.5-31.5"/>
			</g>
		</g>
	</g>
	<g>
		<g>
			<g>
				<path class="st3" d="M87.5,44.8c0,13-10.5,23.5-23.5,23.5c-13,0-23.5-10.5-23.5-23.5c0-13,10.5-23.5,23.5-23.5
					C77,21.3,87.5,31.8,87.5,44.8z"/>
			</g>
		</g>
	</g>
	<g>
		<g>
			<g>
				<g>
					<g>
						
							<rect x="82.8" y="63.7" transform="matrix(0.7079 -0.7063 0.7063 0.7079 -20.9504 77.604)" class="st4" width="1" height="0.8"/>
					</g>
				</g>
			</g>
			<g>
				<g>
					<g>
						
							<rect x="80.2" y="61.1" transform="matrix(0.7071 -0.7071 0.7071 0.7071 -19.835 75.0661)" class="st4" width="1" height="0.8"/>
					</g>
				</g>
			</g>
			<g>
				<g>
					<g>
						
							<rect x="77.5" y="58.4" transform="matrix(0.7073 -0.7069 0.7069 0.7073 -18.7375 72.3872)" class="st4" width="1" height="0.8"/>
					</g>
				</g>
			</g>
		</g>
		<g>
			<g>
				<g>
					<g>
						
							<rect x="38.6" y="16.4" transform="matrix(0.7071 -0.7071 0.7071 0.7071 -2.6188 33.5038)" class="st4" width="1" height="7.1"/>
					</g>
				</g>
			</g>
			<g>
				<g>
					<g>
						
							<rect x="44.1" y="25" transform="matrix(0.7076 -0.7066 0.7066 0.7076 -4.9128 38.9857)" class="st4" width="1" height="0.8"/>
					</g>
				</g>
			</g>
			<g>
				<g>
					<g>
						
							<rect x="46.8" y="27.7" transform="matrix(0.7066 -0.7076 0.7076 0.7066 -5.9948 41.7122)" class="st4" width="1" height="0.8"/>
					</g>
				</g>
			</g>
			<g>
				<g>
					<g>
						
							<rect x="49.4" y="30.4" transform="matrix(0.7073 -0.7069 0.7069 0.7073 -7.1077 44.3188)" class="st4" width="1" height="0.8"/>
					</g>
				</g>
			</g>
		</g>
	</g>
	<g>
		<g>
			<g>
				<g>
					<g>
						<rect x="63.5" y="76.4" class="st4" width="1" height="7.1"/>
					</g>
				</g>
			</g>
			<g>
				<g>
					<g>
						<rect x="63.5" y="71.8" class="st4" width="1" height="0.8"/>
					</g>
				</g>
			</g>
			<g>
				<g>
					<g>
						<rect x="63.5" y="68" class="st4" width="1" height="0.8"/>
					</g>
				</g>
			</g>
			<g>
				<g>
					<g>
						<rect x="63.5" y="64.2" class="st4" width="1" height="0.8"/>
					</g>
				</g>
			</g>
		</g>
		<g>
			<g>
				<g>
					<g>
						<rect x="63.5" y="6.1" class="st4" width="1" height="7.1"/>
					</g>
				</g>
			</g>
			<g>
				<g>
					<g>
						<rect x="63.5" y="17" class="st4" width="1" height="0.8"/>
					</g>
				</g>
			</g>
			<g>
				<g>
					<g>
						<rect x="63.5" y="20.8" class="st4" width="1" height="0.8"/>
					</g>
				</g>
			</g>
		</g>
	</g>
	<g>
		<g>
			<g>
				<g>
					<g>
						
							<rect x="35.6" y="69.1" transform="matrix(0.7071 -0.7071 0.7071 0.7071 -37.7873 48.0705)" class="st4" width="7.1" height="1"/>
					</g>
				</g>
			</g>
			<g>
				<g>
					<g>
						
							<rect x="44.3" y="63.6" transform="matrix(0.7065 -0.7077 0.7077 0.7065 -32.2827 50.4216)" class="st4" width="0.8" height="1"/>
					</g>
				</g>
			</g>
			<g>
				<g>
					<g>
						
							<rect x="46.9" y="61" transform="matrix(0.7069 -0.7074 0.7074 0.7069 -29.6181 51.4823)" class="st4" width="0.8" height="1"/>
					</g>
				</g>
			</g>
			<g>
				<g>
					<g>
						
							<rect x="49.6" y="58.3" transform="matrix(0.7076 -0.7066 0.7066 0.7076 -26.9537 52.5025)" class="st4" width="0.8" height="1"/>
					</g>
				</g>
			</g>
		</g>
		<g>
			<g>
				<g>
					<g>
						
							<rect x="85.3" y="19.4" transform="matrix(0.7071 -0.7071 0.7071 0.7071 11.9484 68.6711)" class="st4" width="7.1" height="1"/>
					</g>
				</g>
			</g>
			<g>
				<g>
					<g>
						<rect x="83" y="24.9" transform="matrix(0.7061 -0.7081 0.7081 0.7061 6.4892 66.4921)" class="st4" width="0.8" height="1"/>
					</g>
				</g>
			</g>
			<g>
				<g>
					<g>
						
							<rect x="80.3" y="27.6" transform="matrix(0.7081 -0.7061 0.7061 0.7081 3.7243 65.1798)" class="st4" width="0.8" height="1"/>
					</g>
				</g>
			</g>
		</g>
	</g>
	<g>
		<g>
			<g>
				<g>
					<path class="st4" d="M64,80.7c-19.8,0-36-16.1-36-36h1C29.1,64,44.7,79.7,64,79.7V80.7z"/>
				</g>
			</g>
		</g>
		<g>
			<g>
				<g>
					<path class="st4" d="M100,44.8h-1C98.9,25.5,83.3,9.8,64,9.8v-1C83.8,8.8,100,24.9,100,44.8z"/>
				</g>
			</g>
		</g>
	</g>
	<g>
		<g>
			<g>
				<g>
					<g>
						<path class="st4" d="M100,45.3l-1,0c0-0.2,0-0.3,0-0.5h1C100,45,100,45.1,100,45.3z"/>
					</g>
				</g>
			</g>
			<g>
				<g>
					<g>
						<path class="st4" d="M65.6,80.7l0-1c0.3,0,0.7,0,1-0.1l0.1,1C66.3,80.7,65.9,80.7,65.6,80.7z M67.7,80.6l-0.1-1
							c0.3,0,0.7-0.1,1-0.1l0.1,1C68.4,80.5,68,80.5,67.7,80.6z M69.7,80.3l-0.2-1c0.3-0.1,0.7-0.1,1-0.2l0.2,1
							C70.4,80.2,70.1,80.2,69.7,80.3z M71.8,79.9l-0.2-1c0.3-0.1,0.7-0.2,1-0.2l0.3,1C72.5,79.7,72.1,79.8,71.8,79.9z M73.8,79.4
							l-0.3-1c0.3-0.1,0.7-0.2,1-0.3l0.3,1C74.5,79.2,74.2,79.3,73.8,79.4z M75.8,78.8l-0.3-1c0.3-0.1,0.6-0.2,1-0.3l0.4,1
							C76.5,78.5,76.2,78.6,75.8,78.8z M77.8,78l-0.4-0.9c0.3-0.1,0.6-0.3,0.9-0.4l0.4,0.9C78.4,77.7,78.1,77.9,77.8,78z M79.7,77.2
							l-0.4-0.9c0.3-0.1,0.6-0.3,0.9-0.5l0.5,0.9C80.3,76.9,80,77,79.7,77.2z M81.5,76.2L81,75.3c0.3-0.2,0.6-0.3,0.9-0.5l0.5,0.9
							C82.1,75.9,81.8,76,81.5,76.2z M83.3,75.1l-0.6-0.9c0.3-0.2,0.6-0.4,0.8-0.6l0.6,0.8C83.9,74.7,83.6,74.9,83.3,75.1z M85,74
							l-0.6-0.8c0.3-0.2,0.5-0.4,0.8-0.6l0.6,0.8C85.6,73.5,85.3,73.7,85,74z M86.7,72.7l-0.6-0.8c0.3-0.2,0.5-0.4,0.8-0.7l0.7,0.8
							C87.2,72.2,87,72.5,86.7,72.7z M88.3,71.3l-0.7-0.8c0.3-0.2,0.5-0.5,0.7-0.7l0.7,0.7C88.8,70.8,88.5,71.1,88.3,71.3z
							 M89.8,69.9l-0.7-0.7c0.2-0.2,0.5-0.5,0.7-0.7l0.8,0.7C90.3,69.4,90,69.6,89.8,69.9z M91.2,68.3l-0.8-0.7
							c0.2-0.3,0.4-0.5,0.7-0.8l0.8,0.6C91.7,67.8,91.4,68,91.2,68.3z M92.5,66.7l-0.8-0.6c0.2-0.3,0.4-0.5,0.6-0.8l0.8,0.6
							C92.9,66.1,92.7,66.4,92.5,66.7z M93.8,65l-0.8-0.6c0.2-0.3,0.4-0.6,0.6-0.8l0.9,0.6C94.1,64.4,94,64.7,93.8,65z M94.9,63.2
							L94,62.7c0.2-0.3,0.3-0.6,0.5-0.9l0.9,0.5C95.2,62.6,95.1,62.9,94.9,63.2z M95.9,61.4L95,60.9c0.2-0.3,0.3-0.6,0.5-0.9
							l0.9,0.4C96.2,60.8,96.1,61.1,95.9,61.4z M96.8,59.5l-0.9-0.4c0.1-0.3,0.3-0.6,0.4-0.9l0.9,0.4C97.1,58.9,97,59.2,96.8,59.5z
							 M97.6,57.6l-1-0.4c0.1-0.3,0.2-0.6,0.3-1l1,0.3C97.9,56.9,97.8,57.3,97.6,57.6z M98.3,55.6l-1-0.3c0.1-0.3,0.2-0.6,0.3-1
							l1,0.3C98.5,54.9,98.4,55.3,98.3,55.6z M98.9,53.6l-1-0.3c0.1-0.3,0.2-0.7,0.2-1l1,0.2C99.1,52.9,99,53.2,98.9,53.6z
							 M99.3,51.5l-1-0.2c0.1-0.3,0.1-0.7,0.2-1l1,0.2C99.5,50.9,99.4,51.2,99.3,51.5z M99.7,49.5l-1-0.1c0-0.3,0.1-0.7,0.1-1l1,0.1
							C99.8,48.8,99.7,49.1,99.7,49.5z M99.9,47.4l-1-0.1c0-0.3,0-0.7,0.1-1l1,0C99.9,46.7,99.9,47,99.9,47.4z"/>
					</g>
				</g>
			</g>
			<g>
				<g>
					<g>
						<path class="st4" d="M64,80.7v-1c0.2,0,0.3,0,0.5,0l0,1C64.3,80.7,64.2,80.7,64,80.7z"/>
					</g>
				</g>
			</g>
		</g>
		<g>
			<g>
				<g>
					<g>
						<path class="st4" d="M29.1,44.8h-1c0-0.2,0-0.3,0-0.5l1,0C29.1,44.4,29.1,44.6,29.1,44.8z"/>
					</g>
				</g>
			</g>
			<g>
				<g>
					<g>
						<path class="st4" d="M29.1,43.3l-1,0c0-0.3,0-0.7,0.1-1l1,0.1C29.1,42.6,29.1,42.9,29.1,43.3z M29.2,41.2l-1-0.1
							c0-0.3,0.1-0.7,0.1-1l1,0.1C29.3,40.6,29.3,40.9,29.2,41.2z M29.5,39.2l-1-0.2c0.1-0.3,0.1-0.7,0.2-1l1,0.2
							C29.6,38.5,29.6,38.9,29.5,39.2z M29.9,37.2l-1-0.2c0.1-0.3,0.2-0.7,0.2-1l1,0.3C30,36.6,30,36.9,29.9,37.2z M30.4,35.2
							l-1-0.3c0.1-0.3,0.2-0.7,0.3-1l1,0.3C30.6,34.6,30.5,34.9,30.4,35.2z M31,33.3L30,33c0.1-0.3,0.2-0.7,0.4-1l1,0.4
							C31.2,32.7,31.1,33,31,33.3z M31.7,31.4L30.8,31c0.1-0.3,0.3-0.6,0.4-1l0.9,0.4C32,30.8,31.8,31.1,31.7,31.4z M32.5,29.5
							l-0.9-0.4c0.2-0.3,0.3-0.6,0.5-0.9l0.9,0.5C32.8,28.9,32.7,29.2,32.5,29.5z M33.5,27.7l-0.9-0.5c0.2-0.3,0.3-0.6,0.5-0.9
							l0.9,0.5C33.8,27.1,33.7,27.4,33.5,27.7z M34.5,26l-0.9-0.6c0.2-0.3,0.4-0.6,0.6-0.9l0.8,0.6C34.9,25.4,34.7,25.7,34.5,26z
							 M35.7,24.3l-0.8-0.6c0.2-0.3,0.4-0.6,0.6-0.8l0.8,0.6C36.1,23.8,35.9,24,35.7,24.3z M36.9,22.7L36.1,22
							c0.2-0.3,0.4-0.5,0.7-0.8l0.8,0.7C37.4,22.2,37.1,22.4,36.9,22.7z M38.2,21.2l-0.8-0.7c0.2-0.3,0.5-0.5,0.7-0.8l0.7,0.7
							C38.7,20.7,38.5,20.9,38.2,21.2z M39.7,19.7L39,19c0.3-0.2,0.5-0.5,0.8-0.7l0.7,0.8C40.2,19.2,39.9,19.5,39.7,19.7z
							 M41.2,18.3l-0.7-0.8c0.3-0.2,0.5-0.5,0.8-0.7l0.6,0.8C41.7,17.9,41.4,18.1,41.2,18.3z M42.7,17l-0.6-0.8
							c0.3-0.2,0.6-0.4,0.8-0.6l0.6,0.8C43.3,16.6,43,16.8,42.7,17z M44.4,15.9L43.8,15c0.3-0.2,0.6-0.4,0.9-0.6l0.6,0.9
							C44.9,15.5,44.7,15.7,44.4,15.9z M46.1,14.8l-0.5-0.9c0.3-0.2,0.6-0.4,0.9-0.5l0.5,0.9C46.7,14.4,46.4,14.6,46.1,14.8z
							 M47.9,13.8l-0.5-0.9c0.3-0.2,0.6-0.3,0.9-0.5l0.4,0.9C48.5,13.5,48.2,13.6,47.9,13.8z M49.7,12.9L49.3,12
							c0.3-0.1,0.6-0.3,1-0.4l0.4,0.9C50.3,12.6,50,12.8,49.7,12.9z M51.6,12.1l-0.4-1c0.3-0.1,0.7-0.2,1-0.4l0.3,1
							C52.2,11.9,51.9,12,51.6,12.1z M53.5,11.4l-0.3-1c0.3-0.1,0.7-0.2,1-0.3l0.3,1C54.1,11.2,53.8,11.3,53.5,11.4z M55.4,10.9
							l-0.3-1c0.3-0.1,0.7-0.2,1-0.2l0.2,1C56.1,10.7,55.8,10.8,55.4,10.9z M57.4,10.5l-0.2-1c0.3-0.1,0.7-0.1,1-0.2l0.2,1
							C58.1,10.3,57.8,10.4,57.4,10.5z M59.4,10.1l-0.1-1c0.3,0,0.7-0.1,1-0.1l0.1,1C60.1,10.1,59.8,10.1,59.4,10.1z M61.4,9.9
							l-0.1-1c0.3,0,0.7,0,1-0.1l0,1C62.1,9.9,61.8,9.9,61.4,9.9z"/>
					</g>
				</g>
			</g>
			<g>
				<g>
					<g>
						<path class="st4" d="M63.5,9.8l0-1c0.2,0,0.3,0,0.5,0v1C63.8,9.8,63.7,9.8,63.5,9.8z"/>
					</g>
				</g>
			</g>
		</g>
	</g>
	<g>
		<g>
			<g>
				<g>
					<g>
						<path class="st4" d="M41.5,44.8h-1c0-13,10.6-23.5,23.5-23.5v1C51.6,22.3,41.5,32.4,41.5,44.8z"/>
					</g>
				</g>
			</g>
			<g>
				<g>
					<g>
						<path class="st4" d="M64,68.3v-1c12.4,0,22.5-10.1,22.5-22.5h1C87.5,57.8,77,68.3,64,68.3z"/>
					</g>
				</g>
			</g>
		</g>
		<g>
			<g>
				<g>
					<g>
						<g>
							<path class="st4" d="M64,68.3c-0.2,0-0.3,0-0.5,0l0-1c0.2,0,0.3,0,0.5,0V68.3z"/>
						</g>
					</g>
				</g>
				<g>
					<g>
						<g>
							<path class="st4" d="M62.5,68.3c-0.3,0-0.7-0.1-1-0.1l0.1-1c0.3,0,0.7,0.1,1,0.1L62.5,68.3z M60.4,68c-0.3-0.1-0.7-0.1-1-0.2
								l0.2-1c0.3,0.1,0.6,0.1,1,0.2L60.4,68z M58.4,67.6c-0.3-0.1-0.7-0.2-1-0.3l0.3-1c0.3,0.1,0.6,0.2,0.9,0.3L58.4,67.6z
								 M56.4,67.1c-0.3-0.1-0.6-0.2-1-0.4l0.4-1c0.3,0.1,0.6,0.2,0.9,0.3L56.4,67.1z M54.5,66.3c-0.3-0.1-0.6-0.3-0.9-0.4L54,65
								c0.3,0.1,0.6,0.3,0.9,0.4L54.5,66.3z M52.7,65.4c-0.3-0.2-0.6-0.3-0.9-0.5l0.5-0.9c0.3,0.2,0.6,0.3,0.8,0.5L52.7,65.4z
								 M50.9,64.3c-0.3-0.2-0.6-0.4-0.8-0.6l0.6-0.8c0.3,0.2,0.5,0.4,0.8,0.6L50.9,64.3z M49.3,63.1c-0.3-0.2-0.5-0.4-0.8-0.7
								l0.7-0.8c0.2,0.2,0.5,0.4,0.8,0.6L49.3,63.1z M47.7,61.8c-0.2-0.2-0.5-0.5-0.7-0.7l0.7-0.7c0.2,0.2,0.5,0.5,0.7,0.7
								L47.7,61.8z M46.3,60.3c-0.2-0.3-0.4-0.5-0.7-0.8l0.8-0.6c0.2,0.3,0.4,0.5,0.6,0.8L46.3,60.3z M45,58.7
								c-0.2-0.3-0.4-0.6-0.6-0.8l0.9-0.6c0.2,0.3,0.4,0.5,0.6,0.8L45,58.7z M43.9,57c-0.2-0.3-0.3-0.6-0.5-0.9l0.9-0.5
								c0.2,0.3,0.3,0.6,0.5,0.8L43.9,57z M42.9,55.2c-0.2-0.3-0.3-0.6-0.4-0.9l0.9-0.4c0.1,0.3,0.3,0.6,0.4,0.9L42.9,55.2z
								 M42.1,53.3c-0.1-0.3-0.2-0.6-0.4-1l1-0.3c0.1,0.3,0.2,0.6,0.3,0.9L42.1,53.3z M41.4,51.4c-0.1-0.3-0.2-0.7-0.3-1l1-0.2
								c0.1,0.3,0.2,0.6,0.3,0.9L41.4,51.4z M40.9,49.4c-0.1-0.3-0.1-0.7-0.2-1l1-0.2c0,0.3,0.1,0.6,0.2,1L40.9,49.4z M40.6,47.4
								c0-0.3-0.1-0.7-0.1-1l1-0.1c0,0.3,0.1,0.7,0.1,1L40.6,47.4z"/>
						</g>
					</g>
				</g>
				<g>
					<g>
						<g>
							<path class="st4" d="M40.5,45.3c0-0.2,0-0.3,0-0.5h1c0,0.2,0,0.3,0,0.5L40.5,45.3z"/>
						</g>
					</g>
				</g>
			</g>
			<g>
				<g>
					<g>
						<g>
							<path class="st4" d="M64.5,22.3c-0.2,0-0.3,0-0.5,0v-1c0.2,0,0.3,0,0.5,0L64.5,22.3z"/>
						</g>
					</g>
				</g>
				<g>
					<g>
						<g>
							<path class="st4" d="M86.5,43.3c0-0.3-0.1-0.7-0.1-1l1-0.1c0,0.3,0.1,0.7,0.1,1L86.5,43.3z M86.2,41.3c0-0.3-0.1-0.6-0.2-1
								l1-0.2c0.1,0.3,0.1,0.7,0.2,1L86.2,41.3z M85.9,39.4c-0.1-0.3-0.2-0.6-0.3-0.9l1-0.3c0.1,0.3,0.2,0.7,0.3,1L85.9,39.4z
								 M85.3,37.5c-0.1-0.3-0.2-0.6-0.3-0.9l1-0.4c0.1,0.3,0.2,0.6,0.4,1L85.3,37.5z M84.6,35.7c-0.1-0.3-0.3-0.6-0.4-0.9l0.9-0.5
								c0.1,0.3,0.3,0.6,0.4,0.9L84.6,35.7z M83.7,33.9c-0.2-0.3-0.3-0.6-0.5-0.8l0.9-0.5c0.2,0.3,0.4,0.6,0.5,0.9L83.7,33.9z
								 M82.7,32.3c-0.2-0.3-0.4-0.5-0.6-0.8l0.8-0.6c0.2,0.3,0.4,0.6,0.6,0.8L82.7,32.3z M81.6,30.7c-0.2-0.3-0.4-0.5-0.6-0.8
								l0.8-0.7c0.2,0.3,0.4,0.5,0.7,0.8L81.6,30.7z M80.3,29.2c-0.2-0.2-0.5-0.5-0.7-0.7l0.7-0.7c0.2,0.2,0.5,0.5,0.7,0.7
								L80.3,29.2z M78.8,27.9c-0.2-0.2-0.5-0.4-0.8-0.6l0.6-0.8c0.3,0.2,0.5,0.4,0.8,0.7L78.8,27.9z M77.3,26.6
								c-0.3-0.2-0.5-0.4-0.8-0.6l0.6-0.9c0.3,0.2,0.6,0.4,0.8,0.6L77.3,26.6z M75.7,25.5c-0.3-0.2-0.6-0.3-0.8-0.5l0.5-0.9
								c0.3,0.2,0.6,0.3,0.9,0.5L75.7,25.5z M74,24.6c-0.3-0.1-0.6-0.3-0.9-0.4l0.4-0.9c0.3,0.1,0.6,0.3,0.9,0.4L74,24.6z
								 M72.2,23.8c-0.3-0.1-0.6-0.2-0.9-0.3l0.3-1c0.3,0.1,0.6,0.2,1,0.4L72.2,23.8z M70.3,23.2c-0.3-0.1-0.6-0.2-0.9-0.3l0.2-1
								c0.3,0.1,0.7,0.2,1,0.3L70.3,23.2z M68.4,22.7c-0.3-0.1-0.6-0.1-1-0.2l0.2-1c0.3,0.1,0.7,0.1,1,0.2L68.4,22.7z M66.5,22.4
								c-0.3,0-0.7-0.1-1-0.1l0.1-1c0.3,0,0.7,0.1,1,0.1L66.5,22.4z"/>
						</g>
					</g>
				</g>
				<g>
					<g>
						<g>
							<path class="st4" d="M87.5,44.8h-1c0-0.2,0-0.3,0-0.5l1,0C87.5,44.4,87.5,44.6,87.5,44.8z"/>
						</g>
					</g>
				</g>
			</g>
		</g>
	</g>
	<g>
		<g>
			<g>
				<g>
					<path class="st4" d="M64,80.7c-19.8,0-36-16.1-36-36h1C29.1,64,44.7,79.7,64,79.7V80.7z"/>
				</g>
			</g>
		</g>
		<g>
			<g>
				<g>
					<path class="st4" d="M100,44.8h-1C98.9,25.5,83.3,9.8,64,9.8v-1C83.8,8.8,100,24.9,100,44.8z"/>
				</g>
			</g>
		</g>
	</g>
	<g>
		<g>
			<g>
				<g>
					<g>
						<path class="st4" d="M100,45.3l-1,0c0-0.2,0-0.3,0-0.5h1C100,45,100,45.1,100,45.3z"/>
					</g>
				</g>
			</g>
			<g>
				<g>
					<g>
						<path class="st4" d="M65.6,80.7l0-1c0.3,0,0.7,0,1-0.1l0.1,1C66.3,80.7,65.9,80.7,65.6,80.7z M67.7,80.6l-0.1-1
							c0.3,0,0.7-0.1,1-0.1l0.1,1C68.4,80.5,68,80.5,67.7,80.6z M69.7,80.3l-0.2-1c0.3-0.1,0.7-0.1,1-0.2l0.2,1
							C70.4,80.2,70.1,80.2,69.7,80.3z M71.8,79.9l-0.2-1c0.3-0.1,0.7-0.2,1-0.2l0.3,1C72.5,79.7,72.1,79.8,71.8,79.9z M73.8,79.4
							l-0.3-1c0.3-0.1,0.7-0.2,1-0.3l0.3,1C74.5,79.2,74.2,79.3,73.8,79.4z M75.8,78.8l-0.3-1c0.3-0.1,0.6-0.2,1-0.3l0.4,1
							C76.5,78.5,76.2,78.6,75.8,78.8z M77.8,78l-0.4-0.9c0.3-0.1,0.6-0.3,0.9-0.4l0.4,0.9C78.4,77.7,78.1,77.9,77.8,78z M79.7,77.2
							l-0.4-0.9c0.3-0.1,0.6-0.3,0.9-0.5l0.5,0.9C80.3,76.9,80,77,79.7,77.2z M81.5,76.2L81,75.3c0.3-0.2,0.6-0.3,0.9-0.5l0.5,0.9
							C82.1,75.9,81.8,76,81.5,76.2z M83.3,75.1l-0.6-0.9c0.3-0.2,0.6-0.4,0.8-0.6l0.6,0.8C83.9,74.7,83.6,74.9,83.3,75.1z M85,74
							l-0.6-0.8c0.3-0.2,0.5-0.4,0.8-0.6l0.6,0.8C85.6,73.5,85.3,73.7,85,74z M86.7,72.7l-0.6-0.8c0.3-0.2,0.5-0.4,0.8-0.7l0.7,0.8
							C87.2,72.2,87,72.5,86.7,72.7z M88.3,71.3l-0.7-0.8c0.3-0.2,0.5-0.5,0.7-0.7l0.7,0.7C88.8,70.8,88.5,71.1,88.3,71.3z
							 M89.8,69.9l-0.7-0.7c0.2-0.2,0.5-0.5,0.7-0.7l0.8,0.7C90.3,69.4,90,69.6,89.8,69.9z M91.2,68.3l-0.8-0.7
							c0.2-0.3,0.4-0.5,0.7-0.8l0.8,0.6C91.7,67.8,91.4,68,91.2,68.3z M92.5,66.7l-0.8-0.6c0.2-0.3,0.4-0.5,0.6-0.8l0.8,0.6
							C92.9,66.1,92.7,66.4,92.5,66.7z M93.8,65l-0.8-0.6c0.2-0.3,0.4-0.6,0.6-0.8l0.9,0.6C94.1,64.4,94,64.7,93.8,65z M94.9,63.2
							L94,62.7c0.2-0.3,0.3-0.6,0.5-0.9l0.9,0.5C95.2,62.6,95.1,62.9,94.9,63.2z M95.9,61.4L95,60.9c0.2-0.3,0.3-0.6,0.5-0.9
							l0.9,0.4C96.2,60.8,96.1,61.1,95.9,61.4z M96.8,59.5l-0.9-0.4c0.1-0.3,0.3-0.6,0.4-0.9l0.9,0.4C97.1,58.9,97,59.2,96.8,59.5z
							 M97.6,57.6l-1-0.4c0.1-0.3,0.2-0.6,0.3-1l1,0.3C97.9,56.9,97.8,57.3,97.6,57.6z M98.3,55.6l-1-0.3c0.1-0.3,0.2-0.6,0.3-1
							l1,0.3C98.5,54.9,98.4,55.3,98.3,55.6z M98.9,53.6l-1-0.3c0.1-0.3,0.2-0.7,0.2-1l1,0.2C99.1,52.9,99,53.2,98.9,53.6z
							 M99.3,51.5l-1-0.2c0.1-0.3,0.1-0.7,0.2-1l1,0.2C99.5,50.9,99.4,51.2,99.3,51.5z M99.7,49.5l-1-0.1c0-0.3,0.1-0.7,0.1-1l1,0.1
							C99.8,48.8,99.7,49.1,99.7,49.5z M99.9,47.4l-1-0.1c0-0.3,0-0.7,0.1-1l1,0C99.9,46.7,99.9,47,99.9,47.4z"/>
					</g>
				</g>
			</g>
			<g>
				<g>
					<g>
						<path class="st4" d="M64,80.7v-1c0.2,0,0.3,0,0.5,0l0,1C64.3,80.7,64.2,80.7,64,80.7z"/>
					</g>
				</g>
			</g>
		</g>
		<g>
			<g>
				<g>
					<g>
						<path class="st4" d="M29.1,44.8h-1c0-0.2,0-0.3,0-0.5l1,0C29.1,44.4,29.1,44.6,29.1,44.8z"/>
					</g>
				</g>
			</g>
			<g>
				<g>
					<g>
						<path class="st4" d="M29.1,43.3l-1,0c0-0.3,0-0.7,0.1-1l1,0.1C29.1,42.6,29.1,42.9,29.1,43.3z M29.2,41.2l-1-0.1
							c0-0.3,0.1-0.7,0.1-1l1,0.1C29.3,40.6,29.3,40.9,29.2,41.2z M29.5,39.2l-1-0.2c0.1-0.3,0.1-0.7,0.2-1l1,0.2
							C29.6,38.5,29.6,38.9,29.5,39.2z M29.9,37.2l-1-0.2c0.1-0.3,0.2-0.7,0.2-1l1,0.3C30,36.6,30,36.9,29.9,37.2z M30.4,35.2
							l-1-0.3c0.1-0.3,0.2-0.7,0.3-1l1,0.3C30.6,34.6,30.5,34.9,30.4,35.2z M31,33.3L30,33c0.1-0.3,0.2-0.7,0.4-1l1,0.4
							C31.2,32.7,31.1,33,31,33.3z M31.7,31.4L30.8,31c0.1-0.3,0.3-0.6,0.4-1l0.9,0.4C32,30.8,31.8,31.1,31.7,31.4z M32.5,29.5
							l-0.9-0.4c0.2-0.3,0.3-0.6,0.5-0.9l0.9,0.5C32.8,28.9,32.7,29.2,32.5,29.5z M33.5,27.7l-0.9-0.5c0.2-0.3,0.3-0.6,0.5-0.9
							l0.9,0.5C33.8,27.1,33.7,27.4,33.5,27.7z M34.5,26l-0.9-0.6c0.2-0.3,0.4-0.6,0.6-0.9l0.8,0.6C34.9,25.4,34.7,25.7,34.5,26z
							 M35.7,24.3l-0.8-0.6c0.2-0.3,0.4-0.6,0.6-0.8l0.8,0.6C36.1,23.8,35.9,24,35.7,24.3z M36.9,22.7L36.1,22
							c0.2-0.3,0.4-0.5,0.7-0.8l0.8,0.7C37.4,22.2,37.1,22.4,36.9,22.7z M38.2,21.2l-0.8-0.7c0.2-0.3,0.5-0.5,0.7-0.8l0.7,0.7
							C38.7,20.7,38.5,20.9,38.2,21.2z M39.7,19.7L39,19c0.3-0.2,0.5-0.5,0.8-0.7l0.7,0.8C40.2,19.2,39.9,19.5,39.7,19.7z
							 M41.2,18.3l-0.7-0.8c0.3-0.2,0.5-0.5,0.8-0.7l0.6,0.8C41.7,17.9,41.4,18.1,41.2,18.3z M42.7,17l-0.6-0.8
							c0.3-0.2,0.6-0.4,0.8-0.6l0.6,0.8C43.3,16.6,43,16.8,42.7,17z M44.4,15.9L43.8,15c0.3-0.2,0.6-0.4,0.9-0.6l0.6,0.9
							C44.9,15.5,44.7,15.7,44.4,15.9z M46.1,14.8l-0.5-0.9c0.3-0.2,0.6-0.4,0.9-0.5l0.5,0.9C46.7,14.4,46.4,14.6,46.1,14.8z
							 M47.9,13.8l-0.5-0.9c0.3-0.2,0.6-0.3,0.9-0.5l0.4,0.9C48.5,13.5,48.2,13.6,47.9,13.8z M49.7,12.9L49.3,12
							c0.3-0.1,0.6-0.3,1-0.4l0.4,0.9C50.3,12.6,50,12.8,49.7,12.9z M51.6,12.1l-0.4-1c0.3-0.1,0.7-0.2,1-0.4l0.3,1
							C52.2,11.9,51.9,12,51.6,12.1z M53.5,11.4l-0.3-1c0.3-0.1,0.7-0.2,1-0.3l0.3,1C54.1,11.2,53.8,11.3,53.5,11.4z M55.4,10.9
							l-0.3-1c0.3-0.1,0.7-0.2,1-0.2l0.2,1C56.1,10.7,55.8,10.8,55.4,10.9z M57.4,10.5l-0.2-1c0.3-0.1,0.7-0.1,1-0.2l0.2,1
							C58.1,10.3,57.8,10.4,57.4,10.5z M59.4,10.1l-0.1-1c0.3,0,0.7-0.1,1-0.1l0.1,1C60.1,10.1,59.8,10.1,59.4,10.1z M61.4,9.9
							l-0.1-1c0.3,0,0.7,0,1-0.1l0,1C62.1,9.9,61.8,9.9,61.4,9.9z"/>
					</g>
				</g>
			</g>
			<g>
				<g>
					<g>
						<path class="st4" d="M63.5,9.8l0-1c0.2,0,0.3,0,0.5,0v1C63.8,9.8,63.7,9.8,63.5,9.8z"/>
					</g>
				</g>
			</g>
		</g>
	</g>
	<g>
		<g>
			<g>
				<path class="st4" d="M64,6.7c-1.8,0-3.3-1.5-3.3-3.3S62.2,0,64,0c1.8,0,3.3,1.5,3.3,3.3S65.8,6.7,64,6.7z M64,1
					c-1.3,0-2.3,1-2.3,2.3c0,1.3,1,2.3,2.3,2.3c1.3,0,2.3-1,2.3-2.3C66.3,2.1,65.3,1,64,1z"/>
			</g>
		</g>
	</g>
	<path class="st4" d="M78.6,38.6c0,0,0-0.1,0-0.1c0-0.2-0.1-0.3-0.3-0.4l-4.2-2.9V32c0-0.4-0.3-0.7-0.7-0.7h-4.8l-4.1-2.8
		c-0.3-0.2-0.6-0.2-0.9,0l-4.1,2.8h-4.8c-0.4,0-0.7,0.3-0.7,0.7v3.1L49.7,38c-0.2,0.1-0.3,0.4-0.3,0.6c0,0,0,0,0,0l0,16.2
		c0,0.2,0.1,0.4,0.2,0.5c0.1,0.1,0.3,0.2,0.5,0.2c0,0,0,0,0,0l27.7,0c0.4,0,0.7-0.3,0.7-0.7L78.6,38.6z M74.1,37l2.4,1.7l-2.4,1.7
		V37z M64,29.9l1.9,1.3h-3.8L64,29.9z M55.4,32.8h17.2v8.6l-5.8,4l-2.4-1.8c0,0,0,0,0,0c-0.3-0.2-0.6-0.2-0.9,0l-2.4,1.8l-5.8-4
		V32.8z M53.9,36.9v3.4l-2.5-1.7L53.9,36.9z M50.9,40.1l9.1,6.3l-9,7L50.9,40.1z M52.3,54.1L64,45l11.6,9L52.3,54.1z M68.1,46.3
		l9-6.3l0,13.3L68.1,46.3z M58.2,36.5c0-0.4,0.3-0.7,0.7-0.7h10.1c0.4,0,0.7,0.3,0.7,0.7c0,0.4-0.3,0.7-0.7,0.7H58.9
		C58.5,37.3,58.2,36.9,58.2,36.5z M69.1,41.1H58.9c-0.4,0-0.7-0.3-0.7-0.7c0-0.4,0.3-0.7,0.7-0.7h10.1c0.4,0,0.7,0.3,0.7,0.7
		C69.8,40.8,69.5,41.1,69.1,41.1z"/>
	<path class="st4" d="M71.4,93.3C71.4,93.2,71.4,93.2,71.4,93.3c0-0.2-0.1-0.2-0.2-0.3l-2.1-1.5v-1.6c0-0.2-0.2-0.4-0.4-0.4h-2.4
		l-2.1-1.4c-0.1-0.1-0.3-0.1-0.4,0l-2.1,1.4h-2.4c-0.2,0-0.4,0.2-0.4,0.4v1.6L56.7,93c-0.1,0.1-0.2,0.2-0.2,0.3c0,0,0,0,0,0l0,8.2
		c0,0.1,0,0.2,0.1,0.3c0.1,0.1,0.2,0.1,0.3,0.1c0,0,0,0,0,0l14.1,0c0.2,0,0.4-0.2,0.4-0.4L71.4,93.3z M69.1,92.4l1.2,0.8l-1.2,0.8
		V92.4z M64,88.9l1,0.7H63L64,88.9z M59.6,90.3h8.7v4.3l-2.9,2l-1.2-0.9c0,0,0,0,0,0c-0.1-0.1-0.3-0.1-0.5,0l-1.2,0.9l-2.9-2V90.3z
		 M58.9,92.4v1.7l-1.2-0.9L58.9,92.4z M57.3,94l4.6,3.2l-4.6,3.6L57.3,94z M58.1,101.1l5.9-4.6l5.9,4.6L58.1,101.1z M66.1,97.2
		l4.6-3.2l0,6.8L66.1,97.2z M61,92.2c0-0.2,0.2-0.4,0.4-0.4h5.1c0.2,0,0.4,0.2,0.4,0.4s-0.2,0.4-0.4,0.4h-5.1
		C61.2,92.6,61,92.4,61,92.2z M66.6,94.6h-5.1c-0.2,0-0.4-0.2-0.4-0.4s0.2-0.4,0.4-0.4h5.1c0.2,0,0.4,0.2,0.4,0.4
		S66.8,94.6,66.6,94.6z"/>
	<g>
		<path class="st2" d="M33.2,72.8C33.2,72.7,33.2,72.7,33.2,72.8c0-0.2-0.1-0.2-0.2-0.3L31,71v-1.6c0-0.2-0.2-0.4-0.4-0.4h-2.4
			l-2.1-1.4c-0.1-0.1-0.3-0.1-0.4,0L23.5,69h-2.4c-0.2,0-0.4,0.2-0.4,0.4V71l-2.1,1.5c-0.1,0.1-0.2,0.2-0.2,0.3c0,0,0,0,0,0l0,8.2
			c0,0.1,0,0.2,0.1,0.3c0.1,0.1,0.2,0.1,0.3,0.1c0,0,0,0,0,0l14.1,0c0.2,0,0.4-0.2,0.4-0.4L33.2,72.8z M31,71.9l1.2,0.8L31,73.6
			V71.9z M25.8,68.4l1,0.7h-1.9L25.8,68.4z M21.5,69.8h8.7v4.3l-2.9,2l-1.2-0.9c0,0,0,0,0,0c-0.1-0.1-0.3-0.1-0.5,0l-1.2,0.9l-2.9-2
			V69.8z M20.7,71.9v1.7l-1.2-0.9L20.7,71.9z M19.2,73.5l4.6,3.2l-4.6,3.6L19.2,73.5z M19.9,80.6l5.9-4.6l5.9,4.6L19.9,80.6z
			 M27.9,76.7l4.6-3.2l0,6.8L27.9,76.7z M22.9,71.7c0-0.2,0.2-0.4,0.4-0.4h5.1c0.2,0,0.4,0.2,0.4,0.4s-0.2,0.4-0.4,0.4h-5.1
			C23.1,72.1,22.9,71.9,22.9,71.7z M28.4,74.1h-5.1c-0.2,0-0.4-0.2-0.4-0.4s0.2-0.4,0.4-0.4h5.1c0.2,0,0.4,0.2,0.4,0.4
			S28.6,74.1,28.4,74.1z"/>
		<path class="st2" d="M109.6,72.8C109.6,72.7,109.6,72.7,109.6,72.8c0-0.2-0.1-0.2-0.2-0.3l-2.1-1.5v-1.6c0-0.2-0.2-0.4-0.4-0.4
			h-2.4l-2.1-1.4c-0.1-0.1-0.3-0.1-0.4,0L99.9,69h-2.4c-0.2,0-0.4,0.2-0.4,0.4V71l-2.1,1.5c-0.1,0.1-0.2,0.2-0.2,0.3c0,0,0,0,0,0
			l0,8.2c0,0.1,0,0.2,0.1,0.3c0.1,0.1,0.2,0.1,0.3,0.1c0,0,0,0,0,0l14.1,0c0.2,0,0.4-0.2,0.4-0.4L109.6,72.8z M107.3,71.9l1.2,0.8
			l-1.2,0.8V71.9z M102.2,68.4l1,0.7h-1.9L102.2,68.4z M97.8,69.8h8.7v4.3l-2.9,2l-1.2-0.9c0,0,0,0,0,0c-0.1-0.1-0.3-0.1-0.5,0
			l-1.2,0.9l-2.9-2V69.8z M97,71.9v1.7l-1.2-0.9L97,71.9z M95.5,73.5l4.6,3.2l-4.6,3.6L95.5,73.5z M96.3,80.6l5.9-4.6l5.9,4.6
			L96.3,80.6z M104.2,76.7l4.6-3.2l0,6.8L104.2,76.7z M99.2,71.7c0-0.2,0.2-0.4,0.4-0.4h5.1c0.2,0,0.4,0.2,0.4,0.4s-0.2,0.4-0.4,0.4
			h-5.1C99.4,72.1,99.2,71.9,99.2,71.7z M104.7,74.1h-5.1c-0.2,0-0.4-0.2-0.4-0.4s0.2-0.4,0.4-0.4h5.1c0.2,0,0.4,0.2,0.4,0.4
			S104.9,74.1,104.7,74.1z"/>
	</g>
</g>
</svg>
