<?xml version="1.0" encoding="utf-8"?>
<!-- Generator: Adobe Illustrator 23.0.3, SVG Export Plug-In . SVG Version: 6.00 Build 0)  -->
<svg version="1.1" id="Layer_1" xmlns="http://www.w3.org/2000/svg" xmlns:xlink="http://www.w3.org/1999/xlink" x="0px" y="0px"
	 viewBox="0 0 128 109" style="enable-background:new 0 0 128 109;" xml:space="preserve">
<style type="text/css">
	.st0{fill:#80C0FF;}
	.st1{fill:#0C5ADB;}
	.st2{fill:#C8DFF5;}
	.st3{fill:#AFD8F9;}
	.st4{fill:#6AB0E5;}
	.st5{fill:#45ABFF;}
	.st6{fill:#E9F6FF;}
	.st7{fill:#2481D7;}
	.st8{fill:none;stroke:#C8DFF5;stroke-width:4;stroke-linecap:round;stroke-miterlimit:10;}
	.st9{fill:#FFFFFF;}
	.st10{fill:#DEF4FC;}
</style>
<g>
	<g>
		<g>
			<path class="st0" d="M107.5,73.3c0.4-5.1-4.2-4.8-5-5.1c-0.8-0.4-11,4.3-11,4.3l-3.7,10C94.1,79.8,103.3,75.7,107.5,73.3z"/>
		</g>
	</g>
	<g>
		<g>
			<path class="st1" d="M81.2,77.1c-0.4,0-0.8-0.2-1-0.7c-0.2-0.5,0.1-1.1,0.6-1.3c0.7-0.3,17.4-6.8,19.4-7.5c2.1-0.7,4.3-0.5,6,0.6
				c1.6,1,2.5,2.7,2.7,4.8c0,0.6-0.4,1.1-0.9,1.1c-0.6,0-1.1-0.4-1.1-0.9c-0.1-1.4-0.7-2.5-1.8-3.2c-1.2-0.8-2.7-0.9-4.2-0.4
				c-2,0.7-19.2,7.4-19.3,7.5C81.5,77.1,81.4,77.1,81.2,77.1z"/>
		</g>
	</g>
	<g>
		<g>
			<polygon class="st0" points="66.5,19.2 27.3,43.4 105.7,43.4 			"/>
		</g>
	</g>
	<g>
		<g>
			<rect x="39.7" y="43.4" class="st2" width="53.6" height="39.8"/>
		</g>
	</g>
	<g>
		<g>
			<polygon class="st0" points="39.7,43.4 93.3,83.2 93.3,43.4 			"/>
		</g>
	</g>
	<g>
		<g>
			<rect x="39.7" y="43.4" class="st3" width="53.6" height="7.6"/>
		</g>
	</g>
	<g>
		<g>
			<polygon class="st4" points="39.7,43.4 50,51.1 93.3,51.1 93.3,43.4 			"/>
		</g>
	</g>
	<g>
		<g>
			<rect x="66.5" y="50.7" class="st5" width="14.4" height="27.1"/>
		</g>
	</g>
	<g>
		<g>
			<rect x="66.5" y="50.7" class="st0" width="9.1" height="27.1"/>
		</g>
	</g>
	<g>
		<g>
			<path class="st1" d="M75.6,78.6h-9.1c-0.4,0-0.8-0.3-0.8-0.8V50.7c0-0.4,0.3-0.8,0.8-0.8h9.1c0.4,0,0.8,0.3,0.8,0.8v27.1
				C76.4,78.3,76,78.6,75.6,78.6z M67.3,77.1h7.5V51.5h-7.5V77.1z"/>
		</g>
	</g>
	<g>
		<g>
			<path class="st1" d="M80.9,78.6H66.5c-0.4,0-0.8-0.3-0.8-0.8V50.7c0-0.4,0.3-0.8,0.8-0.8h14.4c0.4,0,0.8,0.3,0.8,0.8v27.1
				C81.7,78.3,81.3,78.6,80.9,78.6z M67.3,77.1h12.8V51.5H67.3V77.1z"/>
		</g>
	</g>
	<g>
		<g>
			<path class="st1" d="M93.3,84.3c-0.6,0-1-0.5-1-1V44.5H40.8v38.8c0,0.6-0.5,1-1,1c-0.6,0-1-0.5-1-1V43.4c0-0.6,0.5-1,1-1h53.6
				c0.6,0,1,0.5,1,1v39.8C94.3,83.8,93.9,84.3,93.3,84.3z"/>
		</g>
	</g>
	<g>
		<g>
			<path class="st1" d="M105.7,44.5H27.3c-0.5,0-0.9-0.3-1-0.7c-0.1-0.4,0.1-0.9,0.4-1.2L66,18.3c0.3-0.2,0.7-0.2,1.1,0l39.2,24.3
				c0.4,0.2,0.6,0.7,0.4,1.2C106.6,44.2,106.2,44.5,105.7,44.5z M30.9,42.4h71.2l-35.6-22L30.9,42.4z"/>
		</g>
	</g>
	<g>
		<g>
			<path class="st1" d="M90.7,35.8H42.2c-0.6,0-1-0.5-1-1c0-0.6,0.5-1,1-1h48.5c0.6,0,1,0.5,1,1C91.7,35.3,91.3,35.8,90.7,35.8z"/>
		</g>
	</g>
	<g>
		<g>
			<path class="st1" d="M79.3,28.1H53.7c-0.6,0-1-0.5-1-1s0.5-1,1-1h25.6c0.6,0,1,0.5,1,1S79.9,28.1,79.3,28.1z"/>
		</g>
	</g>
	<g>
		<g>
			<rect x="47.6" y="50.7" class="st6" width="11.4" height="11.4"/>
		</g>
	</g>
	<g>
		<g>
			<polygon class="st2" points="47.6,50.7 59,62.1 59,50.7 			"/>
		</g>
	</g>
	<g>
		<g>
			<path class="st1" d="M59,62.9H47.6c-0.4,0-0.8-0.3-0.8-0.8V50.7c0-0.4,0.3-0.8,0.8-0.8H59c0.4,0,0.8,0.3,0.8,0.8v11.4
				C59.8,62.5,59.4,62.9,59,62.9z M48.4,61.3h9.8v-9.8h-9.8V61.3z"/>
		</g>
	</g>
	<g>
		<g>
			<path class="st1" d="M53.3,62.6c-0.3,0-0.5-0.2-0.5-0.5v-11c0-0.3,0.2-0.5,0.5-0.5s0.5,0.2,0.5,0.5v11
				C53.8,62.4,53.6,62.6,53.3,62.6z"/>
		</g>
	</g>
	<g>
		<g>
			<path class="st1" d="M58.8,57.1h-11c-0.3,0-0.5-0.2-0.5-0.5c0-0.3,0.2-0.5,0.5-0.5h11c0.3,0,0.5,0.2,0.5,0.5
				C59.3,56.9,59.1,57.1,58.8,57.1z"/>
		</g>
	</g>
	<g>
		<g>
			<path class="st6" d="M28.7,3.9c4.2,4.2,4.2,10.9,0,15.1c-4.2,4.2-10.9,4.2-15.1,0c-4.2-4.2-4.2-10.9,0-15.1
				C17.8-0.3,24.5-0.3,28.7,3.9z"/>
		</g>
	</g>
	<g>
		<g>
			<path class="st1" d="M21.2,22.9c-2.9,0-5.9-1.1-8.1-3.3c-4.5-4.5-4.5-11.7,0-16.2c2.2-2.2,5-3.4,8.1-3.4c3.1,0,5.9,1.2,8.1,3.4
				l0,0c0,0,0,0,0,0c2.2,2.2,3.4,5,3.4,8.1c0,3.1-1.2,5.9-3.4,8.1C27,21.8,24.1,22.9,21.2,22.9z M21.2,1.5c-2.6,0-5.1,1-7,2.9
				c-3.9,3.9-3.9,10.2,0,14c3.9,3.9,10.2,3.9,14,0c1.9-1.9,2.9-4.4,2.9-7c0-2.6-1-5.1-2.9-7c0,0,0,0,0,0C26.3,2.6,23.8,1.5,21.2,1.5
				z"/>
		</g>
	</g>
	<g>
		<g>
			<g>
				<path class="st1" d="M21.2,16.2c-1.2,0-2.4-0.5-3.3-1.4c-1.8-1.8-1.8-4.8,0-6.7c0.9-0.9,2.1-1.4,3.3-1.4c1.3,0,2.4,0.5,3.3,1.4
					v0c0.9,0.9,1.4,2.1,1.4,3.3s-0.5,2.4-1.4,3.3C23.6,15.7,22.4,16.2,21.2,16.2z M21.2,8.8c-0.7,0-1.4,0.3-1.9,0.8
					c-1,1-1,2.7,0,3.8c1,1,2.7,1,3.8,0c0.5-0.5,0.8-1.2,0.8-1.9c0-0.7-0.3-1.4-0.8-1.9C22.5,9.1,21.9,8.8,21.2,8.8z"/>
			</g>
		</g>
		<g>
			<g>
				<g>
					
						<rect x="16.5" y="6.5" transform="matrix(0.7071 -0.7071 0.7071 0.7071 -0.4136 14.7138)" class="st1" width="2.1" height="2.8"/>
				</g>
			</g>
			<g>
				<g>
					
						<rect x="23.7" y="13.6" transform="matrix(0.7071 -0.7071 0.7071 0.7071 -3.3939 21.9088)" class="st1" width="2.1" height="2.8"/>
				</g>
			</g>
		</g>
		<g>
			<g>
				<g>
					<rect x="23.3" y="6.8" transform="matrix(0.7072 -0.707 0.707 0.7072 1.6927 19.7995)" class="st1" width="2.8" height="2.1"/>
				</g>
			</g>
			<g>
				<g>
					<rect x="16.1" y="14" transform="matrix(0.7072 -0.707 0.707 0.7072 -5.5016 16.819)" class="st1" width="2.8" height="2.1"/>
				</g>
			</g>
		</g>
	</g>
	<g>
		<g>
			<path class="st6" d="M124.2,49.1c4,4,4,10.4,0,14.4c-4,4-10.4,4-14.4,0c-4-4-4-10.4,0-14.4C113.8,45.1,120.3,45.1,124.2,49.1z"/>
		</g>
	</g>
	<g>
		<g>
			<path class="st1" d="M117,67.2c-2.8,0-5.6-1.1-7.8-3.2c-4.3-4.3-4.3-11.2,0-15.5c2.1-2.1,4.8-3.2,7.8-3.2s5.7,1.1,7.8,3.2l0,0
				c0,0,0,0,0,0c2.1,2.1,3.2,4.8,3.2,7.8c0,2.9-1.1,5.7-3.2,7.8C122.7,66.2,119.8,67.2,117,67.2z M117,46.8c-2.5,0-4.9,1-6.7,2.8
				c-3.7,3.7-3.7,9.7,0,13.3c3.7,3.7,9.7,3.7,13.3,0c1.8-1.8,2.8-4.1,2.8-6.7c0-2.5-1-4.9-2.8-6.7c0,0,0,0,0,0
				C121.9,47.8,119.6,46.8,117,46.8z"/>
		</g>
	</g>
	<g>
		<g>
			<g>
				<path class="st1" d="M117,61c-1.2,0-2.4-0.5-3.3-1.4c-1.8-1.8-1.8-4.8,0-6.7c1.8-1.8,4.8-1.8,6.7,0c0.9,0.9,1.4,2.1,1.4,3.3
					c0,1.3-0.5,2.4-1.4,3.3C119.4,60.5,118.2,61,117,61z M117,53.6c-0.7,0-1.4,0.3-1.9,0.8c-1,1-1,2.7,0,3.8c1,1,2.7,1,3.8,0
					c0.5-0.5,0.8-1.2,0.8-1.9c0-0.7-0.3-1.4-0.8-1.9C118.4,53.9,117.7,53.6,117,53.6z"/>
			</g>
		</g>
		<g>
			<g>
				<g>
					
						<rect x="112.4" y="51.3" transform="matrix(0.7072 -0.7071 0.7071 0.7072 -4.0205 95.6301)" class="st1" width="2.1" height="2.8"/>
				</g>
			</g>
			<g>
				<g>
					
						<rect x="119.6" y="58.5" transform="matrix(0.7071 -0.7071 0.7071 0.7071 -6.9981 102.8327)" class="st1" width="2.1" height="2.8"/>
				</g>
			</g>
		</g>
		<g>
			<g>
				<g>
					
						<rect x="119.2" y="51.6" transform="matrix(0.7072 -0.707 0.707 0.7072 -1.9146 100.7147)" class="st1" width="2.8" height="2.1"/>
				</g>
			</g>
			<g>
				<g>
					
						<rect x="112" y="58.8" transform="matrix(0.7072 -0.707 0.707 0.7072 -9.1088 97.7342)" class="st1" width="2.8" height="2.1"/>
				</g>
			</g>
		</g>
	</g>
	<g>
		<g>
			<path class="st1" d="M93.3,78.6H78.2c-0.4,0-0.8-0.3-0.8-0.8c0-0.4,0.3-0.8,0.8-0.8h15.1c0.4,0,0.8,0.3,0.8,0.8
				C94.1,78.3,93.7,78.6,93.3,78.6z"/>
		</g>
	</g>
	<ellipse class="st0" cx="18.8" cy="48.1" rx="10.3" ry="9"/>
	<path class="st1" d="M18.8,57.9c-6.2,0-11.2-5-11.2-11.2s5-11.2,11.2-11.2S30,40.5,30,46.7S25,57.9,18.8,57.9z M18.8,37.1
		c-5.3,0-9.7,4.3-9.7,9.7c0,5.3,4.3,9.7,9.7,9.7s9.7-4.3,9.7-9.7C28.5,41.4,24.1,37.1,18.8,37.1z"/>
	<path class="st1" d="M18.8,51.4c-0.3,0-0.5-0.1-0.7-0.3l-3.4-3.4c-0.4-0.4-0.4-1.1,0-1.5c0.4-0.4,1.1-0.4,1.5,0l2.7,2.7l2.7-2.7
		c0.4-0.4,1.1-0.4,1.5,0c0.4,0.4,0.4,1.1,0,1.5l-3.4,3.4C19.3,51.3,19.1,51.4,18.8,51.4z"/>
	<path class="st1" d="M18.8,74.9c-0.6,0-1-0.5-1-1V50.4c0-0.6,0.5-1,1-1s1,0.5,1,1v23.5C19.8,74.4,19.4,74.9,18.8,74.9z"/>
	<g>
		<g>
			<path class="st1" d="M19.2,66.5c-0.3,0-0.5-0.1-0.7-0.3c-0.4-0.4-0.4-1.1,0-1.5l3.3-3.3c0.4-0.4,1.1-0.4,1.5,0
				c0.4,0.4,0.4,1.1,0,1.5l-3.3,3.3C19.7,66.4,19.5,66.5,19.2,66.5z"/>
		</g>
	</g>
	<g>
		<g>
			<path class="st1" d="M18.6,64.3c-0.3,0-0.5-0.1-0.7-0.3l-3.3-3.3c-0.4-0.4-0.4-1.1,0-1.5c0.4-0.4,1.1-0.4,1.5,0l3.3,3.3
				c0.4,0.4,0.4,1.1,0,1.5C19.2,64.2,18.9,64.3,18.6,64.3z"/>
		</g>
	</g>
	<g>
		<g>
			<path class="st7" d="M75,83c-0.3,0-0.5-0.2-0.5-0.5v-4.5c0-0.3,0.2-0.5,0.5-0.5s0.5,0.2,0.5,0.5v4.5C75.5,82.8,75.3,83,75,83z"/>
		</g>
	</g>
	<g>
		<g>
			<path class="st7" d="M78.6,83c-0.3,0-0.5-0.2-0.5-0.5v-4.5c0-0.3,0.2-0.5,0.5-0.5s0.5,0.2,0.5,0.5v4.5C79.1,82.8,78.9,83,78.6,83
				z"/>
		</g>
	</g>
	<g>
		<g>
			<path class="st7" d="M82.2,83c-0.3,0-0.5-0.2-0.5-0.5v-4.5c0-0.3,0.2-0.5,0.5-0.5s0.5,0.2,0.5,0.5v4.5C82.7,82.8,82.5,83,82.2,83
				z"/>
		</g>
	</g>
	<g>
		<g>
			<path class="st1" d="M85.8,83c-0.3,0-0.5-0.2-0.5-0.5v-4.5c0-0.3,0.2-0.5,0.5-0.5s0.5,0.2,0.5,0.5v4.5C86.3,82.8,86,83,85.8,83z"
				/>
		</g>
	</g>
	<g>
		<g>
			<path class="st1" d="M89.4,83c-0.3,0-0.5-0.2-0.5-0.5v-4.5c0-0.3,0.2-0.5,0.5-0.5s0.5,0.2,0.5,0.5v4.5C89.9,82.8,89.6,83,89.4,83
				z"/>
		</g>
	</g>
	<g>
		<g>
			<path class="st8" d="M12.9,96.3"/>
		</g>
	</g>
	<g>
		<g>
			<g>
				<path class="st0" d="M18.8,106.3c0,0.9-0.8,1.7-1.7,1.7H2.7c-0.9,0-1.7-0.8-1.7-1.7V70.8c0-0.9,0.8-1.7,1.7-1.7h14.3
					c0.9,0,1.7,0.8,1.7,1.7V106.3z"/>
			</g>
		</g>
		<g>
			<g>
				<path class="st5" d="M18.8,100.1c0,0.6-0.8,1.1-1.7,1.1H2.7c-0.9,0-1.7-0.5-1.7-1.1v-23c0-0.6,0.8-1.1,1.7-1.1h14.3
					c0.9,0,1.7,0.5,1.7,1.1V100.1z"/>
			</g>
		</g>
		<g>
			<g>
				<path class="st9" d="M118.2,75.5c-0.5-2.6-4.2-6-9.8-2.6c-5.6,3.4-26.6,12.3-26.6,12.3c3.4-5.8,0.5-11-5.6-10.3
					c-6.2,0.7-19.7,0.9-32.5-2.7c-9.6-2.6-20.1,0.1-24.8,1.7v30.2c8.7,0.5,44.4,2.6,51.5,1.6c8.1-1.2,37.7-19.3,42.7-22.1
					C118,80.7,118.7,78.1,118.2,75.5z"/>
			</g>
		</g>
		<g>
			<g>
				<path class="st6" d="M70.3,105.7c8.1-1.2,37.7-19.3,42.7-22.1c3-1.7,4.4-3.4,5-5c-0.8-2.5-4.4-5.4-9.7-2.1
					c-5.6,3.4-26.6,12.3-26.6,12.3c0.9-1.5,1.3-2.9,1.4-4.2c-0.9,0.4-1.4,0.6-1.4,0.6c0.6-1,1-2,1.2-2.9c-0.7-2.6-3.2-4.2-6.8-3.8
					c-6.2,0.7-19.7,0.9-32.5-2.7c-9.6-2.6-20.1,0.1-24.8,1.7v26.6C27.5,104.7,63.2,106.8,70.3,105.7z"/>
			</g>
		</g>
	</g>
	<g>
		<g>
			<path class="st10" d="M19.9,77.2c-0.4,0.1-0.7,0.2-1.1,0.3v26.6c4.8,0.3,17.7,1.1,29.6,1.5L19.9,77.2z"/>
		</g>
	</g>
	<g>
		<g>
			<g>
				<path class="st1" d="M17.1,109H2.7c-1.5,0-2.7-1.2-2.7-2.7V70.8c0-1.5,1.2-2.7,2.7-2.7h14.3c1.5,0,2.7,1.2,2.7,2.7v35.5
					C19.8,107.8,18.6,109,17.1,109z M2.7,70.1c-0.4,0-0.7,0.3-0.7,0.7v35.5c0,0.4,0.3,0.7,0.7,0.7h14.3c0.4,0,0.7-0.3,0.7-0.7V70.8
					c0-0.4-0.3-0.7-0.7-0.7H2.7z"/>
			</g>
		</g>
		<g>
			<g>
				<path class="st1" d="M63.3,107c-12.8,0-36.3-1.4-44.6-1.9c-0.5,0-1-0.5-1-1V73.9c0-0.4,0.3-0.8,0.7-1c5.3-1.8,15.8-4.4,25.4-1.7
					c12.8,3.5,26.2,3.3,32.1,2.6c3.2-0.4,5.8,0.7,7.2,2.9c1.2,1.8,1.3,4.1,0.6,6.5c5.7-2.4,19.7-8.6,24-11.2c3.5-2.1,6.1-1.7,7.7-1
					c1.8,0.8,3.3,2.5,3.6,4.3l0,0c0.7,3.7-1,6.5-5.6,9.2c-0.6,0.4-1.6,0.9-2.9,1.7c-15.3,9.1-33.7,19.6-40.2,20.6
					C69.1,107,66.5,107,63.3,107z M19.8,103.2c9.1,0.5,43.5,2.5,50.4,1.5c6.9-1,30.6-15,39.5-20.3c1.3-0.8,2.3-1.3,2.9-1.7
					c4.7-2.7,5-5,4.6-7l0,0c-0.2-1-1-2.2-2.4-2.8c-1.7-0.7-3.7-0.4-5.9,0.9c-5.6,3.4-25.9,12-26.7,12.4c-0.4,0.2-0.9,0.1-1.2-0.3
					c-0.3-0.3-0.3-0.8-0.1-1.2c1.5-2.5,1.7-5.1,0.6-6.8c-1-1.5-2.9-2.2-5.2-1.9c-6,0.7-19.8,0.9-32.9-2.7c-9-2.5-19,0-23.5,1.5
					V103.2z"/>
			</g>
		</g>
		<g>
			<g>
				<path class="st1" d="M54.9,92.3c-0.1,0-0.2,0-0.3,0c-0.5-0.2-0.8-0.7-0.7-1.3c0.6-1.9,1.3-2.5,14.9-3.5
					c11.9-0.9,12.7-4.1,12.7-4.1c0,0,0,0.1,0,0.1l2,0.1c-0.1,0.8-1,4.9-14.6,6c-6.3,0.5-9.9,0.9-11.7,1.3c-1.2,0.3-1.3,0.5-1.4,0.7
					C55.8,92.1,55.4,92.3,54.9,92.3z"/>
			</g>
		</g>
	</g>
	<g>
		<g>
			<path class="st1" d="M61.6,67H45c-0.4,0-0.8-0.3-0.8-0.8v-4.1c0-0.4,0.3-0.8,0.8-0.8h16.6c0.4,0,0.8,0.3,0.8,0.8v4.1
				C62.4,66.6,62,67,61.6,67z M45.8,65.4h15.1v-2.6H45.8V65.4z"/>
		</g>
	</g>
</g>
</svg>
