<?xml version="1.0" encoding="utf-8"?>
<!-- Generator: Adobe Illustrator 23.0.3, SVG Export Plug-In . SVG Version: 6.00 Build 0)  -->
<svg version="1.1" id="Layer_1" xmlns="http://www.w3.org/2000/svg" xmlns:xlink="http://www.w3.org/1999/xlink" x="0px" y="0px"
	 viewBox="0 0 128 128" style="enable-background:new 0 0 128 128;" xml:space="preserve">
<style type="text/css">
	.st0{fill:#45ABFF;}
	.st1{fill:#80C0FF;}
	.st2{fill:#0C5ADB;}
	.st3{fill:#E9F6FF;}
	.st4{fill:#C8DFF5;}
</style>
<g>
	<g>
		<path class="st0" d="M35.7,35.7c15.6-15.6,41-15.6,56.6,0c15.6,15.6,15.6,41,0,56.6c-15.6,15.6-41,15.6-56.6,0
			C20.1,76.7,20.1,51.3,35.7,35.7z"/>
	</g>
	<g>
		<path class="st1" d="M74.5,46H46L35.7,35.7c0,0,0,0,0,0c-15.6,15.6-15.6,41,0,56.6c0,0,0,0,0,0L47,81l22.9-26L68,50L74.5,46z"/>
		<path class="st1" d="M82,46h-4.2l-7.9,9L79,79l12.9,13.7c0.1-0.1,0.2-0.2,0.4-0.3c15.6-15.6,15.6-41,0-56.6L82,46z"/>
	</g>
	<g>
		<g>
			<g>
				<g>
					<path class="st0" d="M20.6,62.5l-1,0c0-0.3,0-0.7,0-1l1,0.1C20.7,61.8,20.6,62.2,20.6,62.5z M20.7,60.5l-1-0.1
						c0-0.3,0.1-0.7,0.1-1l1,0.1C20.8,59.8,20.8,60.2,20.7,60.5z M21,58.5l-1-0.1c0-0.3,0.1-0.7,0.1-1l1,0.2
						C21,57.8,21,58.2,21,58.5z M21.3,56.5l-1-0.2c0.1-0.3,0.1-0.7,0.2-1l1,0.2C21.4,55.9,21.3,56.2,21.3,56.5z M21.6,54.5l-1-0.2
						c0.1-0.3,0.2-0.7,0.2-1l1,0.2C21.8,53.9,21.7,54.2,21.6,54.5z M22.1,52.6l-1-0.3c0.1-0.3,0.2-0.7,0.3-1l1,0.3
						C22.3,52,22.2,52.3,22.1,52.6z M22.7,50.7l-1-0.3c0.1-0.3,0.2-0.7,0.3-1l1,0.3C22.9,50,22.8,50.4,22.7,50.7z M23.4,48.8l-1-0.4
						c0.1-0.3,0.2-0.6,0.4-1l1,0.4C23.6,48.2,23.5,48.5,23.4,48.8z M24.1,46.9l-0.9-0.4c0.1-0.3,0.3-0.6,0.4-0.9l0.9,0.4
						C24.4,46.3,24.2,46.6,24.1,46.9z M24.9,45.1L24,44.6c0.1-0.3,0.3-0.6,0.5-0.9l0.9,0.5C25.2,44.5,25.1,44.8,24.9,45.1z
						 M25.9,43.3L25,42.8c0.2-0.3,0.3-0.6,0.5-0.9l0.9,0.5C26.2,42.7,26,43,25.9,43.3z M26.9,41.6L26,41c0.2-0.3,0.4-0.6,0.5-0.9
						l0.9,0.6C27.2,41,27,41.3,26.9,41.6z M27.9,39.9l-0.9-0.6c0.2-0.3,0.4-0.6,0.6-0.8l0.8,0.6C28.3,39.3,28.1,39.6,27.9,39.9z
						 M29.1,38.2l-0.8-0.6c0.2-0.3,0.4-0.5,0.6-0.8l0.8,0.6C29.5,37.7,29.3,38,29.1,38.2z M30.3,36.6L29.5,36
						c0.2-0.3,0.4-0.5,0.7-0.8l0.8,0.7C30.7,36.1,30.5,36.4,30.3,36.6z M31.6,35.1l-0.8-0.7c0.2-0.3,0.5-0.5,0.7-0.8l0.8,0.7
						C32.1,34.6,31.8,34.9,31.6,35.1z M33,33.7l-0.7-0.7c0.2-0.2,0.5-0.5,0.7-0.7l0.7,0.7C33.5,33.2,33.2,33.4,33,33.7z M34.4,32.3
						l-0.7-0.8c0.3-0.2,0.5-0.5,0.8-0.7l0.7,0.8C34.9,31.8,34.7,32,34.4,32.3z M35.9,30.9l-0.7-0.8c0.3-0.2,0.5-0.4,0.8-0.7l0.6,0.8
						C36.4,30.5,36.2,30.7,35.9,30.9z M37.5,29.7l-0.6-0.8c0.3-0.2,0.5-0.4,0.8-0.6l0.6,0.8C38,29.3,37.7,29.5,37.5,29.7z
						 M39.1,28.5l-0.6-0.8c0.3-0.2,0.6-0.4,0.8-0.6l0.6,0.9C39.6,28.1,39.4,28.3,39.1,28.5z M40.7,27.4l-0.6-0.9
						c0.3-0.2,0.6-0.4,0.9-0.5l0.5,0.9C41.3,27,41,27.2,40.7,27.4z M42.5,26.3l-0.5-0.9c0.3-0.2,0.6-0.3,0.9-0.5l0.5,0.9
						C43,26,42.7,26.2,42.5,26.3z M44.2,25.4l-0.5-0.9c0.3-0.2,0.6-0.3,0.9-0.5l0.4,0.9C44.8,25.1,44.5,25.2,44.2,25.4z M46,24.5
						l-0.4-0.9c0.3-0.1,0.6-0.3,0.9-0.4l0.4,0.9C46.6,24.2,46.3,24.4,46,24.5z M47.8,23.7l-0.4-1c0.3-0.1,0.6-0.3,1-0.4l0.4,1
						C48.5,23.5,48.2,23.6,47.8,23.7z M49.7,23l-0.3-1c0.3-0.1,0.6-0.2,1-0.3l0.3,1C50.4,22.8,50,22.9,49.7,23z M51.6,22.4l-0.3-1
						c0.3-0.1,0.7-0.2,1-0.3l0.3,1C52.3,22.2,51.9,22.3,51.6,22.4z M53.6,21.9l-0.2-1c0.3-0.1,0.7-0.2,1-0.2l0.2,1
						C54.2,21.7,53.9,21.8,53.6,21.9z M55.5,21.4l-0.2-1c0.3-0.1,0.7-0.1,1-0.2l0.2,1C56.2,21.3,55.8,21.4,55.5,21.4z M57.5,21.1
						l-0.2-1c0.3-0.1,0.7-0.1,1-0.1l0.1,1C58.1,21,57.8,21,57.5,21.1z M59.5,20.8l-0.1-1c0.3,0,0.7-0.1,1-0.1l0.1,1
						C60.1,20.8,59.8,20.8,59.5,20.8z M61.5,20.7l-0.1-1c0.3,0,0.7,0,1,0l0,1C62.1,20.6,61.8,20.7,61.5,20.7z"/>
				</g>
			</g>
		</g>
		<g>
			<g>
				<g>
					<path class="st0" d="M65.6,108.4l0-1c0.3,0,0.7,0,1,0l0.1,1C66.2,108.4,65.9,108.4,65.6,108.4z M67.6,108.3l-0.1-1
						c0.3,0,0.7-0.1,1-0.1l0.1,1C68.3,108.2,68,108.2,67.6,108.3z M69.7,108.1l-0.1-1c0.3,0,0.7-0.1,1-0.1l0.2,1
						C70.3,108,70,108,69.7,108.1z M71.7,107.8l-0.2-1c0.3-0.1,0.7-0.1,1-0.2l0.2,1C72.4,107.6,72,107.7,71.7,107.8z M73.7,107.4
						l-0.2-1c0.3-0.1,0.7-0.1,1-0.2l0.2,1C74.4,107.2,74,107.3,73.7,107.4z M75.7,106.9l-0.3-1c0.3-0.1,0.6-0.2,1-0.3l0.3,1
						C76.3,106.7,76,106.8,75.7,106.9z M77.7,106.3l-0.3-1c0.3-0.1,0.6-0.2,0.9-0.3l0.3,1C78.3,106.1,78,106.2,77.7,106.3z
						 M79.6,105.6l-0.4-1c0.3-0.1,0.6-0.2,0.9-0.4l0.4,1C80.2,105.4,79.9,105.5,79.6,105.6z M81.5,104.8l-0.4-0.9
						c0.3-0.1,0.6-0.3,0.9-0.4l0.4,0.9C82.1,104.6,81.8,104.7,81.5,104.8z M83.3,104l-0.4-0.9c0.3-0.1,0.6-0.3,0.9-0.4l0.5,0.9
						C84,103.7,83.7,103.8,83.3,104z M85.2,103.1l-0.5-0.9c0.3-0.2,0.6-0.3,0.9-0.5l0.5,0.9C85.8,102.7,85.5,102.9,85.2,103.1z
						 M86.9,102l-0.5-0.9c0.3-0.2,0.6-0.3,0.9-0.5l0.6,0.9C87.5,101.7,87.2,101.9,86.9,102z M88.7,100.9l-0.6-0.9
						c0.3-0.2,0.6-0.4,0.8-0.6l0.6,0.8C89.2,100.6,89,100.8,88.7,100.9z M90.3,99.8l-0.6-0.8c0.3-0.2,0.5-0.4,0.8-0.6l0.6,0.8
						C90.9,99.4,90.6,99.6,90.3,99.8z M92,98.5l-0.6-0.8c0.3-0.2,0.5-0.4,0.8-0.6l0.7,0.8C92.5,98.1,92.2,98.3,92,98.5z M93.5,97.2
						l-0.7-0.8c0.2-0.2,0.5-0.4,0.7-0.7l0.7,0.8C94,96.7,93.8,97,93.5,97.2z M95,95.8l-0.7-0.7c0.2-0.2,0.5-0.5,0.7-0.7l0.7,0.7
						C95.5,95.3,95.3,95.5,95,95.8z M96.5,94.3l-0.8-0.7c0.2-0.2,0.5-0.5,0.7-0.7l0.8,0.7C96.9,93.8,96.7,94.1,96.5,94.3z
						 M97.8,92.8L97,92.1c0.2-0.3,0.4-0.5,0.6-0.8l0.8,0.6C98.3,92.3,98.1,92.5,97.8,92.8z M99.1,91.2l-0.8-0.6
						c0.2-0.3,0.4-0.5,0.6-0.8l0.8,0.6C99.5,90.7,99.3,90.9,99.1,91.2z M100.3,89.5L99.5,89c0.2-0.3,0.4-0.5,0.6-0.8l0.9,0.6
						C100.7,89,100.5,89.3,100.3,89.5z M101.5,87.8l-0.9-0.6c0.2-0.3,0.4-0.6,0.5-0.9L102,87C101.9,87.3,101.7,87.6,101.5,87.8z
						 M102.6,86.1l-0.9-0.5c0.2-0.3,0.3-0.6,0.5-0.9l0.9,0.5C102.9,85.5,102.7,85.8,102.6,86.1z M103.5,84.3l-0.9-0.5
						c0.2-0.3,0.3-0.6,0.4-0.9l0.9,0.4C103.8,83.7,103.7,84,103.5,84.3z M104.4,82.4l-0.9-0.4c0.1-0.3,0.3-0.6,0.4-0.9l0.9,0.4
						C104.7,81.8,104.6,82.1,104.4,82.4z M105.2,80.5l-1-0.4c0.1-0.3,0.2-0.6,0.4-0.9l1,0.4C105.5,79.9,105.4,80.2,105.2,80.5z
						 M106,78.6l-1-0.3c0.1-0.3,0.2-0.6,0.3-1l1,0.3C106.2,78,106.1,78.3,106,78.6z M106.6,76.7l-1-0.3c0.1-0.3,0.2-0.6,0.3-1l1,0.3
						C106.8,76,106.7,76.3,106.6,76.7z M107.1,74.7l-1-0.2c0.1-0.3,0.2-0.6,0.2-1l1,0.2C107.3,74,107.2,74.3,107.1,74.7z
						 M107.6,72.7l-1-0.2c0.1-0.3,0.1-0.7,0.2-1l1,0.2C107.7,72,107.6,72.3,107.6,72.7z M107.9,70.6l-1-0.2c0-0.3,0.1-0.7,0.1-1
						l1,0.1C108,70,108,70.3,107.9,70.6z M108.2,68.6l-1-0.1c0-0.3,0.1-0.7,0.1-1l1,0.1C108.3,67.9,108.2,68.3,108.2,68.6z
						 M108.4,66.6l-1-0.1c0-0.3,0-0.7,0-1l1,0C108.4,65.9,108.4,66.2,108.4,66.6z"/>
				</g>
			</g>
		</g>
	</g>
	<g>
		<g>
			<rect x="63.5" y="91.6" class="st2" width="1" height="21.1"/>
		</g>
		<g>
			<rect x="63.5" y="15.3" class="st2" width="1" height="8.9"/>
		</g>
	</g>
	<g>
		<g>
			<rect x="91.6" y="63.5" class="st2" width="21.1" height="1"/>
		</g>
		<g>
			<rect x="15.3" y="63.5" class="st2" width="8.9" height="1"/>
		</g>
	</g>
	<g>
		<g>
			<path class="st2" d="M64,108.4c-24.5,0-44.4-19.9-44.4-44.4h1c0,23.9,19.5,43.4,43.4,43.4V108.4z"/>
		</g>
		<g>
			<path class="st2" d="M107.4,64c0-23.9-19.5-43.4-43.4-43.4v-1c24.5,0,44.4,19.9,44.4,44.4H107.4z"/>
		</g>
	</g>
	<g>
		<g>
			<g>
				<g>
					<path class="st0" d="M64,113c-0.2,0-0.3,0-0.5,0l0-1c0.2,0,0.3,0,0.5,0V113z"/>
				</g>
			</g>
			<g>
				<g>
					<path class="st0" d="M54.2,112c-0.3-0.1-0.7-0.1-1-0.2l0.2-1c0.3,0.1,0.7,0.1,1,0.2L54.2,112z M52.2,111.5
						c-0.3-0.1-0.7-0.2-1-0.3l0.3-1c0.3,0.1,0.7,0.2,1,0.3L52.2,111.5z M50.2,111c-0.3-0.1-0.7-0.2-1-0.3l0.3-1
						c0.3,0.1,0.7,0.2,1,0.3L50.2,111z M48.2,110.4c-0.3-0.1-0.7-0.2-1-0.3l0.4-1c0.3,0.1,0.6,0.2,1,0.3L48.2,110.4z M46.2,109.7
						c-0.3-0.1-0.6-0.3-1-0.4l0.4-1c0.3,0.1,0.6,0.3,0.9,0.4L46.2,109.7z M44.3,108.9c-0.3-0.1-0.6-0.3-0.9-0.4l0.4-0.9
						c0.3,0.1,0.6,0.3,0.9,0.4L44.3,108.9z M42.4,108c-0.3-0.2-0.6-0.3-0.9-0.5l0.5-0.9c0.3,0.2,0.6,0.3,0.9,0.5L42.4,108z
						 M40.5,107c-0.3-0.2-0.6-0.3-0.9-0.5l0.5-0.9c0.3,0.2,0.6,0.3,0.9,0.5L40.5,107z M38.7,106c-0.3-0.2-0.6-0.4-0.9-0.5l0.6-0.9
						c0.3,0.2,0.6,0.4,0.9,0.5L38.7,106z M37,104.9c-0.3-0.2-0.6-0.4-0.9-0.6l0.6-0.8c0.3,0.2,0.6,0.4,0.8,0.6L37,104.9z
						 M35.3,103.7c-0.3-0.2-0.6-0.4-0.8-0.6l0.6-0.8c0.3,0.2,0.5,0.4,0.8,0.6L35.3,103.7z M33.6,102.4c-0.3-0.2-0.5-0.4-0.8-0.7
						l0.7-0.8c0.3,0.2,0.5,0.4,0.8,0.6L33.6,102.4z M32,101.1c-0.3-0.2-0.5-0.5-0.8-0.7l0.7-0.8c0.3,0.2,0.5,0.5,0.8,0.7L32,101.1z
						 M30.5,99.7c-0.3-0.2-0.5-0.5-0.7-0.7l0.7-0.7c0.2,0.2,0.5,0.5,0.7,0.7L30.5,99.7z M29,98.2c-0.2-0.2-0.5-0.5-0.7-0.8l0.8-0.7
						c0.2,0.2,0.5,0.5,0.7,0.7L29,98.2z M27.6,96.7c-0.2-0.3-0.5-0.5-0.7-0.8l0.8-0.7c0.2,0.3,0.4,0.5,0.7,0.8L27.6,96.7z
						 M26.2,95.2c-0.2-0.3-0.4-0.5-0.7-0.8l0.8-0.6c0.2,0.3,0.4,0.5,0.6,0.8L26.2,95.2z M24.9,93.5c-0.2-0.3-0.4-0.6-0.6-0.8
						l0.8-0.6c0.2,0.3,0.4,0.5,0.6,0.8L24.9,93.5z M23.7,91.8c-0.2-0.3-0.4-0.6-0.6-0.9l0.9-0.6c0.2,0.3,0.4,0.6,0.6,0.8L23.7,91.8z
						 M22.5,90.1c-0.2-0.3-0.4-0.6-0.5-0.9l0.9-0.5c0.2,0.3,0.4,0.6,0.5,0.9L22.5,90.1z M21.5,88.3c-0.2-0.3-0.3-0.6-0.5-0.9
						l0.9-0.5c0.2,0.3,0.3,0.6,0.5,0.9L21.5,88.3z M20.5,86.5c-0.2-0.3-0.3-0.6-0.5-0.9l0.9-0.5c0.1,0.3,0.3,0.6,0.5,0.9L20.5,86.5z
						 M19.6,84.7c-0.1-0.3-0.3-0.6-0.4-0.9l0.9-0.4c0.1,0.3,0.3,0.6,0.4,0.9L19.6,84.7z M18.7,82.8c-0.1-0.3-0.3-0.6-0.4-1l1-0.4
						c0.1,0.3,0.2,0.6,0.4,0.9L18.7,82.8z M18,80.8c-0.1-0.3-0.2-0.7-0.3-1l1-0.3c0.1,0.3,0.2,0.6,0.3,1L18,80.8z M17.3,78.9
						c-0.1-0.3-0.2-0.7-0.3-1l1-0.3c0.1,0.3,0.2,0.7,0.3,1L17.3,78.9z M16.7,76.9c-0.1-0.3-0.2-0.7-0.3-1l1-0.2
						c0.1,0.3,0.2,0.7,0.3,1L16.7,76.9z M16.2,74.8c-0.1-0.3-0.1-0.7-0.2-1l1-0.2c0.1,0.3,0.1,0.7,0.2,1L16.2,74.8z"/>
				</g>
			</g>
			<g>
				<g>
					<path class="st0" d="M15,64.5c0-0.2,0-0.3,0-0.5h1c0,0.2,0,0.3,0,0.5L15,64.5z"/>
				</g>
			</g>
		</g>
		<g>
			<g>
				<g>
					<path class="st0" d="M64.5,16c-0.2,0-0.3,0-0.5,0v-1c0.2,0,0.3,0,0.5,0L64.5,16z"/>
				</g>
			</g>
			<g>
				<g>
					<path class="st0" d="M111,54.4c-0.1-0.3-0.1-0.7-0.2-1l1-0.2c0.1,0.3,0.1,0.7,0.2,1L111,54.4z M110.5,52.4
						c-0.1-0.3-0.2-0.7-0.3-1l1-0.3c0.1,0.3,0.2,0.7,0.3,1L110.5,52.4z M110,50.4c-0.1-0.3-0.2-0.7-0.3-1l1-0.3
						c0.1,0.3,0.2,0.7,0.3,1L110,50.4z M109.4,48.5c-0.1-0.3-0.2-0.6-0.3-1l1-0.4c0.1,0.3,0.2,0.7,0.3,1L109.4,48.5z M108.7,46.6
						c-0.1-0.3-0.2-0.6-0.4-0.9l1-0.4c0.1,0.3,0.3,0.6,0.4,1L108.7,46.6z M107.9,44.7c-0.1-0.3-0.3-0.6-0.4-0.9l0.9-0.4
						c0.1,0.3,0.3,0.6,0.4,0.9L107.9,44.7z M107.1,42.9c-0.1-0.3-0.3-0.6-0.5-0.9l0.9-0.5c0.2,0.3,0.3,0.6,0.5,0.9L107.1,42.9z
						 M106.1,41.1c-0.2-0.3-0.3-0.6-0.5-0.9l0.9-0.5c0.2,0.3,0.3,0.6,0.5,0.9L106.1,41.1z M105.1,39.3c-0.2-0.3-0.4-0.6-0.5-0.9
						l0.9-0.5c0.2,0.3,0.4,0.6,0.5,0.9L105.1,39.3z M104,37.6c-0.2-0.3-0.4-0.6-0.6-0.8l0.8-0.6c0.2,0.3,0.4,0.6,0.6,0.9L104,37.6z
						 M102.9,35.9c-0.2-0.3-0.4-0.5-0.6-0.8l0.8-0.6c0.2,0.3,0.4,0.6,0.6,0.8L102.9,35.9z M101.7,34.3c-0.2-0.3-0.4-0.5-0.6-0.8
						l0.8-0.7c0.2,0.3,0.4,0.5,0.7,0.8L101.7,34.3z M100.4,32.7c-0.2-0.3-0.4-0.5-0.7-0.8l0.8-0.7c0.2,0.3,0.5,0.5,0.7,0.8
						L100.4,32.7z M99,31.2c-0.2-0.2-0.5-0.5-0.7-0.7l0.7-0.7c0.2,0.2,0.5,0.5,0.7,0.8L99,31.2z M97.6,29.7
						c-0.2-0.2-0.5-0.5-0.7-0.7l0.7-0.7c0.3,0.2,0.5,0.5,0.7,0.7L97.6,29.7z M96.1,28.4c-0.3-0.2-0.5-0.5-0.8-0.7l0.7-0.8
						c0.3,0.2,0.5,0.5,0.8,0.7L96.1,28.4z M94.5,27c-0.3-0.2-0.5-0.4-0.8-0.6l0.6-0.8c0.3,0.2,0.5,0.4,0.8,0.7L94.5,27z M93,25.8
						c-0.3-0.2-0.5-0.4-0.8-0.6l0.6-0.8c0.3,0.2,0.6,0.4,0.8,0.6L93,25.8z M91.3,24.6c-0.3-0.2-0.6-0.4-0.8-0.6l0.6-0.9
						c0.3,0.2,0.6,0.4,0.9,0.6L91.3,24.6z M89.6,23.4c-0.3-0.2-0.6-0.4-0.9-0.5l0.5-0.9c0.3,0.2,0.6,0.4,0.9,0.5L89.6,23.4z
						 M87.9,22.4c-0.3-0.2-0.6-0.3-0.9-0.5l0.5-0.9c0.3,0.2,0.6,0.3,0.9,0.5L87.9,22.4z M86.1,21.4c-0.3-0.2-0.6-0.3-0.9-0.5
						l0.5-0.9c0.3,0.2,0.6,0.3,0.9,0.5L86.1,21.4z M84.2,20.5c-0.3-0.1-0.6-0.3-0.9-0.4l0.4-0.9c0.3,0.1,0.6,0.3,0.9,0.4L84.2,20.5z
						 M82.4,19.7c-0.3-0.1-0.6-0.3-0.9-0.4l0.4-1c0.3,0.1,0.6,0.3,1,0.4L82.4,19.7z M80.5,18.9c-0.3-0.1-0.6-0.2-1-0.3l0.3-1
						c0.3,0.1,0.7,0.2,1,0.3L80.5,18.9z M78.5,18.3c-0.3-0.1-0.7-0.2-1-0.3l0.3-1c0.3,0.1,0.7,0.2,1,0.3L78.5,18.3z M76.6,17.7
						c-0.3-0.1-0.7-0.2-1-0.3l0.2-1c0.3,0.1,0.7,0.2,1,0.3L76.6,17.7z M74.6,17.2c-0.3-0.1-0.7-0.1-1-0.2l0.2-1
						c0.3,0.1,0.7,0.1,1,0.2L74.6,17.2z M70.6,16.5c-0.3,0-0.7-0.1-1-0.1l0.1-1c0.3,0,0.7,0.1,1,0.1L70.6,16.5z"/>
				</g>
			</g>
			<g>
				<g>
					<path class="st0" d="M113,64h-1c0-0.2,0-0.3,0-0.5l1,0C113,63.7,113,63.8,113,64z"/>
				</g>
			</g>
		</g>
	</g>
	<g>
		<path class="st3" d="M44.5,44.5c10.8-10.8,28.2-10.8,39,0c10.8,10.8,10.8,28.2,0,39c-10.8,10.8-28.2,10.8-39,0
			C33.7,72.7,33.7,55.3,44.5,44.5z"/>
	</g>
	<g>
		<path class="st2" d="M64,92.4c-7.6,0-14.7-3-20.1-8.3c-5.4-5.4-8.3-12.5-8.3-20.1c0-15.7,12.8-28.4,28.4-28.4
			c15.7,0,28.4,12.8,28.4,28.4C92.4,79.7,79.7,92.4,64,92.4z M64,37.6c-14.5,0-26.4,11.8-26.4,26.4c0,7,2.7,13.7,7.7,18.7
			c5,5,11.6,7.7,18.7,7.7c14.5,0,26.4-11.8,26.4-26.4C90.4,49.5,78.5,37.6,64,37.6z"/>
	</g>
	<g>
		<g>
			<path class="st2" d="M84.1,44.7c-0.2,0-0.4-0.1-0.5-0.2c-0.3-0.3-0.3-0.8,0-1.1l7.7-7.7c0.3-0.3,0.8-0.3,1.1,0
				c0.3,0.3,0.3,0.8,0,1.1l-7.7,7.7C84.5,44.6,84.3,44.7,84.1,44.7z"/>
		</g>
		<g>
			<path class="st2" d="M36.1,92.6c-0.2,0-0.4-0.1-0.5-0.2c-0.3-0.3-0.3-0.8,0-1.1l8.5-8.5c0.3-0.3,0.8-0.3,1.1,0s0.3,0.8,0,1.1
				l-8.5,8.5C36.5,92.6,36.3,92.6,36.1,92.6z"/>
		</g>
	</g>
	<g>
		<g>
			<path class="st2" d="M91.9,92.6c-0.2,0-0.4-0.1-0.5-0.2l-7.7-7.7c-0.3-0.3-0.3-0.8,0-1.1c0.3-0.3,0.8-0.3,1.1,0l7.7,7.7
				c0.3,0.3,0.3,0.8,0,1.1C92.3,92.6,92.1,92.6,91.9,92.6z"/>
		</g>
		<g>
			<path class="st2" d="M44.6,45.4c-0.2,0-0.4-0.1-0.5-0.2l-8.5-8.5c-0.3-0.3-0.3-0.8,0-1.1c0.3-0.3,0.8-0.3,1.1,0l8.5,8.5
				c0.3,0.3,0.3,0.8,0,1.1C45,45.3,44.8,45.4,44.6,45.4z"/>
		</g>
	</g>
	<g>
		<path class="st2" d="M64,105.1c-11,0-21.3-4.3-29-12c-7.8-7.8-12-18.1-12-29c0-22.6,18.4-41.1,41.1-41.1
			c22.6,0,41.1,18.4,41.1,41.1S86.6,105.1,64,105.1z M64,25c-21.5,0-39,17.5-39,39c0,10.4,4.1,20.2,11.4,27.6
			C43.8,98.9,53.6,103,64,103c21.5,0,39-17.5,39-39S85.5,25,64,25z"/>
	</g>
	<g>
		<g>
			<path class="st2" d="M73.2,68c-0.6-0.7-1.4-1-2.3-1c-0.8,0-1.6,0.4-2.3,1l-2.1,2.1c-0.2-0.1-0.3-0.2-0.5-0.3
				c-0.2-0.1-0.5-0.2-0.7-0.4c-2-1.3-3.8-2.9-5.5-5c-0.8-1.1-1.4-1.9-1.8-2.9c0.5-0.5,1.1-1,1.6-1.5c0.2-0.2,0.4-0.4,0.6-0.6
				c1.4-1.4,1.4-3.2,0-4.6l-1.8-1.8c-0.2-0.2-0.4-0.4-0.6-0.6c-0.4-0.4-0.8-0.8-1.3-1.2c-0.6-0.6-1.4-1-2.2-1c-0.8,0-1.6,0.3-2.3,1
				c0,0,0,0,0,0l-2.3,2.3c-0.9,0.9-1.3,1.9-1.5,3.1c-0.2,2,0.4,3.8,0.9,5c1.1,2.9,2.7,5.6,5.1,8.5c2.9,3.5,6.5,6.3,10.5,8.2
				c1.5,0.7,3.6,1.6,5.9,1.7c0.1,0,0.3,0,0.4,0c1.5,0,2.8-0.6,3.9-1.7c0,0,0,0,0,0c0.3-0.4,0.8-0.8,1.2-1.2c0.3-0.3,0.6-0.6,0.9-0.9
				c0.7-0.7,1-1.5,1-2.3c0-0.8-0.4-1.6-1-2.3L73.2,68z M75.6,75.1C75.6,75.1,75.6,75.1,75.6,75.1c-0.3,0.3-0.5,0.5-0.8,0.8
				c-0.4,0.4-0.9,0.9-1.3,1.3C72.8,78,72,78.3,71,78.3c-0.1,0-0.2,0-0.3,0c-2-0.1-3.8-0.9-5.2-1.6c-3.8-1.8-7.1-4.4-9.9-7.7
				c-2.3-2.8-3.8-5.3-4.8-8c-0.6-1.7-0.9-3-0.8-4.2c0.1-0.8,0.4-1.4,0.9-2l2.3-2.3c0.3-0.3,0.7-0.5,1-0.5c0.4,0,0.8,0.3,1,0.5
				c0,0,0,0,0,0c0.4,0.4,0.8,0.8,1.2,1.2c0.2,0.2,0.4,0.4,0.6,0.6l1.8,1.8c0.7,0.7,0.7,1.4,0,2.1c-0.2,0.2-0.4,0.4-0.6,0.6
				c-0.6,0.6-1.1,1.1-1.7,1.6c0,0,0,0,0,0c-0.6,0.6-0.5,1.1-0.3,1.5c0,0,0,0,0,0.1c0.5,1.2,1.1,2.2,2.2,3.5l0,0
				c1.8,2.3,3.8,4.1,5.9,5.4c0.3,0.2,0.6,0.3,0.8,0.4c0.2,0.1,0.5,0.2,0.7,0.4c0,0,0.1,0,0.1,0c0.2,0.1,0.4,0.2,0.7,0.2
				c0.6,0,0.9-0.3,1-0.5l2.3-2.3c0.2-0.2,0.6-0.5,1-0.5c0.4,0,0.8,0.3,1,0.5c0,0,0,0,0,0l3.7,3.7C76.3,73.7,76.3,74.4,75.6,75.1z"/>
			<path class="st2" d="M65.3,55.9c1.8,0.3,3.3,1.1,4.6,2.4s2.1,2.9,2.4,4.6c0.1,0.4,0.5,0.8,0.9,0.8c0.1,0,0.1,0,0.2,0
				c0.5-0.1,0.8-0.5,0.7-1c-0.4-2.1-1.4-4.1-2.9-5.6c-1.5-1.5-3.5-2.5-5.6-2.9c-0.5-0.1-1,0.2-1,0.7C64.4,55.4,64.8,55.8,65.3,55.9z
				"/>
			<path class="st2" d="M79.8,62.4c-0.6-3.5-2.2-6.7-4.8-9.2c-2.5-2.5-5.7-4.2-9.2-4.8c-0.5-0.1-1,0.2-1,0.7c-0.1,0.5,0.2,1,0.7,1
				c3.1,0.5,6,2,8.2,4.3c2.3,2.3,3.7,5.1,4.3,8.2c0.1,0.4,0.5,0.8,0.9,0.8c0.1,0,0.1,0,0.2,0C79.6,63.3,79.9,62.9,79.8,62.4z"/>
		</g>
	</g>
	<g>
		<g>
			<path class="st4" d="M112.2,70.3c3.5,3.5,9.1,3.5,12.6,0c3.5-3.5,3.5-9.1,0-12.6c-3.5-3.5-9.1-3.5-12.6,0
				C108.7,61.2,108.7,66.8,112.2,70.3z"/>
		</g>
		<g>
			<path class="st2" d="M118.5,73.5c-2.4,0-4.9-0.9-6.7-2.8c-1.8-1.8-2.8-4.2-2.8-6.7c0-2.5,1-4.9,2.8-6.7c3.7-3.7,9.7-3.7,13.4,0
				c3.7,3.7,3.7,9.7,0,13.4C123.4,72.6,120.9,73.5,118.5,73.5z M118.5,55.7c-2.1,0-4.2,0.8-5.9,2.4c-1.6,1.6-2.4,3.6-2.4,5.9
				c0,2.2,0.9,4.3,2.4,5.9c3.2,3.2,8.5,3.2,11.7,0c3.2-3.2,3.2-8.5,0-11.7C122.7,56.5,120.6,55.7,118.5,55.7z"/>
		</g>
		<g>
			<g>
				<path class="st2" d="M122.4,64.6c-0.2-0.2-0.5-0.4-0.8-0.4c-0.3,0-0.6,0.1-0.8,0.4l-0.7,0.7c-0.1,0-0.1-0.1-0.2-0.1
					c-0.1,0-0.2-0.1-0.2-0.1c-0.7-0.4-1.3-1-1.9-1.8c-0.3-0.4-0.5-0.7-0.6-1c0.2-0.2,0.4-0.4,0.5-0.5c0.1-0.1,0.1-0.1,0.2-0.2
					c0.5-0.5,0.5-1.1,0-1.6l-0.6-0.6c-0.1-0.1-0.1-0.1-0.2-0.2c-0.1-0.1-0.3-0.3-0.4-0.4c-0.2-0.2-0.5-0.3-0.8-0.3
					c-0.3,0-0.6,0.1-0.8,0.3c0,0,0,0,0,0l-0.8,0.8c-0.3,0.3-0.5,0.7-0.5,1.1c-0.1,0.7,0.1,1.3,0.3,1.8c0.4,1,1,2,1.8,3
					c1,1.2,2.3,2.2,3.7,2.9c0.5,0.3,1.3,0.6,2.1,0.6c0,0,0.1,0,0.1,0c0.5,0,1-0.2,1.4-0.6c0,0,0,0,0,0c0.1-0.1,0.3-0.3,0.4-0.4
					c0.1-0.1,0.2-0.2,0.3-0.3c0.2-0.2,0.4-0.5,0.4-0.8c0-0.3-0.1-0.6-0.4-0.8L122.4,64.6z M123.3,67.1
					C123.3,67.1,123.3,67.1,123.3,67.1c-0.1,0.1-0.2,0.2-0.3,0.3c-0.2,0.1-0.3,0.3-0.5,0.5c-0.2,0.3-0.5,0.4-0.9,0.4
					c0,0-0.1,0-0.1,0c-0.7,0-1.4-0.3-1.8-0.6c-1.3-0.6-2.5-1.6-3.5-2.7c-0.8-1-1.3-1.9-1.7-2.8c-0.2-0.6-0.3-1-0.3-1.5
					c0-0.3,0.1-0.5,0.3-0.7l0.8-0.8c0.1-0.1,0.2-0.2,0.4-0.2c0.1,0,0.3,0.1,0.3,0.2c0,0,0,0,0,0c0.1,0.1,0.3,0.3,0.4,0.4
					c0.1,0.1,0.1,0.2,0.2,0.2l0.6,0.6c0.3,0.3,0.3,0.5,0,0.7c-0.1,0.1-0.1,0.1-0.2,0.2c-0.2,0.2-0.4,0.4-0.6,0.6c0,0,0,0,0,0
					c-0.2,0.2-0.2,0.4-0.1,0.5c0,0,0,0,0,0c0.2,0.4,0.4,0.8,0.8,1.2l0,0c0.7,0.8,1.3,1.4,2.1,1.9c0.1,0.1,0.2,0.1,0.3,0.2
					c0.1,0,0.2,0.1,0.2,0.1c0,0,0,0,0,0c0.1,0,0.2,0.1,0.2,0.1c0.2,0,0.3-0.1,0.4-0.2l0.8-0.8c0.1-0.1,0.2-0.2,0.4-0.2
					c0.1,0,0.3,0.1,0.3,0.2c0,0,0,0,0,0l1.3,1.3C123.5,66.6,123.5,66.8,123.3,67.1z"/>
			</g>
		</g>
	</g>
	<g>
		<g>
			<path class="st4" d="M3.2,70.3c3.5,3.5,9.1,3.5,12.6,0c3.5-3.5,3.5-9.1,0-12.6c-3.5-3.5-9.1-3.5-12.6,0
				C-0.3,61.2-0.3,66.8,3.2,70.3z"/>
		</g>
		<g>
			<path class="st2" d="M9.5,73.5c-2.4,0-4.9-0.9-6.7-2.8C1,68.9,0,66.5,0,64c0-2.5,1-4.9,2.8-6.7c3.7-3.7,9.7-3.7,13.4,0
				c3.7,3.7,3.7,9.7,0,13.4C14.4,72.6,11.9,73.5,9.5,73.5z M9.5,55.7c-2.1,0-4.2,0.8-5.9,2.4c-1.6,1.6-2.4,3.6-2.4,5.9
				c0,2.2,0.9,4.3,2.4,5.9c3.2,3.2,8.5,3.2,11.7,0c3.2-3.2,3.2-8.5,0-11.7C13.7,56.5,11.6,55.7,9.5,55.7z"/>
		</g>
		<g>
			<g>
				<path class="st2" d="M13.4,64.6c-0.2-0.2-0.5-0.4-0.8-0.4c-0.3,0-0.6,0.1-0.8,0.4L11,65.3c-0.1,0-0.1-0.1-0.2-0.1
					c-0.1,0-0.2-0.1-0.2-0.1c-0.7-0.4-1.3-1-1.9-1.8c-0.3-0.4-0.5-0.7-0.6-1c0.2-0.2,0.4-0.4,0.5-0.5c0.1-0.1,0.1-0.1,0.2-0.2
					c0.5-0.5,0.5-1.1,0-1.6l-0.6-0.6c-0.1-0.1-0.1-0.1-0.2-0.2c-0.1-0.1-0.3-0.3-0.4-0.4c-0.2-0.2-0.5-0.3-0.8-0.3s-0.6,0.1-0.8,0.3
					c0,0,0,0,0,0l-0.8,0.8c-0.3,0.3-0.5,0.7-0.5,1.1c-0.1,0.7,0.1,1.3,0.3,1.8c0.4,1,1,2,1.8,3c1,1.2,2.3,2.2,3.7,2.9
					c0.5,0.3,1.3,0.6,2.1,0.6c0,0,0.1,0,0.1,0c0.5,0,1-0.2,1.4-0.6c0,0,0,0,0,0c0.1-0.1,0.3-0.3,0.4-0.4c0.1-0.1,0.2-0.2,0.3-0.3
					c0.2-0.2,0.4-0.5,0.4-0.8c0-0.3-0.1-0.6-0.4-0.8L13.4,64.6z M14.3,67.1C14.2,67.1,14.2,67.1,14.3,67.1c-0.1,0.1-0.2,0.2-0.3,0.3
					c-0.2,0.1-0.3,0.3-0.5,0.5c-0.2,0.3-0.5,0.4-0.9,0.4c0,0-0.1,0-0.1,0c-0.7,0-1.4-0.3-1.8-0.6c-1.3-0.6-2.5-1.6-3.5-2.7
					c-0.8-1-1.3-1.9-1.7-2.8c-0.2-0.6-0.3-1-0.3-1.5c0-0.3,0.1-0.5,0.3-0.7l0.8-0.8c0.1-0.1,0.2-0.2,0.4-0.2C6.8,58.9,7,59,7,59.1
					c0,0,0,0,0,0c0.1,0.1,0.3,0.3,0.4,0.4c0.1,0.1,0.1,0.2,0.2,0.2l0.6,0.6c0.3,0.3,0.3,0.5,0,0.7c-0.1,0.1-0.1,0.1-0.2,0.2
					c-0.2,0.2-0.4,0.4-0.6,0.6c0,0,0,0,0,0c-0.2,0.2-0.2,0.4-0.1,0.5c0,0,0,0,0,0c0.2,0.4,0.4,0.8,0.8,1.2l0,0
					c0.7,0.8,1.3,1.4,2.1,1.9c0.1,0.1,0.2,0.1,0.3,0.2c0.1,0,0.2,0.1,0.2,0.1c0,0,0,0,0,0c0.1,0,0.2,0.1,0.2,0.1
					c0.2,0,0.3-0.1,0.4-0.2l0.8-0.8c0.1-0.1,0.2-0.2,0.4-0.2c0.1,0,0.3,0.1,0.3,0.2c0,0,0,0,0,0l1.3,1.3
					C14.5,66.6,14.5,66.8,14.3,67.1z"/>
			</g>
		</g>
	</g>
	<g>
		<g>
			<path class="st4" d="M58.2,124.8c3.5,3.5,9.1,3.5,12.6,0c3.5-3.5,3.5-9.1,0-12.6c-3.5-3.5-9.1-3.5-12.6,0
				C54.7,115.7,54.7,121.3,58.2,124.8z"/>
		</g>
		<g>
			<path class="st2" d="M64.5,128c-2.4,0-4.9-0.9-6.7-2.8c-1.8-1.8-2.8-4.2-2.8-6.7c0-2.5,1-4.9,2.8-6.7c3.7-3.7,9.7-3.7,13.4,0
				c3.7,3.7,3.7,9.7,0,13.4C69.4,127.1,66.9,128,64.5,128z M64.5,110.2c-2.1,0-4.2,0.8-5.9,2.4c-1.6,1.6-2.4,3.6-2.4,5.9
				c0,2.2,0.9,4.3,2.4,5.9c3.2,3.2,8.5,3.2,11.7,0c3.2-3.2,3.2-8.5,0-11.7C68.7,111,66.6,110.2,64.5,110.2z"/>
		</g>
		<g>
			<g>
				<path class="st2" d="M68.4,119.1c-0.2-0.2-0.5-0.4-0.8-0.4c-0.3,0-0.6,0.1-0.8,0.4l-0.7,0.7c-0.1,0-0.1-0.1-0.2-0.1
					c-0.1,0-0.2-0.1-0.2-0.1c-0.7-0.4-1.3-1-1.9-1.8c-0.3-0.4-0.5-0.7-0.6-1c0.2-0.2,0.4-0.4,0.5-0.5c0.1-0.1,0.1-0.1,0.2-0.2
					c0.5-0.5,0.5-1.1,0-1.6l-0.6-0.6c-0.1-0.1-0.1-0.1-0.2-0.2c-0.1-0.1-0.3-0.3-0.4-0.4c-0.2-0.2-0.5-0.3-0.8-0.3
					c-0.3,0-0.6,0.1-0.8,0.3c0,0,0,0,0,0l-0.8,0.8c-0.3,0.3-0.5,0.7-0.5,1.1c-0.1,0.7,0.1,1.3,0.3,1.8c0.4,1,1,2,1.8,3
					c1,1.2,2.3,2.2,3.7,2.9c0.5,0.3,1.3,0.6,2.1,0.6c0,0,0.1,0,0.1,0c0.5,0,1-0.2,1.4-0.6c0,0,0,0,0,0c0.1-0.1,0.3-0.3,0.4-0.4
					c0.1-0.1,0.2-0.2,0.3-0.3c0.2-0.2,0.4-0.5,0.4-0.8c0-0.3-0.1-0.6-0.4-0.8L68.4,119.1z M69.3,121.6
					C69.2,121.6,69.2,121.6,69.3,121.6c-0.1,0.1-0.2,0.2-0.3,0.3c-0.2,0.1-0.3,0.3-0.5,0.5c-0.2,0.3-0.5,0.4-0.9,0.4
					c0,0-0.1,0-0.1,0c-0.7,0-1.4-0.3-1.8-0.6c-1.3-0.6-2.5-1.6-3.5-2.7c-0.8-1-1.3-1.9-1.7-2.8c-0.2-0.6-0.3-1-0.3-1.5
					c0-0.3,0.1-0.5,0.3-0.7l0.8-0.8c0.1-0.1,0.2-0.2,0.4-0.2c0.1,0,0.3,0.1,0.3,0.2c0,0,0,0,0,0c0.1,0.1,0.3,0.3,0.4,0.4
					c0.1,0.1,0.1,0.2,0.2,0.2l0.6,0.6c0.3,0.3,0.3,0.5,0,0.7c-0.1,0.1-0.1,0.1-0.2,0.2c-0.2,0.2-0.4,0.4-0.6,0.6c0,0,0,0,0,0
					c-0.2,0.2-0.2,0.4-0.1,0.5c0,0,0,0,0,0c0.2,0.4,0.4,0.8,0.8,1.2l0,0c0.7,0.8,1.3,1.4,2.1,1.9c0.1,0.1,0.2,0.1,0.3,0.2
					c0.1,0,0.2,0.1,0.2,0.1c0,0,0,0,0,0c0.1,0,0.2,0.1,0.2,0.1c0.2,0,0.3-0.1,0.4-0.2l0.8-0.8c0.1-0.1,0.2-0.2,0.4-0.2
					c0.1,0,0.3,0.1,0.3,0.2c0,0,0,0,0,0l1.3,1.3C69.5,121.1,69.5,121.3,69.3,121.6z"/>
			</g>
		</g>
	</g>
	<g>
		<g>
			<path class="st4" d="M58.2,15.8c3.5,3.5,9.1,3.5,12.6,0c3.5-3.5,3.5-9.1,0-12.6c-3.5-3.5-9.1-3.5-12.6,0
				C54.7,6.7,54.7,12.3,58.2,15.8z"/>
		</g>
		<g>
			<path class="st2" d="M64.5,19c-2.4,0-4.9-0.9-6.7-2.8C56,14.4,55,12,55,9.5c0-2.5,1-4.9,2.8-6.7c3.7-3.7,9.7-3.7,13.4,0
				c3.7,3.7,3.7,9.7,0,13.4C69.4,18.1,66.9,19,64.5,19z M64.5,1.2c-2.1,0-4.2,0.8-5.9,2.4c-1.6,1.6-2.4,3.6-2.4,5.9
				c0,2.2,0.9,4.3,2.4,5.9c3.2,3.2,8.5,3.2,11.7,0c3.2-3.2,3.2-8.5,0-11.7C68.7,2,66.6,1.2,64.5,1.2z"/>
		</g>
		<g>
			<g>
				<path class="st2" d="M68.4,10.1c-0.2-0.2-0.5-0.4-0.8-0.4c-0.3,0-0.6,0.1-0.8,0.4L66,10.8c-0.1,0-0.1-0.1-0.2-0.1
					c-0.1,0-0.2-0.1-0.2-0.1c-0.7-0.4-1.3-1-1.9-1.8c-0.3-0.4-0.5-0.7-0.6-1c0.2-0.2,0.4-0.4,0.5-0.5c0.1-0.1,0.1-0.1,0.2-0.2
					c0.5-0.5,0.5-1.1,0-1.6l-0.6-0.6c-0.1-0.1-0.1-0.1-0.2-0.2c-0.1-0.1-0.3-0.3-0.4-0.4c-0.2-0.2-0.5-0.3-0.8-0.3
					c-0.3,0-0.6,0.1-0.8,0.3c0,0,0,0,0,0l-0.8,0.8c-0.3,0.3-0.5,0.7-0.5,1.1c-0.1,0.7,0.1,1.3,0.3,1.8c0.4,1,1,2,1.8,3
					c1,1.2,2.3,2.2,3.7,2.9c0.5,0.3,1.3,0.6,2.1,0.6c0,0,0.1,0,0.1,0c0.5,0,1-0.2,1.4-0.6c0,0,0,0,0,0c0.1-0.1,0.3-0.3,0.4-0.4
					c0.1-0.1,0.2-0.2,0.3-0.3c0.2-0.2,0.4-0.5,0.4-0.8c0-0.3-0.1-0.6-0.4-0.8L68.4,10.1z M69.3,12.6C69.2,12.6,69.2,12.6,69.3,12.6
					c-0.1,0.1-0.2,0.2-0.3,0.3c-0.2,0.1-0.3,0.3-0.5,0.5c-0.2,0.3-0.5,0.4-0.9,0.4c0,0-0.1,0-0.1,0c-0.7,0-1.4-0.3-1.8-0.6
					c-1.3-0.6-2.5-1.6-3.5-2.7c-0.8-1-1.3-1.9-1.7-2.8c-0.2-0.6-0.3-1-0.3-1.5c0-0.3,0.1-0.5,0.3-0.7l0.8-0.8
					c0.1-0.1,0.2-0.2,0.4-0.2c0.1,0,0.3,0.1,0.3,0.2c0,0,0,0,0,0c0.1,0.1,0.3,0.3,0.4,0.4c0.1,0.1,0.1,0.2,0.2,0.2l0.6,0.6
					c0.3,0.3,0.3,0.5,0,0.7c-0.1,0.1-0.1,0.1-0.2,0.2c-0.2,0.2-0.4,0.4-0.6,0.6c0,0,0,0,0,0c-0.2,0.2-0.2,0.4-0.1,0.5c0,0,0,0,0,0
					c0.2,0.4,0.4,0.8,0.8,1.2l0,0c0.7,0.8,1.3,1.4,2.1,1.9c0.1,0.1,0.2,0.1,0.3,0.2c0.1,0,0.2,0.1,0.2,0.1c0,0,0,0,0,0
					c0.1,0,0.2,0.1,0.2,0.1c0.2,0,0.3-0.1,0.4-0.2l0.8-0.8c0.1-0.1,0.2-0.2,0.4-0.2c0.1,0,0.3,0.1,0.3,0.2c0,0,0,0,0,0l1.3,1.3
					C69.5,12.1,69.5,12.3,69.3,12.6z"/>
			</g>
		</g>
	</g>
</g>
</svg>
