<?xml version="1.0" encoding="utf-8"?>
<!-- Generator: Adobe Illustrator 23.0.3, SVG Export Plug-In . SVG Version: 6.00 Build 0)  -->
<svg version="1.1" id="Capa_1" xmlns="http://www.w3.org/2000/svg" xmlns:xlink="http://www.w3.org/1999/xlink" x="0px" y="0px"
	 viewBox="0 0 50 57.8" style="enable-background:new 0 0 50 57.8;" xml:space="preserve">
<g>
	<g>
		<g>
			<path d="M35.9,37.2H12.1c-0.3,0-0.5,0.1-0.7,0.3L0,48.9l1.3,1.3L12.5,39h22.4c-0.2,1.1-0.8,2.9-2.8,2.9H21.6v1.9h10.5
				c3.8,0,4.8-3.7,4.8-5.7C36.8,37.6,36.4,37.2,35.9,37.2z"/>
		</g>
	</g>
	<g>
		<g>
			<path d="M48,30.8c-0.4-0.4-1-0.4-1.3,0l-8.6,8.6l1.3,1.3l7.8-7.8c1.3,1.7,1,4.1-0.6,5.5L35.5,49.6H15.9c-0.3,0-0.5,0.1-0.7,0.3
				l-6.7,6.7l1.3,1.3l6.4-6.4h19.6c0.3,0,0.5-0.1,0.7-0.3l11.4-11.4C51.5,36.2,49.6,32.3,48,30.8z"/>
		</g>
	</g>
	<g>
		<g>
			<path d="M42.6,13.4h-3.4c-0.3-0.9-0.6-1.7-1-2.5l2.4-2.4c0.4-0.4,0.4-1,0-1.3l-4-4c-0.4-0.4-1-0.4-1.3,0l-2.4,2.4
				c-0.8-0.4-1.6-0.8-2.5-1V1.2c0-0.5-0.4-1-1-1h-5.7c-0.5,0-1,0.4-1,1v3.4c-0.9,0.3-1.7,0.6-2.5,1l-2.4-2.4c-0.4-0.4-1-0.4-1.3,0
				l-4,4c-0.4,0.4-0.4,1,0,1.3l2.4,2.4c-0.4,0.8-0.8,1.6-1,2.5h-3.7c-0.5,0-1,0.4-1,1v5.7c0,0.5,0.4,1,1,1h3.4
				c0.3,0.9,0.6,1.7,1,2.5L12.2,26c-0.4,0.4-0.4,1,0,1.3l4,4c0.4,0.4,1,0.4,1.3,0l2.4-2.4c0.8,0.4,1.6,0.8,2.5,1v3.4
				c0,0.5,0.4,1,1,1h5.7c0.5,0,1-0.4,1-1v-3.4c0.9-0.3,1.7-0.6,2.5-1l2.4,2.4c0.2,0.2,0.4,0.3,0.7,0.3s0.5-0.1,0.7-0.3l4-4
				c0.4-0.4,0.4-1,0-1.3L38,23.6c0.4-0.8,0.8-1.6,1-2.5h3.4c0.5,0,1-0.4,1-1v-5.7C43.5,13.8,43.1,13.4,42.6,13.4z M41.6,19.1h-3.2
				c-0.4,0-0.8,0.3-0.9,0.7c-0.3,1.2-0.8,2.3-1.4,3.4c-0.2,0.4-0.2,0.9,0.1,1.2l2.3,2.3l-2.7,2.7l-2.3-2.3c-0.3-0.3-0.8-0.4-1.2-0.1
				c-1,0.6-2.2,1.1-3.4,1.4c-0.4,0.1-0.7,0.5-0.7,0.9v3.2h-3.8v-3.2c0-0.4-0.3-0.8-0.7-0.9c-1.2-0.3-2.3-0.8-3.4-1.4
				c-0.4-0.2-0.9-0.2-1.2,0.1l-2.3,2.3l-2.6-2.8l2.3-2.3c0.3-0.3,0.4-0.8,0.1-1.2c-0.6-1-1.1-2.2-1.4-3.4c-0.1-0.4-0.5-0.7-0.9-0.7
				h-3.2v-3.8h3.2c0.4,0,0.8-0.3,0.9-0.7c0.3-1.2,0.8-2.3,1.4-3.4c0.2-0.4,0.2-0.9-0.1-1.2l-2.3-2.3l2.7-2.7l2.3,2.3
				c0.3,0.3,0.8,0.4,1.2,0.1c1-0.6,2.2-1.1,3.4-1.4c0.4-0.1,0.7-0.5,0.7-0.9V1.8h3.8V5c0,0.4,0.3,0.8,0.7,0.9
				c1.2,0.3,2.3,0.8,3.4,1.4c0.4,0.2,0.9,0.2,1.2-0.1l2.3-2.3l2.7,2.7l-2.3,2.3c-0.3,0.3-0.4,0.8-0.1,1.2c0.6,1,1.1,2.2,1.4,3.4
				c0.1,0.4,0.5,0.7,0.9,0.7h3.2L41.6,19.1L41.6,19.1z"/>
		</g>
	</g>
	<path d="M26.4,11.5c-3.2,0-5.7,2.6-5.7,5.7s2.6,5.7,5.7,5.7c3.2,0,5.7-2.6,5.7-5.7C32.1,14,29.5,11.5,26.4,11.5z M26.4,21
		c-2.1,0-3.8-1.7-3.8-3.8s1.7-3.8,3.8-3.8s3.8,1.7,3.8,3.8S28.5,21,26.4,21z"/>
	<path d="M26.4,11.5c-3.2,0-5.7,2.6-5.7,5.7s2.6,5.7,5.7,5.7c3.2,0,5.7-2.6,5.7-5.7C32.1,14,29.5,11.5,26.4,11.5z M26.4,21
		c-2.1,0-3.8-1.7-3.8-3.8s1.7-3.8,3.8-3.8s3.8,1.7,3.8,3.8S28.5,21,26.4,21z"/>
</g>
</svg>
