<?xml version="1.0" encoding="utf-8"?>
<!-- Generator: Adobe Illustrator 23.0.3, SVG Export Plug-In . SVG Version: 6.00 Build 0)  -->
<svg version="1.1" id="Capa_1" xmlns="http://www.w3.org/2000/svg" xmlns:xlink="http://www.w3.org/1999/xlink" x="0px" y="0px"
	 viewBox="0 0 51.4 49" style="enable-background:new 0 0 51.4 49;" xml:space="preserve">
<g>
	<path d="M25.7,27.7l-1.4-1.4l-4.2,4.2l-1.7-1.7l4.2-4.2l-1.4-1.4l-1.1,1.1l-3.2,3.2l-0.7-0.7c-0.8-0.8-2-0.8-2.8,0l-1,1
		c-0.7,0.7-0.8,1.9-0.1,2.7L0.7,42.1c-0.8,0.7-0.8,2-0.1,2.8c0,0,0,0,0.1,0.1L4,48.3c0.7,0.8,2,0.8,2.8,0.1c0,0,0,0,0.1-0.1
		l11.6-11.6c0.8,0.7,2,0.6,2.7-0.1l1-1c0.8-0.7,0.8-2,0.1-2.8c0,0,0,0-0.1-0.1L21.5,32l3.1-3.2L25.7,27.7z M5.6,46.9l-3.4-3.3
		L13.9,32l1.7,1.7l1.6,1.7L5.6,46.9z M19.9,35.1l-1.3-1.3l-0.5-0.5L14,29.2l1-1l5.9,6L19.9,35.1z"/>
	<path d="M49.8,2.7l-3.4-3.4c-0.3-0.3-0.8-0.4-1.2-0.1l-6.7,4C38.2,3.4,38,3.7,38,4l-0.1,2.8L26.2,18.5l-1.7,1.7l1.4,1.4L39.6,7.9
		c0.2-0.2,0.3-0.4,0.3-0.7L40,4.6l5.6-3.3L48,3.7l-3.2,5.6l-2.7,0.1c-0.3,0-0.5,0.1-0.7,0.3L27.7,23.4l1.4,1.4l1.7-1.7l11.7-11.6
		l2.8-0.1c0.3,0,0.6-0.2,0.8-0.5l4-6.7C50.2,3.5,50.1,3,49.8,2.7z"/>
	<path d="M33.8,38.5c-0.8,4.9,2.5,9.5,7.4,10.3c2.9,0.5,5.8-0.5,7.9-2.6c0.4-0.4,0.3-1-0.1-1.4c-0.1-0.1-0.2-0.2-0.4-0.2l-5.5-1.5
		c-0.5-0.2-1-0.6-1.2-1.1c-0.3-0.7-0.3-1.6-0.1-2.3c0.4-1.5,1.7-2.6,2.8-2.3l5.5,1.5c0.1,0,0.2,0,0.3,0c0.5,0,1-0.4,1-1
		c0-0.2,0-0.3-0.1-0.5c-0.4-1.4-1.2-2.7-2.3-3.8c-1.7-1.7-4-2.6-6.3-2.6c-1.2,0-2.4,0.2-3.5,0.7L17.9,10.4c0.8-4.9-2.4-9.5-7.3-10.4
		C8.3-0.4,6,0.1,4.1,1.4C3.7,1.7,3.5,2.3,3.8,2.8C3.9,2.9,4,3,4.1,3.1l4.5,2.5c1,0.6,1.2,2.2,0.4,3.6s-2.3,2.1-3.3,1.6L1.6,8.6
		C1.1,8.3,0.5,8.5,0.3,9C0.2,9.2,0.2,9.3,0.2,9.5c0.3,4.9,4.6,8.7,9.5,8.4c1-0.1,2-0.3,3-0.7L33.8,38.5z M45.1,35.5
		c-0.3-0.1-0.6-0.1-0.9-0.1c-2.1,0.2-3.9,1.7-4.3,3.8c-0.3,1.2-0.3,2.4,0.2,3.6c0.4,1.1,1.3,1.9,2.5,2.3l3.6,1
		c-3.3,2-7.6,0.9-9.6-2.4c-0.9-1.6-1.2-3.4-0.8-5.2c0.1-0.3,0-0.7-0.3-0.9L13.4,15.5c-0.3-0.3-0.8-0.4-1.2-0.1
		c-1,0.5-2.1,0.8-3.3,0.8c-3,0-5.6-1.8-6.6-4.6l2.2,1.2c0.5,0.3,1.1,0.4,1.7,0.4c1.8-0.1,3.4-1.2,4.3-2.8c1.3-2.4,0.8-5.2-1.1-6.3
		L6.5,2.5c3.6-1.3,7.7,0.6,9,4.2C16,8,16,9.3,15.7,10.6c-0.1,0.3,0,0.7,0.3,0.9l22.2,22.2c0.3,0.3,0.8,0.4,1.1,0.2
		c1-0.5,2.1-0.8,3.3-0.8c2.5,0,4.8,1.3,6,3.5L45.1,35.5z"/>
</g>
</svg>
