<?xml version="1.0" encoding="utf-8"?>
<!-- Generator: Adobe Illustrator 23.0.3, SVG Export Plug-In . SVG Version: 6.00 Build 0)  -->
<svg version="1.1" id="Capa_1" xmlns="http://www.w3.org/2000/svg" xmlns:xlink="http://www.w3.org/1999/xlink" x="0px" y="0px"
	 viewBox="0 0 53 50" style="enable-background:new 0 0 53 50;" xml:space="preserve">
<g>
	<path d="M27.2,19.7c-0.1,0-0.2,0-0.3,0c-1.1-0.1-2-1.1-2-2.2c0-0.5-0.4-1-1-1c-0.5,0-1,0.4-1,1c0,1.9,1.3,3.6,3.1,4.1v1
		c0,0.5,0.4,1,1,1c0.5,0,1-0.4,1-1v-0.9c2.1-0.4,3.6-2.4,3.3-4.6c-0.2-2.1-2-3.8-4.2-3.8c-1.2,0-2.2-1-2.2-2.2s1-2.2,2.2-2.2
		s2.2,1,2.2,2.2c0,0.5,0.4,1,1,1c0.5,0,1-0.4,1-1c0-2-1.4-3.7-3.4-4.1V6.1c0-0.5-0.4-1-1-1c-0.5,0-1,0.4-1,1v1
		c-2,0.6-3.3,2.5-3.1,4.6c0.3,2.1,2.1,3.7,4.2,3.7c1.2,0,2.2,1,2.2,2.2C29.4,18.7,28.4,19.7,27.2,19.7z"/>
	<path d="M12.8,14.4c0,7.9,6.4,14.3,14.3,14.3s14.3-6.4,14.3-14.3S35,0.1,27.1,0.1C19.2,0,12.8,6.4,12.8,14.4z M27.1,2
		c6.8,0,12.3,5.5,12.3,12.3s-5.5,12.3-12.3,12.3s-12.3-5.5-12.3-12.3S20.3,2,27.1,2z"/>
	<path d="M46.3,34l-7.7,3.7c-1.1-2-3.1-3.3-5.4-3.3l-7.1-0.2c-1.1,0-2.2-0.3-3.2-0.8L22.2,33c-3.7-1.9-8.2-1.9-11.9,0v-1.6
		c0-0.5-0.4-1-1-1l-7.8-0.2c-0.5,0-1,0.4-1,1L0,48.4c0,0.5,0.4,1,1,1l7.8,0.2l0,0c0.5,0,1-0.4,1-1v-0.8l2-1.1
		c0.8-0.4,1.7-0.5,2.6-0.3l12.1,3.4c0,0,0,0,0.1,0c0.9,0.2,1.8,0.3,2.7,0.3c1.9,0,3.8-0.4,5.5-1.2c0,0,0.1,0,0.1-0.1l17.6-11.4
		c0.4-0.3,0.6-0.9,0.3-1.3C51.6,33.7,48.7,32.9,46.3,34z M2,47.3l0.4-15.2l5.9,0.2L7.9,47.5L2,47.3z M33.9,47.1
		c-2.1,1-4.5,1.2-6.8,0.8L15,44.5c-1.4-0.4-2.8-0.2-4.1,0.4l-1,0.6l0.3-10.1c3.3-2.2,7.5-2.4,11-0.6l0.7,0.4c1.3,0.7,2.7,1,4.1,1.1
		l7.1,0.2c2,0.1,3.7,1.5,4.1,3.5l-10.6-0.3c-0.5,0-1,0.4-1,1c0,0.5,0.4,1,1,1L38.3,42l0,0c0.5,0,1-0.4,1-1c0-0.4,0-0.9-0.1-1.3
		l7.9-3.7l0,0c1.1-0.6,2.5-0.4,3.4,0.5L33.9,47.1z"/>
</g>
</svg>
