<?xml version="1.0" encoding="utf-8"?>
<!-- Generator: Adobe Illustrator 23.0.3, SVG Export Plug-In . SVG Version: 6.00 Build 0)  -->
<svg version="1.1" id="Capa_1" xmlns="http://www.w3.org/2000/svg" xmlns:xlink="http://www.w3.org/1999/xlink" x="0px" y="0px"
	 viewBox="0 0 40.4 50" style="enable-background:new 0 0 40.4 50;" xml:space="preserve">
<g>
	<path d="M13,35.7c-0.4,0-0.7,0.3-0.7,0.7s0.3,0.7,0.7,0.7h14.4c0.4,0,0.7-0.3,0.7-0.7s-0.3-0.7-0.7-0.7H13z"/>
	<path d="M28.1,40.5c0-0.4-0.3-0.7-0.7-0.7H13c-0.4,0-0.7,0.3-0.7,0.7s0.3,0.7,0.7,0.7h14.4C27.8,41.2,28.1,40.9,28.1,40.5z"/>
	<g>
		<path d="M13.4,23.2c0.4-0.2,0.5-0.7,0.3-1c-0.9-1.5-1.4-3-1.6-4.1c-0.1-1-0.1-2.6,0.7-3.7c0.4-0.6,1-1.1,1.5-1.4
			c0.3-0.1,0.7-0.2,0.9-0.2c0.4,0.2,0.9,1.5,1,2l0,0c0.7,1.7,0.4,2-0.1,2.4c-0.3,0.1-0.5,0.4-0.6,0.7c-0.3,0.9,0,2.4,0.8,3.8
			c0.2,0.3,0.4,0.7,0.7,1.1c0.3,0.3,0.5,0.7,0.8,1c1.1,1.2,2.4,2,3.4,2c0.3,0,0.6-0.1,0.9-0.3c0.5-0.4,0.8-0.5,2.3,0.7l0,0
			c0.4,0.3,1.5,1.1,1.6,1.6c0,0.1-0.2,0.5-0.4,0.8c-0.4,0.4-1.1,0.8-1.8,1c-1.3,0.3-2.9-0.1-3.8-0.5c-1.3-0.7-2.9-2.1-4.4-3.9
			c-0.3-0.3-0.7-0.4-1-0.1s-0.4,0.7-0.1,1c1.6,2,3.3,3.6,4.9,4.3c0.9,0.4,2.1,0.8,3.4,0.8c0.5,0,0.9,0,1.4-0.2
			c1-0.2,1.9-0.8,2.5-1.4c0,0,1-1,0.8-2c-0.1-1-1.1-1.8-2.2-2.6c-1.6-1.2-2.6-1.7-4.1-0.7c0,0,0,0-0.1,0c-0.3,0-1.3-0.4-2.2-1.5
			c-0.2-0.3-0.5-0.6-0.7-0.9s-0.4-0.6-0.6-0.9c-0.7-1.2-0.8-2.2-0.7-2.5c0,0,0,0,0.1,0c1.4-1.1,1.3-2.2,0.6-4.1
			c-0.4-1.2-0.9-2.4-1.8-2.8c-0.8-0.4-2.1,0.2-2.1,0.2c-0.8,0.4-1.6,1.1-2.2,1.9c-0.9,1.5-1.1,3.4-0.9,4.7c0.2,1.3,0.8,2.9,1.8,4.6
			C12.6,23.3,13.1,23.4,13.4,23.2z"/>
		<path d="M25,20.3c0.1,0,0.2,0.1,0.3,0.1c0.3,0,0.5-0.2,0.7-0.4c0.3-0.6,0.4-1.2,0.3-1.8c-0.1-0.6-0.3-1.2-0.6-1.7
			c-0.4-0.5-0.9-0.9-1.4-1.2c-0.6-0.3-1.2-0.4-1.9-0.3c-0.4,0-0.7,0.4-0.7,0.8s0.4,0.7,0.8,0.7s0.8,0,1.1,0.2
			c0.3,0.2,0.6,0.4,0.8,0.7c0.2,0.3,0.3,0.7,0.4,1c0,0.4,0,0.7-0.2,1.1C24.5,19.7,24.7,20.1,25,20.3z"/>
		<path d="M22.1,12.6h0.1c0.9,0,1.7,0.2,2.5,0.6c1,0.5,1.9,1.2,2.5,2.1c0.6,0.9,1,1.9,1.1,3c0.1,0.9,0,1.8-0.3,2.6
			c-0.1,0.4,0.1,0.8,0.4,0.9c0.1,0,0.2,0,0.2,0c0.3,0,0.6-0.2,0.7-0.5c0.4-1,0.5-2.1,0.4-3.2c-0.1-1.3-0.6-2.6-1.4-3.8
			c-0.8-1.1-1.9-2-3.1-2.6c-1-0.5-2.1-0.7-3.2-0.7l0,0c-0.4,0-0.7,0.3-0.7,0.7l0,0C21.4,12.3,21.7,12.6,22.1,12.6z"/>
	</g>
	<path d="M36.7,0h-33C1.7,0,0,1.6,0,3.7v42.7c0,2,1.6,3.7,3.7,3.7h33c2,0,3.7-1.6,3.7-3.7V3.7C40.4,1.6,38.7,0,36.7,0z M13.7,1.5h13
		v1.2c0,0.3-0.2,0.5-0.5,0.5H14.3c-0.3,0-0.5-0.2-0.5-0.5V1.5H13.7z M36.7,48.5h-33c-1.1,0-2-0.8-2.2-1.8h17c0.4,0,0.7-0.3,0.7-0.7
		s-0.3-0.7-0.7-0.7h-17V3.7c0-1.2,1-2.2,2.2-2.2h8.5v1.2c0,1.1,0.9,2,2,2h11.9c1.1,0,2-0.9,2-2V1.5h8.5c1.2,0,2.2,1,2.2,2.2v41.6
		h-22c-0.4,0-0.7,0.3-0.7,0.7s0.3,0.7,0.7,0.7h22C38.7,47.7,37.8,48.5,36.7,48.5z"/>
</g>
</svg>
