<?xml version="1.0" encoding="utf-8"?>
<!-- Generator: Adobe Illustrator 23.0.3, SVG Export Plug-In . SVG Version: 6.00 Build 0)  -->
<svg version="1.1" id="Capa_1" xmlns="http://www.w3.org/2000/svg" xmlns:xlink="http://www.w3.org/1999/xlink" x="0px" y="0px"
	 viewBox="0 0 60.6 50" style="enable-background:new 0 0 60.6 50;" xml:space="preserve">
<g>
	<path d="M56.7,0H51c-0.5,0-0.9,0.4-0.9,0.9s0.4,0.9,0.9,0.9h5.7c1.1,0,2,0.9,2,2v13.7c0,1.1-0.9,2-2,2h-21c-0.2,0-0.5,0.1-0.6,0.3
		L29.9,25v-4.5c0-0.5-0.4-0.9-0.9-0.9h-1.7c-1.1,0-2-0.9-2-2V3.9c0-1.1,0.9-2,2-2h26.8C54.6,1.9,55,1.5,55,1s-0.4-0.9-0.9-0.9H27.3
		c-2.1,0-3.8,1.7-3.8,3.8v13.7c0,2.1,1.7,3.8,3.8,3.8h0.8v5.8c0,0.4,0.2,0.7,0.6,0.8c0.1,0,0.2,0.1,0.3,0.1c0.2,0,0.5-0.1,0.6-0.3
		l6.4-6.4h20.7c2.1,0,3.8-1.7,3.8-3.8V3.9C60.5,1.7,58.8,0,56.7,0z"/>
	<path d="M37.1,31.2c-0.5-0.5-1.1-0.7-1.7-0.7s-1.3,0.3-1.7,0.7l-5.5,5.5c-2.2-1.1-4.1-2.2-6.2-4c-0.4-0.3-0.9-0.3-1.3,0.1
		c-0.3,0.4-0.3,0.9,0.1,1.3c2.5,2.1,4.6,3.2,7.1,4.5c0.3,0.2,0.8,0.1,1-0.2l3-3l9.7,9.7c-3.1,2.7-7.6,3.6-12.7,2.6
		c-5.7-1.1-11.7-4.6-16.9-9.9S3.3,26.5,2.1,20.9c-1-5.1-0.1-9.5,2.6-12.7l9.7,9.7l-3,3c-0.3,0.3-0.3,0.7-0.2,1
		c1.8,3.5,3.2,6,6.8,9.6c0.4,0.4,0.9,0.4,1.3,0s0.4-0.9,0-1.3c-3.2-3.2-4.6-5.5-6.2-8.6l5.5-5.5c0.5-0.5,0.7-1.1,0.7-1.7
		s-0.3-1.3-0.7-1.7L9.8,3.9C9.3,3.4,8.7,3.2,8.1,3.2S6.8,3.5,6.4,3.9L4,6.3c-3.6,3.6-4.9,8.9-3.7,14.9s4.9,12.4,10.3,17.9
		c5.5,5.5,11.8,9.2,17.9,10.3c1.4,0.3,2.8,0.4,4.2,0.4c4.3,0,8-1.4,10.8-4.2l2.4-2.4c0.5-0.5,0.7-1.1,0.7-1.7s-0.3-1.3-0.7-1.7
		L37.1,31.2z M7.8,5.3c0.1-0.1,0.3-0.2,0.5-0.2s0.4,0.1,0.5,0.2l8.8,8.8c0.1,0.1,0.2,0.3,0.2,0.5s-0.1,0.4-0.2,0.5l-1.7,1.7L6.1,7
		L7.8,5.3z M44.6,42.2l-1.7,1.7l-9.8-9.8l1.7-1.7c0.1-0.1,0.3-0.2,0.5-0.2s0.4,0.1,0.5,0.2l8.8,8.8C44.9,41.5,44.9,41.9,44.6,42.2z"
		/>
	<g>
		<path d="M39,16.2l0.4-2.9H38v-1.8h1.7L40,9.8h-1.4V8h1.7l0.4-2.8h1.7L42,8h1.5l0.4-2.8h1.7L45.2,8h1.3v1.8h-1.6l-0.3,1.7H46v1.8
			h-1.7l-0.4,2.9h-1.7l0.4-2.9h-1.5l-0.4,2.9H39z M42.9,11.5l0.3-1.7h-1.5l-0.2,1.7H42.9z"/>
	</g>
</g>
</svg>
